<mxfile host="Electron" agent="Mozilla/5.0 (Windows NT 10.0; Win64; x64) AppleWebKit/537.36 (KHTML, like Gecko) draw.io/24.7.17 Chrome/128.0.6613.36 Electron/32.0.1 Safari/537.36" version="24.7.17">
  <diagram name="Page-1" id="TS5RDSv5O_JOARYeR3tP">
    <mxGraphModel dx="1050" dy="621" grid="0" gridSize="10" guides="1" tooltips="1" connect="1" arrows="1" fold="1" page="1" pageScale="1" pageWidth="850" pageHeight="1100" math="0" shadow="0">
      <root>
        <mxCell id="0" />
        <mxCell id="1" parent="0" />
        <mxCell id="W9ZGSTiHX9Q-Fq2A5ZPQ-1" value="" style="rounded=0;whiteSpace=wrap;html=1;" parent="1" vertex="1">
          <mxGeometry x="80" y="230" width="200" height="290" as="geometry" />
        </mxCell>
        <mxCell id="W9ZGSTiHX9Q-Fq2A5ZPQ-2" value="" style="triangle;whiteSpace=wrap;html=1;rotation=-90;" parent="1" vertex="1">
          <mxGeometry x="123.75" y="76.25" width="115" height="202.5" as="geometry" />
        </mxCell>
        <mxCell id="W9ZGSTiHX9Q-Fq2A5ZPQ-3" value="" style="shape=image;aspect=fixed;image=data:image/png,iVBORw0KGgoAAAANSUhEUgAAAgAAAAIACAYAAAD0eNT6AAAABHNCSVQICAgIfAhkiAAAAAlwSFlzAAAOxAAADsQBlSsOGwAAABl0RVh0U29mdHdhcmUAd3d3Lmlua3NjYXBlLm9yZ5vuPBoAACAASURBVHic7d15vCVVdejxX9+e6KabeRBphpZJZQqCyGRAhIBRNFHA5zOoOCVqDKJGYjRR0eSZvOeLQ/SpEKNogmN8RoKKAlEaEBwZDXPbNNCA0EBDz0P+2Lftpvucc89QVauq9u/7+ayP2Pfcc9epqnNqnbWr9gZJkiRJkiRJkiRJkiRJkiRJkiRJkiRJkiRJkiRJkiRJkiRJkiRJkiRJkiRJkiRJkiRJkiRJkiRJkiRJkiRJkiRJkiRJkiRJkiRJkiRJkiRJkiRJkiRJkiRJkiRJkiRJkiRJkiRJkiRJkiRJkiRJkiRJkiRJkiRJkiRJkiRJkiRJkiRJkiRJkiRJkiRJkiRJkiRJkiRJkiRJkiRJkiRJkiRJkiRJkiRJkiRJkiRJkiRJkiRJkiRJkiRJkiRJkiRJKsak6AQkFWZnYM+NYjdg+/HYEdgK2Hb8sdOALcf/+wlg5fh/LwYeBX4zHg8BdwPzN4oHSnsFkipjASA1zxTgYOBZwEHAgeP/u22vXyrQYuA64Ibx+BlwPbC6or8vqQAWAFL9bQE8dzyOAQ5nw7f3ungcuAa4ErhiPFaEZiRJUgPNBd4CXERq0a9rWDwOfBt4M2k4QpIkdbEbcBYwD1hL/Em8yLgJeD+wV1EbS5KkJpsJvIZ2nvQ7xVrS8MCrgBmjbz5JkprlAOCTwCPEn5SjYjHwCWD/EbelJEm1dwxpbDyHb/uDxDzgFLwwWZLUImPAy0m3zkWfaOsevwBOxUJAktRwJ5Duk48+sTYtbgBOw0JAktQwzwV+QvyJtOlxDXD0gNtekqTKzQEuwDH+ouPbpLkRJEmqlWmk+9yXEX+ybGssBd4LTO1vl0iSVK4jgRuJP0HmEjcAR/S1ZyRJKsFM4OPAGuJPirnFauAfcDIhSVLFDiCtgBd9Isw9bgYOmWBfSZI0sjHgz0kr3UWf/IwUy4Gz8ZZBSVJJtgK+SfwJz+gcFwHbdN17kiQN4enAr4g/yRm94zbgwC77UJKkgZxOWt8++uRm9BdLgJd13JOSJPXpLLzKv4mxljQvgyRJA5kMfIr4E5kxWpyPEwdJkvq0BWnq2eiTl1FMfAuYjiRJPcwELiH+pGUUG5cDs5EkqYOtgXnEn6yMcuKK8X0sSdJvzQR+RPxJyig3rsZOgCRp3AzgMuJPTkY1cSmuISBJ2ZsGfIf4k5JRbVw0vu8lSRmaBFxA/MnIiIkLcf0AZWxydAJSoA8Cb41OQmEOIBUCP4xORJJUnTOJ/wZqxMda4NVIGbL9pRwdTbov3BniBLASOBb4cXQiUpUsAJSbnYGfAbtGJ6JaWQQcCtwbnYhUlbHoBKQKTQW+iid/be4pwNfwzgBlxIsAlZO/B14RnYRqazdSAfCD6EQkScU5EZf1NSaONcDzkTLgNQDKwbbAdaRveNJE7gEOBh6KTkQqk9cAKAfn48lf/dsV+H/RSUiSRnM68W1lo5nxUqQWcwhAbbYdcDPp1j9pUIuAZwKLoxORyuBdAGqzTwHHRCehxppFun7kouhEpDLYAVBbHQP8CI9xjWYdcBTOEqgW8sNRbTRG+sB+dnQiaoWfAYeT1g2QWsO7ANRGr8GTv4pzKPDK6CSkotkBUNvMAm4FdolORK1yD7AvsDQ6EakodgDUNn+GJ38Vb1fgLdFJSEWyA6A22Rq4k3T7n1S0h4C5wJLoRKQi2AFQm5yNJ3+VZ3tSh0lqBTsAaoutgQXAVtGJqNUWA3tgF0AtYAdAbfFGPPmrfNsCr4tOQiqCHQC1wVTgdmD36ESUhV8DewOroxORRmEHQG1wOp78VZ09gFOjk5BGZQGgNnhrdALKjsecGs8hADXdgcD10UkoSwcAN0UnIQ3LDoCa7o3RCShbr49OQBqFHQA12QzSFK3bRieiLD0EzAGWRyciDcMOgJrsJXjyV5ztgd+PTkIalgWAmuz06ASUPY9BNZZDAGqq2cD9pGEAKcpSYCfgiehEpEHZAVBTnYInf8WbCbwwOglpGBYAaqqXRCcgjXtxdALSMBwCUBNNBh7Alf9UD78BdgbWRiciDcIOgJroOXjyV33sABwanYQ0KAsANdELohOQNuExqcZxCCDWdGB/YF9gz/HYlXR/8foYA7YEpo3/zuLx/32MNBHJg6R2+F2kVcruJE2N+3AF+Ue5EjgqOglpIz8EjotOokTbAwcBc9nwWbUTsCOpAzJ7/HHr5+VYSbozYi3pc2p9LATmj8dtpKmUV5SevTqyAKjOZNLJ/hjSyesQ0ol/Skl/7x7gOuDHwDzgWtpxq9J04BFgi+hEpI0sA7YhnfiabhZwOHA0cARwMOmLSRlWA7cCPweuIhX3N+L1FJWwACjXzqTW4AuAE4mdtW4V6Q32HeC7pOKgiY4mFTRS3RwBXBOdxJAOJn1OnUx6j5X1xaQfDwPfJ31WfYfU4ZQaYUfgTcDlpOp2XU3jNuBDpNX0muRdxG87w+gUb6dZDgL+hvRZEL3tusVq4DLgT0hDDVLtjAEnAF8ljWdFv2kGjZuAc2jGlfVfJX57GUan+DL1N5u0guY84rfXoLEC+DZwGmlIVQo1HXgVcDPxb44iYgnwGdK1CXV1C/HbyTA6xc3U157Ah0kXEUdvpyLiDuAs0kyMUqVmA39FmgAk+o1QRqwC/gXYr6gNVpAZ1HtYxcg7VlO/6amfDvwr7X3fPAj8JenCRalUM0hj0A8Sf+BX9YH2edK3hzo4nPhtYhi94lnUw1zgAtp74t80HgDeiXcHqSSnkO6xjz7QI2IF8DFgq5G34mheQ/y2MIxecQaxtgTeT7otMXpbRMQC0rCsd7ipEPsB/0n8gV2HuAd42UhbczQf6JKXYdQl/oo4pwP3dskrt7gU2Ge0zdl+TgXc3VTgPcAvgWODc6mLpwJfB745/t9V2zPgb0qDmBvwN3cFvgV8Bdgl4O/X0fGkuU7+gtg5DdRAc0kzUkVXsXWOR4D/OewGHtIPC8rdMMqKy6jWy0hT7Ea/7jrHtdgNUJ9eBzxO/EHblPgcadyxCvMreD2GMUrcSTVmkS7QjX69TYklpGuIpI6mA+cRf6A2MX4FPGPwTT6wpUGvzzD6jccp3z7ADUGvr+lxAfW7VVPBdgV+QvzB2eRYTLlLom5Zg9doGP1EmbeivZA0/Bb9Gpsc1+C1EoAXAQLsRRpbPiw6kYbbhjRN5+tLev7tS3peqWhlHatnkC7A3bqk58/F4aSF0eo20Vnlci8ADgOuJhUBGt1k4LOk+5CL1oR1CiQopwA4C/gC6e4kjW5PUhFwZHAeoXIuAI4n3Su6Y3QiLTMJeB9p4qAij6/ZBT6XVKYip6WdBPwd8FGc3KZo25GWHT45OpEouRYALyetMx09s12b/RnpKuWiVu2aVtDzSGWbXtDzTCZ9639XQc+nzW1JmkPh9OhEIuRYALwQ+BKeUKpwBvDPFPPNpagPValsRRyrk4BPEz+1cA6mkRZM+sPoRKqWWwHwHNJsWc4MVZ0zgA8W8DwWbGqKIo7Vv6G8C2q1ucmkFVCPiU6kSjkVAPsDF1PdpDXa4D3A2SM+R1FDCVLZRr1Q783Au4tIRAOZAVwEHBSdSFVyKQDmkE7+Xkke5yOkVbqGtaqoRKSSrRjhd18BfKKoRDSwrUnnij2iE6lCDgXAVsAlwO7RiWRuEmmmxaOG/P1RPlSlKg17rB5Luugvh8/lOtuV1Alofbe47QfaJOCfqGaaWk1sGukajB2G+N2VBecilWWYAmAX4EK8z78uDiCDTkzbC4BzgFOjk9CTzGG4OwPsAKgpBi1WpwH/htPT1s2ZwKujkyhTmwuAw4Bzo5NQRy8C3jHg7zxSRiJSCRYP+PhzgSPKSEQj+yTwzOgkytLWmaW2BH4O7BudiLpaDRwHXNnn43cC7i8tG6k4OwAP9fnY5wKX410udXYTaf2ApdGJFK2tHYCP4Mm/7qYAXwRm9vn4h0kreUl1tpb+u1WzSe8BT/71tj/w4egkytDGAuBY4I3RSagvc4G/7POxq4FHS8xFKsJiYE2fj/1bMrndrAXeQuoCtErbhgC2AK7Db/9NsgI4GLilj8fejHd0qN5uIl1BPpEjgXm080tYW11Duo15bXQiRWnbwfcOPPk3zXTgH/t87PwS85CKcFcfjxkDPk77Pn/b7jnA66KTKFKbDsCdcdWspjqB/lbjml9yHtKo+ikAziTdpaTm+TAtWkK+TQXA/8LlfZvs/5Lm4u5lfgV5SKOYP8HPtwQ+VEEeKsd2FLO4WS20pQDYB5fNbLpdmXj1s9urSEQawR0T/PytwFOqSESleS0tuXizLQXAB3CJ3zZ4F72XUr2hqkSkIV3f42ezgLdXlYhKM5XBJzKrpTYUAPsBL49OQoWYQ+8VA+8AHq8oF2lQS+g9BPBWWjR+nLnXk647a7Q2FABvpx2vQ8lf0L2bs5Z0m5VURzfQfbKq6aQCQO0wAzg7OolRNf3EuSOO/bfNXvS+I+C6qhKRBtSr/f9KXOynbf6U4VY2rY2mFwCvZ+Irx9U8vcZJr64sC2kwV/X42Z9WloWqsiUNnxegyTMBTgJuBfaOTkSleBbwiw7/vg9pv0t18zQ6zwNwGPCTinNRNe4gfSY1cp2SJncAno8n/zbrdkvgbcCiKhOR+rCI7pMAvaHKRFSpvYDfjU5iWE0uAHpdLa7mewXdbwl0GEB1M6/Lv08DTqsyEVWuseeiphYA04EXRyehUm1LmiK4k+9XmYjUh+91+feTScey2uul9J6/pLaaWgCcBGwdnYRK1+1ugO9UmoU0sUu6/Lvf/ttvG+DE6CSG0dQC4CXRCagSpwCTO/z7fPpbPliqwo3Agg7/Phn4/YpzUYxGdqSbWABMInUA1H7bAc/u8rOLq0xE6qFbR+pI0jGs9mtkodfEAuAg0sIxysPJXf79G5VmIXX39S7//oJKs1CkOcAzo5MYVBMLgOOjE1Cluu3vq+jcdpWqtIDu9/j7WZWX50cnMKgmFgBHRyegSh1OuutjU+uwC6B4F9J5EpjpwCEV56JYjTs3NbEAOCo6AVVqOmlWwE6+UmUiUgdf7fLv3QpXtdcx0QkMqmkFwK64oEaODu/y79fg6oCKcz3w8y4/O6zKRFQLjTs/Na0A+J3oBBTiwB4/O7+yLKQnO6/Hzw6uLAvVyUHRCQyiaQVAozauCtNrv38RWF5VItK4ZcC/9Pi5n1V56vVlpXaaVgA8PToBhXhGj589RPfbsKSyfA1Y3OVnk/CzKleNuhWwaQXA3OgEFGIWsEOPn/+fqhKRxn20x8+eAsyoKhHVyp7RCQyiaQXAntEJKEyv4u864PKqElH2LgF+0ePne1aUh+qnUV9Sm1QATAaeGp2Ewuwxwc8/UkkW0sTH2m6VZKE6mkODzquNSRTYns4LwygPO07w84uBG6pIRFn7BRMvR71TFYmolqbQoOWfm1YAKF8T7f91wPsryEN5+2s6z/y3MT+r8taY/d+kAsBVtfLWz5vqm3Sfl10a1U+B/+jjcX5W5c0CoAQzoxNQqH72/zrg3LITUbbey8Tf/sHPqtw1Zv83qQBwXu289bv/LwJ+UGYiytJlwPf6fOy0MhNR7TXmXNWkAsA3Vd4GeVO9E1hTViLKzhrgbQM83s+qvFkASIGuAz4XnYRa49N4h4laqEkFwMroBBRqxYCPfy/wSBmJKCsPAe8b8Hf8rMrboJ9VYZpUADRmo6oUg+7/B4B3lZGIsvIOUhEwCAuAvDXmXNWkAmBpdAIKNcz+Px8vCNTwLgcuGOL3/KzKW2P2f5MKgEGrcLXLb4b4nXXAm0lLt0qDWAq8gf5u+9uUn1V5G+azKoQFgJpi2P1/G/DuIhNRFs4B7hjyd/2syltj9n+TCoCH8daunI1SVX+c/mZwkwC+C3xyhN9/sKhE1DiradDFx00qANYA90YnoTC/HuF31wGvBe4vKBe11wPAmQzX+l9vQUG5qHnuBtZGJ9GvJhUAAHdFJ6Awo+77B0hFQGPenKrcWuBVwKIRn2f+6KmooeZHJzCIphUA86MTUIglFHNhzcXABwt4HrXT++h/ut9e7qdBV4KrUI36ktq0AuDm6AQUosj9fi5eD6DNXQT8bUHPtQ74VUHPpWa5KTqBQTStALg+OgGFKHIa1rXAGcDtBT6nmu1W0jFR5PCQn1V5atSU0RYAaoIbC36+xcDJeLW20i1bp1D8lduNOhGoMEV/VpWqaQXAPcDC6CRUuWtKeM47gJcCy0t4bjXDcuDFpA5A0a4t4TlVbwuB+6KTGETTCgCAq6MTUKWWAT8v6bnn4Z0BuVp/xf9VJT3/T7G4zM0V0QkMqokFwJXRCahS11Lu4ioXMvyUr2qm9VNEf63Ev7GC8gpX1VPjzk1NLAAuj05Alapif38OOLuCv6N6OAf4TAV/x8+qvFwWncCgmlgAXE+abUl5+G5Ff+djDL7uu5rnr4H/XdHf+k5Ff0fx7qaBt342sQAAuCQ6AVXiYdJYalXOJX07VDu9j2ongvox6RhW+10cncAwmloAfCs6AVXiW1S/ANTfA2/CCwPbZB3wNlKBV6U1OOlULjwnVWga6f7ddUar42TivIZ08WH0NjBGixWkSX6ivKhLXkZ74mHSOalxmtoBWAn8e3QSKtViYi+q+TzwAuDRwBw0miXAS4AvBubwPRwGaLtvUO6dSqVpagEAsW9qle9fiX9TXQoczWhLESvGPcBzqe4i0m5WAV8NzkHl8lwUYBJpBq/o9o9RThxCfexCmjQoepsY/cUPgZ077skYBxO/TYxy4hbSuaiRmtwBWEe6f1vt81PgF9FJbOQ+4Djg74Lz0MQ+C5xAWpK3Lq7DSYHa6p9I5yIF2A54nPgq0Cg2Ii/amsgf4TFXx3gM+B899lu01xC/jYxi4wlgBxTqU8QfCEZxsZD6X1E7lzTtZ/S2MlJcC+zTc4/Fm0qaLCZ6WxnFxcdRuH2B1cQfDEYx8U6aYQrwfjz2ImMNaQbHuheM6/0F8dvMKCZWAU9DtfAl4g8IY/R4EJhNsxwN3Ez8tsstbgSO7GP/1Mks0rUJ0dvOGD28/qxG9iZVZNEHhTFavH3THdsQU0lTCC8nfhu2PVYCHwam97Vn6uddxG9DY/Rj0G//NXMe8QeGMXzcDczYbK82y/7AD4jflm2N7wFP73tv1NNM4F7it6UxfHxqs72qcDsBjxB/cBjDxamb79LGOgW4nfht2pa4DThtoD1Qb68mfpsaw8Vv8Mr/2jqH+APEGDzauLrjdOAdwAPEb9+mxv3A2TTnIr9+TQKuIX77GoPHazvsT9XEdNKazNEHidF/LKf+t3CNYkvgLLz4a5D4DekOi60G39yNcTjeQdK0uIoGz/qXiyNItwdFHyxGf/GBzruxdbYm3Qbm+G/3WEi6SK5pd4IM6x+I3+ZGf7Gaek1Prh6cHKgZcTvNv/BvUNOAM4EbiN/+dYnrSePibWv1T2RL4C7it78xcXy0yz5UDW0J/BfxB43RPVYCR3XbgZk4FPgMeU4tvIy0St4J5N1WPQaHAuoeN5Du3lCDHAqsIP7gMTrH2d13XXa2Ad5CWnFwLfH7pqxYA/wIeBNpSETJh4jfN0bneBx4Rvddpzr7c+IPIGPz+BZ5f+vrZTfShEhX045rWdaQLp56GzCnwO3UJlNxuem6xh/12G+quUnAV4g/iIwNsQDYvtdO02/tQLr//TPAPcTvu37jQVJ7/43ALoVvlXZ6Cs3axznEeT33WAvk8C1sNunb1P7RiYgVwHHAj4PzaKJJpFbk0aRx46NIU2DXwW2kb/nzSKskrr/+RoM5BriU/C6GrKPrSWtNLI1OpEw5FAAAu5I+mPaITiRja0nrtX8tOpEW2Ro4cDwOAvYD9iQNI0wp+G+tIt2mdxdwK3Ad6eKoG4DHCv5bOfsD4OvA5OhEMraQVGgviE6kbLkUAADPBK4AtotOJFNvIy3dGmEyadhhfWxBGnedVdLf+ynpRBllCmm8fTc2vOYdgG1Jk+tM5smv/3HSCX41sARYTJqM56HxWEBqT6+u7BVsbi5wWEnPvf71L2fDa36IdP1ChDfhfPNRHgKeS5pQTi1zOHnechUdVU32Mwd4AWlK6C+QrjhfQPW3WbV+7DBA1Yt9rQZ+TTqGPk86pk4mdROr4J0B1ccTeGty672QdA969MGWS3y2v90ylINJnYWvUa8LqH5D+oatYkwlbdPo/bo+7iFd5HgWaeilLJ+owWvNJVaSvjwoA6fjHAFVxBcodixzOvBi4HzqdcLvFL9X4OvO3e8Rvz97xULSMXkK6RgtymTSeyj69bU9VtCu1SbVh+cBjxJ/8LU1PgaM9b03uptEmi3uCzRruWeHAYpTdft/lFhMGjI4nmKusZoEfLgGr6utsQQ4qe+9oVY5FFdpKzrWkhZ0GdWOwLtJ6wVEv6ZhwmGAYtSt/T9I3EZaAKqI9ePPoh0TQ9UpFgHPGmQnqH2eRnqjRh+MbYhVjL5e9l6k7sETNXg9o4bDAKM7ifj9OGosBy5g9Cll/wivXyoq7gT2HWzzq612Ic0TEH1QNjkeBE4cdMNvZC5pxrs2LYziMMDozid+PxYVa0gXD45y4jmJ5nZE6hJXkGZelH5rCvB+bLMNE9eQJqAZxlOBz9GuE//6cBhgNE1u//eKVaTicNiT0BzSSSz6dTQt1pK6i74n1dUJpLGh6IO1CTHKG2oL4C9JF+FEv44yw2GA4dX96v9R4zHS/ALD3DngF5bB4kHg94fYzsqQFXa5b6hjSDNtRb+GKsJhgOG1qf3fK24j3ZU0DL+wTBw/pLoJnNQSU0jLsj5G/AFcp1gLfJHh2pezgE/T7jXvNw2HAYbT1vZ/t1gDfBLYcohttQvwLzV4DXWLR0l3TxS9LoYysgvpCt7og7kOcQvDX+j3bNIiMtGvISIcBhhcG67+HybuZPjpaI8FbqzBa6hDfJu0FoZUiOOAm4g/sCPiCdJ44zBjlZNI90KvqsHriAqHAQbXpMl/io6VwDsZbiKhqaRvvbl2Lm/FiX1UkumkN9dC4g/0qj6Izmf4Sno2aZ7+6NcRHQ/jGu+DyK393y2+RVryeRi7kYbbltfgdVQRi0jrgvg+U+mmA28E7iD+wC8jVpKmM91rhG20B3BzDV5LXcJhgP61/er/QeJGRmtl7wr8A+2YWKtTLAL+HJg5wjaShjJGWkSiLUMDj5Fu69t9xO3yTNIyvNGvp07hMED/crn6v9+4l9FXHdyBNIy3uAavp4i4ndSNnTHidpEKcShpJrsmVto/JXU0ZhewHQ4n3SIY/ZrqFg4D9Mf2f/fj5+gRtut6M0hfWr5fg9c0aCwnzaR4AsUstCQVbnvgDaQ3WJ1nt/sV8AHSt/WivIhmFkBVhcMAE8v16v9+4gnghcNv2s3sD5wL/FcNXlu3WA1cArwe2K7A1y6VbkfgDNI9utHfipcDPyBdXbx/Ca/15eR9pX8/4TDAxHK++r+fWAWcPvTW7e4A0lj6pcCK4Nf4APAl0uJHRaykqC5so1RnjLQa2DGkVt4hwH6UN0nMAuB64GpgHvATYFlJf+t44GKGu00wJ4tJEyitjE6kpqYC95G6aOpuFXAK8L2Snn8GaSjvGOAI0vUHo14X1M0qUgfiF6QF2a5kw8XDKpkFQKxppKJgH9JiOnNJ0xBvv1FMIb0htyDNoPfo+O8+QuoqPESqmO8ajztIFyU+UtFreDZwGWmWP03sJFJLU5s7CfhudBINsZQ0Fn51RX9vG1KX4Gmkz6m5wM6kz6gdxn8O6bbFMVLHcRmphf/QRrGQDZ9Vt5GGIldV9BokFWhvnId80HAYoDuv/h8sHiR1ESWpUrsC84n/EGxauDZAZ179P1zcSZquXBrYWHQCaqQtgG+SJvvRYLZn+JXf2ux4HPsfxlzSe9FbTDUwCwAN4x9JY/8azmnRCdSQ22R4zwE+GJ2EpPZ7HfFtz6aHwwBPZvt/9FhLsXMESNKT7EW+q4wVHU4KtIGT/xQTD+OwnAbgEID6NRW4kGKmC5Yt742dGp1AS2xLmnRsSnQiktrlPcR/w2lTuDZAYvu/+Dh7oD0gST3sS5rUI/qDrW3hMIDt/zLiMdJtulJPDgFoIpOAz5Ju/VOxHAaw/V+G2cBHopOQ1HwvJ/4bTVsj92EA2//lxsn97wpJerIZpDm7oz/I2hw5DwPY/i83bsUFutSDQwDq5a2kRYpUnpyHAWz/l2sf4E+ik1B9uRqguplFmmd8x+hEWi7XJYJd+rcaC0mLdq2ITkT1YwdA3bwNT/5V2JY81wZw7v9qzAFeHZ2E6skCQJ3MBM6KTiIjObbCcx76qNo5ODmQOrAAUCdnAjtEJ5GRl5HX3QBTgT+ITiIjTwNeEZ2E6scCQJsaw2//VcttGMD2f/Xejdd8aRMWANrUCaSrh1WtnIYBbP9X7xmkwkv6LQsAbeoN0QlkKpdhANv/cV4fnYDqxQJAG9sReHF0EpnKZRjA9n+cP8Rtr43U7crQ6aSFZ/YjTUCzNbDleGwbl1bjPAG8EVg14O+dRh7fQuvqVOB70UmUzPZ/nOnAS4HzBvy9KaT1QGYVnlF7LSZ9Dj8BPEqaUfXW8XBOhnH7An8MfJk06cwa4qfPbEN8aJCdsJH/rEHuOUfb1wZw7v/4+P6Ee6mzD9Qg9zbEGtK57sukL2nZXW91BPBJ0gxV0TujjfEgqXMyqKcAq2uQf+5x0kQ7qsGc+z8+VjPcBF+zgQdqkH8b427gE8Bz+t4bBanqGoCdgfcCtwBXA2/G9arL8jekltOgXgBMLjgXDa7NdwPY/o83meGKzCUM31lUb3OAPwV+DPwX8B5gp9CMCrI78DHSOEh0lZVD3MXwq399pQb5G+0dBrD9X5/40gT7qptpwO01yD+HWA58Btitrz1TMzuTLjRZQfyGzCle28/O6WAy6cQTnb+Roo3DALb/6xMPMnz398wa5J9TrAA+TUM6AmPAq7DSQSdQ1wAADR9JREFUj4hFwBYT76KOfqcG+RsbYtCrtJvgfOK3q7Eh9u+9u7qaShqzjs4/t1hMmqG10GHaIq8B+B3gWuALeK9phI+S2kbDOKrIRDSytk0K5OQ/9XPMkL+3inQRt6q1Dekz/mrgoKKetKgC4FXAlcChBT2fBrOE1CYalgVAvbRtUiAn/6mfUd7znwIeKyoRDeTZwDUUtF7LqAXAVsCFpG/9M0dPR0M6H3hkhN9/VlGJqDBtuhvAq//rZ5T3/GPA54pKRAPbgtQN+AapMzC0UVaH2p00a9nTR0lAI1sL7E26A2AY04HHqd+skLlbTJqbYWV0IiOaCtyHHYC6WUWa2W/Y42su6Y4Ap5OPdTPpAtuFw/zysDvvGcA8PPnXweUMf/KHdDGQJ//6acswgO3/eprKaJ/fd5FmDlWsZ5KGBA4c5peHKQCOIJ38G3l/Ygt9fsTf37eIJFSKNgwD2P6vr1Gnof3nQrLQqJ5K+iJ4+KC/OGgBcCBwMbDdoH9IpXgM+LcRn2NuEYmoFE2/G8Cr/+tt1Pf+Nxjt2iMVZ3vgEtLdeH0bpACYSxrzd1W++vgysHTE59ijiERUim2B46KTGIHt/3obtQBYBny9iERUiK2B/yCtpNuXfguAnUjVxS6D56QSfaGA53BNhno7PTqBEdj+r7c5BTxHEZ9BKs5TSV/Ud+jnwf0UAGOkuaP3HiEpFe9+0uIRo+rrQFGYl9LMYQDb//VXRHfmKtIspKqPfYGv0sesgf0UAH8FnDhqRircv5NuARyVLdp6a+owgO3/+iti/6wltZ1VL88DzpnoQRMVAMeSCgDVz7cLep6RJpJQJZo4DGD7v/6Kup6rqM8iFetcUiHeVa+JgGaRJhnwdr/6WUZq3Y96ASCkOwlmF/A8Kk/TJgVy8p9meJRivgDMJC0AN6OA51KxFpDmCnii0w97dQDehyf/urqUYk7+0Mzx5dw0bRjA9n8zTC/oeZaSPpNUP7vTo4vfrQDYn4IWG1ApinyzWQA0Q5OGAWz/N0OR730LgPo6mzR772a6FQCfIrXxVE/zCnyuUdaDUHWacjeAV/83R5Hz+Bf5maRiTQP+sdMPOh0AJwC/W2o6GsXjwC+jk1DlmrI2wPOx/Z+jX5I+m1RPx5Mu6n+STgXAe8rPRSO4GlgdnYRCNKG13oQcVbzVpEVpVF+bnds3LQCeQ7MuNsrRldEJKEzdhwGmAi+JTkJhHAaotxOBozb+h00LgAknDlC4Imb/UzPVfRjA9n/e7ADU39s3/j8bFwDbAy+sNhcN4aboBBSqzi32Ouem8vnZVH+nsNH07xsXAK+k3u1FpUl77olOQqHqOgxg+193A0uik1BP09ioUN+4ADij+lw0oJuAddFJKFRdhwFs/2sd8KvoJDSh357r1xcATwMOi8lFA/DNJahnq72OOal6DgPU35HAHrChAHh+XC4awM3RCagW6jYMYPtf6/kZ1QzHw4YCoI4tRW1ufnQCqoW6DQPY/td6v45OQH15HqQCYBL1+jBRd/dGJ6DaqFPLvU65KNZ90QmoL8+HVADsTVpqVPW3KDoB1UZdhgFs/2tjFgDN8FRgrzG6rBKk2lmHby5tUJdhANv/2phdyuZ4+hiwX3QW6stiYHl0EqqVOrTe65CD6mMZ8Gh0EurLfmPAvtFZqC8PRieg2okeBrD9r04eiE5AfdlvDNgnOgv1ZWl0Aqqd6GEA2//qxM+qZthnDN/ATWH7X51EtuBt/6sTP6uaYbsxYHZ0FuqLbyp1EjUMYPtf3fhZ1QxbWQA0h28qdRI1DGD7X90si05AfZk9BsyKzkJ9sQBQNxGteNv/6sbPqmaYPUY9JhPRxFZHJ6DaqnoYwPa/elkVnYD6Mn1s4sdIqrmqhwFs/0stYAEgtUOVLXnb/1ILWABI7VDVMIDtf6klLACkdqhqGMD2v9QSFgBSe1TRmrf9L7WEBYDUHmUPA9j+l1rEAkBqj7KHAWz/Sy1iASC1S5ktetv/UotYAEjtUtYwgO1/qWUsAKR2KWsYwPa/1DIWAFL7lNGqt/0vtYwFgNQ+RQ8D2P6XWsgCQGqfoocBbP9LLWQBILVTkS172/9SC1kASO1U1DCA7X+ppSwApHYqahjA9r/UUhYAUnsV0bq3/S+1lAWA1F6jDgPY/pdazAJAaq9RhwFs/0stZgEgtdsoLXzb/1KLWQBI7TbsMIDtf6nlLACkdht2GMD2v9RyFgBS+w3Tyrf9L7WcBYDUfoMOA9j+lzJgASC136DDALb/pQxYAEh5GKSlb/tfyoAFgJSHfocBbP9LmbAAkPLQ7zCA7X8pExYAUj76ae3b/pcyYQEg5WOiYQDb/1JGLACkfEw0DGD7X8qIBYCUl14tftv/UkYsAKS8dBsGsP0vZcYCQMpLt2EA2/9SZiwApPx0avXb/pcyYwEg5WfTYQDb/1KGLACk/Gw6DGD7X8qQBYCUp9O6/LekTFgASHlaPwxg+1/K1JToBCSFWD8MMAnb/1KWLACkfJ1GKgAkZcgCQMrXH0QnICmOBYCUL1v/Usa8CFCSpAxZAEiSlCELAEmSMmQBIElShiwAJEnKkAWAJEkZsgCQJClDFgCSJGXIAkCSpAxZAEiSlCELAEmSMmQBIElShiwAJEnKkAWAJEkZsgCQJClDFgCSJGXIAkCSpAxZAEiSlCELAEmSMmQBIElShiwAJEnKkAWAJEkZsgCQJClDFgCSJGXIAkCSpAxZAEiSlCELAEmSMmQBIElShiwAJEnKkAWAJEkZsgCQJClDFgCSJGXIAkCSpAxZAEiSlCELAEmSMmQBIElShiwAJEnKkAWAJEkZsgCQJClDFgCSJGXIAkCSpAxZAEiSlCELAEmSMmQBIElShiwAJEnKkAWAJEkZsgCQJClDFgCSJGXIAkCSpAxZAEiSlCELAEmSMmQBIElShiwAJEnKkAWAJEkZsgCQJClDFgCSJGXIAkCSpAxZAEiSlCELAEmSMmQBIElShiwAJEnKkAWAJEkZsgCQJClDFgCSJGXIAkCSpAxZAEiSlCELAEmSMmQBIElShiwAJEnKkAWAJEkZsgCQJClDFgCSJGXIAkCSpAxZAEiSlCELAEmSMmQBIElShiwAJEnKkAWAJEkZsgCQJClDFgCSJGXIAkCSpAxZAEiSlCELAEmSMmQBIElShsaAldFJSJKkSq0YAx6PzkKSJFVqyRjwQHQWkiSpUg+MAbdGZyFJkip1yxhwfXQWkiSpUjeMAf8ZnYUkSarU5WPAVcCS6EwkSVIlHgWuHgOWAd8ITkaSJFXj64zfBghwXmQmkiSpMufDhpkArwJ+GJeLJEmqwKXAj+HJUwG/B1gXko4kSSrbWtK5HnhyAXAl8Pmqs5EkSZX4HHDN+v+z6WJAbwfurDQdSZJUtjuAd278D5sWAI8ALweWVpWRJEkq1VLgdNLtf7/VaTngn44/cHUFSUmSpPKsAV4J/HzTH3QqAAD+g9QJWF5iUpIkqTzLgdOA/9/ph90KAIB/A04C7i8hKUmSVJ5FwO8B3+z2gF4FAMCPgEOAHxSYlCRJKs8lpHP3Fb0eNFEBAHAfcCJpDGHh6HlJkqQSLABeQereL5rowf0UAOv9K7AX8MfAjUOlJkmSinYD8AZgH+DL/f7SlAH/yErgs+NxCPAS4HjgUGDmgM8lSZIGt5R0x95lpAv8rhvmSSYVlMwkYPfxmDUeKtZC4OoSntfpn6V8FXUO2NiRwJwSnjd3j4/HgvEY+bO7jJ2vZrEAkPLlOSBjg1wDIEmSWsICQJKkDFkASJKUIQsASZIyZAEgSVKGLAAkScqQBYAkSRmyAJAkKUMWAJIkZcgCQJKkDFkASJKUIQsASZIyZAEgSVKGLAAkScqQBYAkSRmyAJAkKUMWAJIkZcgCQJKkDFkASJKUIQsArYtOQFII3/uZswDQsugEJIVYGp2AYlkAaEl0ApJCPBadgGJZAOju6AQkhVgQnYBiWQDolugEJIW4NToBxbIA0E+iE5AU4troBBTLAkCXRScgKYTv/cxNik5AtXALsG90EpIqczvpPe+tgBmzAyCAC6MTkFSpC/Dknz07AAJ4CnAnMCM6EUmlWw7sBdwbnYhi2QEQwCLg89FJSKrE+XjyF3YAtMHOwK+AbaMTkVSaxcB+wIPRiSje5OgEVBtPAI8CL4pORFJp/gyYF52E6sEOgDb1DeCl0UlIKtzXgdOik1B9WABoU9sAVwAHRCciqTDXA8/F+f+1EQsAdbIrqQiYG52IpJHdSTr5e+GfnsS7ANTJPcDRwC+jE5E0kpuAY/Hkrw4sANTNfcBxpGsCJDXP14CjgIXRiaieLADUy6PAqcAfk24fklR/DwNvAE7HMX/14G2A6sfPgH8GZgIHAVNi05HUwXLg06Qr/b3VTxPyIkANahfSt4szgL2Dc5EEtwJfAs4jzeop9cUCQKPYHzgeeDZpdrHdgVnjIalYj4/HAtIKnteSlvS9OTIpNdd/AwiLSmexaGekAAAAAElFTkSuQmCC;" parent="1" vertex="1">
          <mxGeometry x="129" y="260" width="102" height="102" as="geometry" />
        </mxCell>
        <mxCell id="W9ZGSTiHX9Q-Fq2A5ZPQ-4" value="Équipe de développement" style="text;html=1;align=center;verticalAlign=middle;whiteSpace=wrap;rounded=0;" parent="1" vertex="1">
          <mxGeometry x="131" y="380" width="100" height="30" as="geometry" />
        </mxCell>
        <mxCell id="W9ZGSTiHX9Q-Fq2A5ZPQ-5" value="" style="rounded=0;whiteSpace=wrap;html=1;" parent="1" vertex="1">
          <mxGeometry x="590" y="230" width="200" height="290" as="geometry" />
        </mxCell>
        <mxCell id="W9ZGSTiHX9Q-Fq2A5ZPQ-6" value="" style="triangle;whiteSpace=wrap;html=1;rotation=-90;" parent="1" vertex="1">
          <mxGeometry x="633.75" y="76.25" width="115" height="202.5" as="geometry" />
        </mxCell>
        <mxCell id="W9ZGSTiHX9Q-Fq2A5ZPQ-7" value="" style="shape=image;aspect=fixed;image=data:image/png,iVBORw0KGgoAAAANSUhEUgAAAgAAAAIACAYAAAD0eNT6AAAABHNCSVQICAgIfAhkiAAAAAlwSFlzAAAOxAAADsQBlSsOGwAAABl0RVh0U29mdHdhcmUAd3d3Lmlua3NjYXBlLm9yZ5vuPBoAACAASURBVHic7d15vCVVdejxX9+e6KabeRBphpZJZQqCyGRAhIBRNFHA5zOoOCVqDKJGYjRR0eSZvOeLQ/SpEKNogmN8RoKKAlEaEBwZDXPbNNCA0EBDz0P+2Lftpvucc89QVauq9u/7+ayP2Pfcc9epqnNqnbWr9gZJkiRJkiRJkiRJkiRJkiRJkiRJkiRJkiRJkiRJkiRJkiRJkiRJkiRJkiRJkiRJkiRJkiRJkiRJkiRJkiRJkiRJkiRJkiRJkiRJkiRJkiRJkiRJkiRJkiRJkiRJkiRJkiRJkiRJkiRJkiRJkiRJkiRJkiRJkiRJkiRJkiRJkiRJkiRJkiRJkiRJkiRJkiRJkiRJkiRJkiRJkiRJkiRJkiRJkiRJkiRJkiRJkiRJkiRJkiRJkiRJkiRJkiRJkiRJKsak6AQkFWZnYM+NYjdg+/HYEdgK2Hb8sdOALcf/+wlg5fh/LwYeBX4zHg8BdwPzN4oHSnsFkipjASA1zxTgYOBZwEHAgeP/u22vXyrQYuA64Ibx+BlwPbC6or8vqQAWAFL9bQE8dzyOAQ5nw7f3ungcuAa4ErhiPFaEZiRJUgPNBd4CXERq0a9rWDwOfBt4M2k4QpIkdbEbcBYwD1hL/Em8yLgJeD+wV1EbS5KkJpsJvIZ2nvQ7xVrS8MCrgBmjbz5JkprlAOCTwCPEn5SjYjHwCWD/EbelJEm1dwxpbDyHb/uDxDzgFLwwWZLUImPAy0m3zkWfaOsevwBOxUJAktRwJ5Duk48+sTYtbgBOw0JAktQwzwV+QvyJtOlxDXD0gNtekqTKzQEuwDH+ouPbpLkRJEmqlWmk+9yXEX+ybGssBd4LTO1vl0iSVK4jgRuJP0HmEjcAR/S1ZyRJKsFM4OPAGuJPirnFauAfcDIhSVLFDiCtgBd9Isw9bgYOmWBfSZI0sjHgz0kr3UWf/IwUy4Gz8ZZBSVJJtgK+SfwJz+gcFwHbdN17kiQN4enAr4g/yRm94zbgwC77UJKkgZxOWt8++uRm9BdLgJd13JOSJPXpLLzKv4mxljQvgyRJA5kMfIr4E5kxWpyPEwdJkvq0BWnq2eiTl1FMfAuYjiRJPcwELiH+pGUUG5cDs5EkqYOtgXnEn6yMcuKK8X0sSdJvzQR+RPxJyig3rsZOgCRp3AzgMuJPTkY1cSmuISBJ2ZsGfIf4k5JRbVw0vu8lSRmaBFxA/MnIiIkLcf0AZWxydAJSoA8Cb41OQmEOIBUCP4xORJJUnTOJ/wZqxMda4NVIGbL9pRwdTbov3BniBLASOBb4cXQiUpUsAJSbnYGfAbtGJ6JaWQQcCtwbnYhUlbHoBKQKTQW+iid/be4pwNfwzgBlxIsAlZO/B14RnYRqazdSAfCD6EQkScU5EZf1NSaONcDzkTLgNQDKwbbAdaRveNJE7gEOBh6KTkQqk9cAKAfn48lf/dsV+H/RSUiSRnM68W1lo5nxUqQWcwhAbbYdcDPp1j9pUIuAZwKLoxORyuBdAGqzTwHHRCehxppFun7kouhEpDLYAVBbHQP8CI9xjWYdcBTOEqgW8sNRbTRG+sB+dnQiaoWfAYeT1g2QWsO7ANRGr8GTv4pzKPDK6CSkotkBUNvMAm4FdolORK1yD7AvsDQ6EakodgDUNn+GJ38Vb1fgLdFJSEWyA6A22Rq4k3T7n1S0h4C5wJLoRKQi2AFQm5yNJ3+VZ3tSh0lqBTsAaoutgQXAVtGJqNUWA3tgF0AtYAdAbfFGPPmrfNsCr4tOQiqCHQC1wVTgdmD36ESUhV8DewOroxORRmEHQG1wOp78VZ09gFOjk5BGZQGgNnhrdALKjsecGs8hADXdgcD10UkoSwcAN0UnIQ3LDoCa7o3RCShbr49OQBqFHQA12QzSFK3bRieiLD0EzAGWRyciDcMOgJrsJXjyV5ztgd+PTkIalgWAmuz06ASUPY9BNZZDAGqq2cD9pGEAKcpSYCfgiehEpEHZAVBTnYInf8WbCbwwOglpGBYAaqqXRCcgjXtxdALSMBwCUBNNBh7Alf9UD78BdgbWRiciDcIOgJroOXjyV33sABwanYQ0KAsANdELohOQNuExqcZxCCDWdGB/YF9gz/HYlXR/8foYA7YEpo3/zuLx/32MNBHJg6R2+F2kVcruJE2N+3AF+Ue5EjgqOglpIz8EjotOokTbAwcBc9nwWbUTsCOpAzJ7/HHr5+VYSbozYi3pc2p9LATmj8dtpKmUV5SevTqyAKjOZNLJ/hjSyesQ0ol/Skl/7x7gOuDHwDzgWtpxq9J04BFgi+hEpI0sA7YhnfiabhZwOHA0cARwMOmLSRlWA7cCPweuIhX3N+L1FJWwACjXzqTW4AuAE4mdtW4V6Q32HeC7pOKgiY4mFTRS3RwBXBOdxJAOJn1OnUx6j5X1xaQfDwPfJ31WfYfU4ZQaYUfgTcDlpOp2XU3jNuBDpNX0muRdxG87w+gUb6dZDgL+hvRZEL3tusVq4DLgT0hDDVLtjAEnAF8ljWdFv2kGjZuAc2jGlfVfJX57GUan+DL1N5u0guY84rfXoLEC+DZwGmlIVQo1HXgVcDPxb44iYgnwGdK1CXV1C/HbyTA6xc3U157Ah0kXEUdvpyLiDuAs0kyMUqVmA39FmgAk+o1QRqwC/gXYr6gNVpAZ1HtYxcg7VlO/6amfDvwr7X3fPAj8JenCRalUM0hj0A8Sf+BX9YH2edK3hzo4nPhtYhi94lnUw1zgAtp74t80HgDeiXcHqSSnkO6xjz7QI2IF8DFgq5G34mheQ/y2MIxecQaxtgTeT7otMXpbRMQC0rCsd7ipEPsB/0n8gV2HuAd42UhbczQf6JKXYdQl/oo4pwP3dskrt7gU2Ge0zdl+TgXc3VTgPcAvgWODc6mLpwJfB745/t9V2zPgb0qDmBvwN3cFvgV8Bdgl4O/X0fGkuU7+gtg5DdRAc0kzUkVXsXWOR4D/OewGHtIPC8rdMMqKy6jWy0hT7Ea/7jrHtdgNUJ9eBzxO/EHblPgcadyxCvMreD2GMUrcSTVmkS7QjX69TYklpGuIpI6mA+cRf6A2MX4FPGPwTT6wpUGvzzD6jccp3z7ADUGvr+lxAfW7VVPBdgV+QvzB2eRYTLlLom5Zg9doGP1EmbeivZA0/Bb9Gpsc1+C1EoAXAQLsRRpbPiw6kYbbhjRN5+tLev7tS3peqWhlHatnkC7A3bqk58/F4aSF0eo20Vnlci8ADgOuJhUBGt1k4LOk+5CL1oR1CiQopwA4C/gC6e4kjW5PUhFwZHAeoXIuAI4n3Su6Y3QiLTMJeB9p4qAij6/ZBT6XVKYip6WdBPwd8FGc3KZo25GWHT45OpEouRYALyetMx09s12b/RnpKuWiVu2aVtDzSGWbXtDzTCZ9639XQc+nzW1JmkPh9OhEIuRYALwQ+BKeUKpwBvDPFPPNpagPValsRRyrk4BPEz+1cA6mkRZM+sPoRKqWWwHwHNJsWc4MVZ0zgA8W8DwWbGqKIo7Vv6G8C2q1ucmkFVCPiU6kSjkVAPsDF1PdpDXa4D3A2SM+R1FDCVLZRr1Q783Au4tIRAOZAVwEHBSdSFVyKQDmkE7+Xkke5yOkVbqGtaqoRKSSrRjhd18BfKKoRDSwrUnnij2iE6lCDgXAVsAlwO7RiWRuEmmmxaOG/P1RPlSlKg17rB5Luugvh8/lOtuV1Alofbe47QfaJOCfqGaaWk1sGukajB2G+N2VBecilWWYAmAX4EK8z78uDiCDTkzbC4BzgFOjk9CTzGG4OwPsAKgpBi1WpwH/htPT1s2ZwKujkyhTmwuAw4Bzo5NQRy8C3jHg7zxSRiJSCRYP+PhzgSPKSEQj+yTwzOgkytLWmaW2BH4O7BudiLpaDRwHXNnn43cC7i8tG6k4OwAP9fnY5wKX410udXYTaf2ApdGJFK2tHYCP4Mm/7qYAXwRm9vn4h0kreUl1tpb+u1WzSe8BT/71tj/w4egkytDGAuBY4I3RSagvc4G/7POxq4FHS8xFKsJiYE2fj/1bMrndrAXeQuoCtErbhgC2AK7Db/9NsgI4GLilj8fejHd0qN5uIl1BPpEjgXm080tYW11Duo15bXQiRWnbwfcOPPk3zXTgH/t87PwS85CKcFcfjxkDPk77Pn/b7jnA66KTKFKbDsCdcdWspjqB/lbjml9yHtKo+ikAziTdpaTm+TAtWkK+TQXA/8LlfZvs/5Lm4u5lfgV5SKOYP8HPtwQ+VEEeKsd2FLO4WS20pQDYB5fNbLpdmXj1s9urSEQawR0T/PytwFOqSESleS0tuXizLQXAB3CJ3zZ4F72XUr2hqkSkIV3f42ezgLdXlYhKM5XBJzKrpTYUAPsBL49OQoWYQ+8VA+8AHq8oF2lQS+g9BPBWWjR+nLnXk647a7Q2FABvpx2vQ8lf0L2bs5Z0m5VURzfQfbKq6aQCQO0wAzg7OolRNf3EuSOO/bfNXvS+I+C6qhKRBtSr/f9KXOynbf6U4VY2rY2mFwCvZ+Irx9U8vcZJr64sC2kwV/X42Z9WloWqsiUNnxegyTMBTgJuBfaOTkSleBbwiw7/vg9pv0t18zQ6zwNwGPCTinNRNe4gfSY1cp2SJncAno8n/zbrdkvgbcCiKhOR+rCI7pMAvaHKRFSpvYDfjU5iWE0uAHpdLa7mewXdbwl0GEB1M6/Lv08DTqsyEVWuseeiphYA04EXRyehUm1LmiK4k+9XmYjUh+91+feTScey2uul9J6/pLaaWgCcBGwdnYRK1+1ugO9UmoU0sUu6/Lvf/ttvG+DE6CSG0dQC4CXRCagSpwCTO/z7fPpbPliqwo3Agg7/Phn4/YpzUYxGdqSbWABMInUA1H7bAc/u8rOLq0xE6qFbR+pI0jGs9mtkodfEAuAg0sIxysPJXf79G5VmIXX39S7//oJKs1CkOcAzo5MYVBMLgOOjE1Cluu3vq+jcdpWqtIDu9/j7WZWX50cnMKgmFgBHRyegSh1OuutjU+uwC6B4F9J5EpjpwCEV56JYjTs3NbEAOCo6AVVqOmlWwE6+UmUiUgdf7fLv3QpXtdcx0QkMqmkFwK64oEaODu/y79fg6oCKcz3w8y4/O6zKRFQLjTs/Na0A+J3oBBTiwB4/O7+yLKQnO6/Hzw6uLAvVyUHRCQyiaQVAozauCtNrv38RWF5VItK4ZcC/9Pi5n1V56vVlpXaaVgA8PToBhXhGj589RPfbsKSyfA1Y3OVnk/CzKleNuhWwaQXA3OgEFGIWsEOPn/+fqhKRxn20x8+eAsyoKhHVyp7RCQyiaQXAntEJKEyv4u864PKqElH2LgF+0ePne1aUh+qnUV9Sm1QATAaeGp2Ewuwxwc8/UkkW0sTH2m6VZKE6mkODzquNSRTYns4LwygPO07w84uBG6pIRFn7BRMvR71TFYmolqbQoOWfm1YAKF8T7f91wPsryEN5+2s6z/y3MT+r8taY/d+kAsBVtfLWz5vqm3Sfl10a1U+B/+jjcX5W5c0CoAQzoxNQqH72/zrg3LITUbbey8Tf/sHPqtw1Zv83qQBwXu289bv/LwJ+UGYiytJlwPf6fOy0MhNR7TXmXNWkAsA3Vd4GeVO9E1hTViLKzhrgbQM83s+qvFkASIGuAz4XnYRa49N4h4laqEkFwMroBBRqxYCPfy/wSBmJKCsPAe8b8Hf8rMrboJ9VYZpUADRmo6oUg+7/B4B3lZGIsvIOUhEwCAuAvDXmXNWkAmBpdAIKNcz+Px8vCNTwLgcuGOL3/KzKW2P2f5MKgEGrcLXLb4b4nXXAm0lLt0qDWAq8gf5u+9uUn1V5G+azKoQFgJpi2P1/G/DuIhNRFs4B7hjyd/2syltj9n+TCoCH8daunI1SVX+c/mZwkwC+C3xyhN9/sKhE1DiradDFx00qANYA90YnoTC/HuF31wGvBe4vKBe11wPAmQzX+l9vQUG5qHnuBtZGJ9GvJhUAAHdFJ6Awo+77B0hFQGPenKrcWuBVwKIRn2f+6KmooeZHJzCIphUA86MTUIglFHNhzcXABwt4HrXT++h/ut9e7qdBV4KrUI36ktq0AuDm6AQUosj9fi5eD6DNXQT8bUHPtQ74VUHPpWa5KTqBQTStALg+OgGFKHIa1rXAGcDtBT6nmu1W0jFR5PCQn1V5atSU0RYAaoIbC36+xcDJeLW20i1bp1D8lduNOhGoMEV/VpWqaQXAPcDC6CRUuWtKeM47gJcCy0t4bjXDcuDFpA5A0a4t4TlVbwuB+6KTGETTCgCAq6MTUKWWAT8v6bnn4Z0BuVp/xf9VJT3/T7G4zM0V0QkMqokFwJXRCahS11Lu4ioXMvyUr2qm9VNEf63Ev7GC8gpX1VPjzk1NLAAuj05Alapif38OOLuCv6N6OAf4TAV/x8+qvFwWncCgmlgAXE+abUl5+G5Ff+djDL7uu5rnr4H/XdHf+k5Ff0fx7qaBt342sQAAuCQ6AVXiYdJYalXOJX07VDu9j2ongvox6RhW+10cncAwmloAfCs6AVXiW1S/ANTfA2/CCwPbZB3wNlKBV6U1OOlULjwnVWga6f7ddUar42TivIZ08WH0NjBGixWkSX6ivKhLXkZ74mHSOalxmtoBWAn8e3QSKtViYi+q+TzwAuDRwBw0miXAS4AvBubwPRwGaLtvUO6dSqVpagEAsW9qle9fiX9TXQoczWhLESvGPcBzqe4i0m5WAV8NzkHl8lwUYBJpBq/o9o9RThxCfexCmjQoepsY/cUPgZ077skYBxO/TYxy4hbSuaiRmtwBWEe6f1vt81PgF9FJbOQ+4Djg74Lz0MQ+C5xAWpK3Lq7DSYHa6p9I5yIF2A54nPgq0Cg2Ii/amsgf4TFXx3gM+B899lu01xC/jYxi4wlgBxTqU8QfCEZxsZD6X1E7lzTtZ/S2MlJcC+zTc4/Fm0qaLCZ6WxnFxcdRuH2B1cQfDEYx8U6aYQrwfjz2ImMNaQbHuheM6/0F8dvMKCZWAU9DtfAl4g8IY/R4EJhNsxwN3Ez8tsstbgSO7GP/1Mks0rUJ0dvOGD28/qxG9iZVZNEHhTFavH3THdsQU0lTCC8nfhu2PVYCHwam97Vn6uddxG9DY/Rj0G//NXMe8QeGMXzcDczYbK82y/7AD4jflm2N7wFP73tv1NNM4F7it6UxfHxqs72qcDsBjxB/cBjDxamb79LGOgW4nfht2pa4DThtoD1Qb68mfpsaw8Vv8Mr/2jqH+APEGDzauLrjdOAdwAPEb9+mxv3A2TTnIr9+TQKuIX77GoPHazvsT9XEdNKazNEHidF/LKf+t3CNYkvgLLz4a5D4DekOi60G39yNcTjeQdK0uIoGz/qXiyNItwdFHyxGf/GBzruxdbYm3Qbm+G/3WEi6SK5pd4IM6x+I3+ZGf7Gaek1Prh6cHKgZcTvNv/BvUNOAM4EbiN/+dYnrSePibWv1T2RL4C7it78xcXy0yz5UDW0J/BfxB43RPVYCR3XbgZk4FPgMeU4tvIy0St4J5N1WPQaHAuoeN5Du3lCDHAqsIP7gMTrH2d13XXa2Ad5CWnFwLfH7pqxYA/wIeBNpSETJh4jfN0bneBx4Rvddpzr7c+IPIGPz+BZ5f+vrZTfShEhX045rWdaQLp56GzCnwO3UJlNxuem6xh/12G+quUnAV4g/iIwNsQDYvtdO02/tQLr//TPAPcTvu37jQVJ7/43ALoVvlXZ6Cs3axznEeT33WAvk8C1sNunb1P7RiYgVwHHAj4PzaKJJpFbk0aRx46NIU2DXwW2kb/nzSKskrr/+RoM5BriU/C6GrKPrSWtNLI1OpEw5FAAAu5I+mPaITiRja0nrtX8tOpEW2Ro4cDwOAvYD9iQNI0wp+G+tIt2mdxdwK3Ad6eKoG4DHCv5bOfsD4OvA5OhEMraQVGgviE6kbLkUAADPBK4AtotOJFNvIy3dGmEyadhhfWxBGnedVdLf+ynpRBllCmm8fTc2vOYdgG1Jk+tM5smv/3HSCX41sARYTJqM56HxWEBqT6+u7BVsbi5wWEnPvf71L2fDa36IdP1ChDfhfPNRHgKeS5pQTi1zOHnechUdVU32Mwd4AWlK6C+QrjhfQPW3WbV+7DBA1Yt9rQZ+TTqGPk86pk4mdROr4J0B1ccTeGty672QdA969MGWS3y2v90ylINJnYWvUa8LqH5D+oatYkwlbdPo/bo+7iFd5HgWaeilLJ+owWvNJVaSvjwoA6fjHAFVxBcodixzOvBi4HzqdcLvFL9X4OvO3e8Rvz97xULSMXkK6RgtymTSeyj69bU9VtCu1SbVh+cBjxJ/8LU1PgaM9b03uptEmi3uCzRruWeHAYpTdft/lFhMGjI4nmKusZoEfLgGr6utsQQ4qe+9oVY5FFdpKzrWkhZ0GdWOwLtJ6wVEv6ZhwmGAYtSt/T9I3EZaAKqI9ePPoh0TQ9UpFgHPGmQnqH2eRnqjRh+MbYhVjL5e9l6k7sETNXg9o4bDAKM7ifj9OGosBy5g9Cll/wivXyoq7gT2HWzzq612Ic0TEH1QNjkeBE4cdMNvZC5pxrs2LYziMMDozid+PxYVa0gXD45y4jmJ5nZE6hJXkGZelH5rCvB+bLMNE9eQJqAZxlOBz9GuE//6cBhgNE1u//eKVaTicNiT0BzSSSz6dTQt1pK6i74n1dUJpLGh6IO1CTHKG2oL4C9JF+FEv44yw2GA4dX96v9R4zHS/ALD3DngF5bB4kHg94fYzsqQFXa5b6hjSDNtRb+GKsJhgOG1qf3fK24j3ZU0DL+wTBw/pLoJnNQSU0jLsj5G/AFcp1gLfJHh2pezgE/T7jXvNw2HAYbT1vZ/t1gDfBLYcohttQvwLzV4DXWLR0l3TxS9LoYysgvpCt7og7kOcQvDX+j3bNIiMtGvISIcBhhcG67+HybuZPjpaI8FbqzBa6hDfJu0FoZUiOOAm4g/sCPiCdJ44zBjlZNI90KvqsHriAqHAQbXpMl/io6VwDsZbiKhqaRvvbl2Lm/FiX1UkumkN9dC4g/0qj6Izmf4Sno2aZ7+6NcRHQ/jGu+DyK393y2+RVryeRi7kYbbltfgdVQRi0jrgvg+U+mmA28E7iD+wC8jVpKmM91rhG20B3BzDV5LXcJhgP61/er/QeJGRmtl7wr8A+2YWKtTLAL+HJg5wjaShjJGWkSiLUMDj5Fu69t9xO3yTNIyvNGvp07hMED/crn6v9+4l9FXHdyBNIy3uAavp4i4ndSNnTHidpEKcShpJrsmVto/JXU0ZhewHQ4n3SIY/ZrqFg4D9Mf2f/fj5+gRtut6M0hfWr5fg9c0aCwnzaR4AsUstCQVbnvgDaQ3WJ1nt/sV8AHSt/WivIhmFkBVhcMAE8v16v9+4gnghcNv2s3sD5wL/FcNXlu3WA1cArwe2K7A1y6VbkfgDNI9utHfipcDPyBdXbx/Ca/15eR9pX8/4TDAxHK++r+fWAWcPvTW7e4A0lj6pcCK4Nf4APAl0uJHRaykqC5so1RnjLQa2DGkVt4hwH6UN0nMAuB64GpgHvATYFlJf+t44GKGu00wJ4tJEyitjE6kpqYC95G6aOpuFXAK8L2Snn8GaSjvGOAI0vUHo14X1M0qUgfiF6QF2a5kw8XDKpkFQKxppKJgH9JiOnNJ0xBvv1FMIb0htyDNoPfo+O8+QuoqPESqmO8ajztIFyU+UtFreDZwGWmWP03sJFJLU5s7CfhudBINsZQ0Fn51RX9vG1KX4Gmkz6m5wM6kz6gdxn8O6bbFMVLHcRmphf/QRrGQDZ9Vt5GGIldV9BokFWhvnId80HAYoDuv/h8sHiR1ESWpUrsC84n/EGxauDZAZ179P1zcSZquXBrYWHQCaqQtgG+SJvvRYLZn+JXf2ux4HPsfxlzSe9FbTDUwCwAN4x9JY/8azmnRCdSQ22R4zwE+GJ2EpPZ7HfFtz6aHwwBPZvt/9FhLsXMESNKT7EW+q4wVHU4KtIGT/xQTD+OwnAbgEID6NRW4kGKmC5Yt742dGp1AS2xLmnRsSnQiktrlPcR/w2lTuDZAYvu/+Dh7oD0gST3sS5rUI/qDrW3hMIDt/zLiMdJtulJPDgFoIpOAz5Ju/VOxHAaw/V+G2cBHopOQ1HwvJ/4bTVsj92EA2//lxsn97wpJerIZpDm7oz/I2hw5DwPY/i83bsUFutSDQwDq5a2kRYpUnpyHAWz/l2sf4E+ik1B9uRqguplFmmd8x+hEWi7XJYJd+rcaC0mLdq2ITkT1YwdA3bwNT/5V2JY81wZw7v9qzAFeHZ2E6skCQJ3MBM6KTiIjObbCcx76qNo5ODmQOrAAUCdnAjtEJ5GRl5HX3QBTgT+ITiIjTwNeEZ2E6scCQJsaw2//VcttGMD2f/Xejdd8aRMWANrUCaSrh1WtnIYBbP9X7xmkwkv6LQsAbeoN0QlkKpdhANv/cV4fnYDqxQJAG9sReHF0EpnKZRjA9n+cP8Rtr43U7crQ6aSFZ/YjTUCzNbDleGwbl1bjPAG8EVg14O+dRh7fQuvqVOB70UmUzPZ/nOnAS4HzBvy9KaT1QGYVnlF7LSZ9Dj8BPEqaUfXW8XBOhnH7An8MfJk06cwa4qfPbEN8aJCdsJH/rEHuOUfb1wZw7v/4+P6Ee6mzD9Qg9zbEGtK57sukL2nZXW91BPBJ0gxV0TujjfEgqXMyqKcAq2uQf+5x0kQ7qsGc+z8+VjPcBF+zgQdqkH8b427gE8Bz+t4bBanqGoCdgfcCtwBXA2/G9arL8jekltOgXgBMLjgXDa7NdwPY/o83meGKzCUM31lUb3OAPwV+DPwX8B5gp9CMCrI78DHSOEh0lZVD3MXwq399pQb5G+0dBrD9X5/40gT7qptpwO01yD+HWA58Btitrz1TMzuTLjRZQfyGzCle28/O6WAy6cQTnb+Roo3DALb/6xMPMnz398wa5J9TrAA+TUM6AmPAq7DSQSdQ1wAADR9JREFUj4hFwBYT76KOfqcG+RsbYtCrtJvgfOK3q7Eh9u+9u7qaShqzjs4/t1hMmqG10GHaIq8B+B3gWuALeK9phI+S2kbDOKrIRDSytk0K5OQ/9XPMkL+3inQRt6q1Dekz/mrgoKKetKgC4FXAlcChBT2fBrOE1CYalgVAvbRtUiAn/6mfUd7znwIeKyoRDeTZwDUUtF7LqAXAVsCFpG/9M0dPR0M6H3hkhN9/VlGJqDBtuhvAq//rZ5T3/GPA54pKRAPbgtQN+AapMzC0UVaH2p00a9nTR0lAI1sL7E26A2AY04HHqd+skLlbTJqbYWV0IiOaCtyHHYC6WUWa2W/Y42su6Y4Ap5OPdTPpAtuFw/zysDvvGcA8PPnXweUMf/KHdDGQJ//6acswgO3/eprKaJ/fd5FmDlWsZ5KGBA4c5peHKQCOIJ38G3l/Ygt9fsTf37eIJFSKNgwD2P6vr1Gnof3nQrLQqJ5K+iJ4+KC/OGgBcCBwMbDdoH9IpXgM+LcRn2NuEYmoFE2/G8Cr/+tt1Pf+Nxjt2iMVZ3vgEtLdeH0bpACYSxrzd1W++vgysHTE59ijiERUim2B46KTGIHt/3obtQBYBny9iERUiK2B/yCtpNuXfguAnUjVxS6D56QSfaGA53BNhno7PTqBEdj+r7c5BTxHEZ9BKs5TSV/Ud+jnwf0UAGOkuaP3HiEpFe9+0uIRo+rrQFGYl9LMYQDb//VXRHfmKtIspKqPfYGv0sesgf0UAH8FnDhqRircv5NuARyVLdp6a+owgO3/+iti/6wltZ1VL88DzpnoQRMVAMeSCgDVz7cLep6RJpJQJZo4DGD7v/6Kup6rqM8iFetcUiHeVa+JgGaRJhnwdr/6WUZq3Y96ASCkOwlmF/A8Kk/TJgVy8p9meJRivgDMJC0AN6OA51KxFpDmCnii0w97dQDehyf/urqUYk7+0Mzx5dw0bRjA9n8zTC/oeZaSPpNUP7vTo4vfrQDYn4IWG1ApinyzWQA0Q5OGAWz/N0OR730LgPo6mzR772a6FQCfIrXxVE/zCnyuUdaDUHWacjeAV/83R5Hz+Bf5maRiTQP+sdMPOh0AJwC/W2o6GsXjwC+jk1DlmrI2wPOx/Z+jX5I+m1RPx5Mu6n+STgXAe8rPRSO4GlgdnYRCNKG13oQcVbzVpEVpVF+bnds3LQCeQ7MuNsrRldEJKEzdhwGmAi+JTkJhHAaotxOBozb+h00LgAknDlC4Imb/UzPVfRjA9n/e7ADU39s3/j8bFwDbAy+sNhcN4aboBBSqzi32Ouem8vnZVH+nsNH07xsXAK+k3u1FpUl77olOQqHqOgxg+193A0uik1BP09ioUN+4ADij+lw0oJuAddFJKFRdhwFs/2sd8KvoJDSh357r1xcATwMOi8lFA/DNJahnq72OOal6DgPU35HAHrChAHh+XC4awM3RCagW6jYMYPtf6/kZ1QzHw4YCoI4tRW1ufnQCqoW6DQPY/td6v45OQH15HqQCYBL1+jBRd/dGJ6DaqFPLvU65KNZ90QmoL8+HVADsTVpqVPW3KDoB1UZdhgFs/2tjFgDN8FRgrzG6rBKk2lmHby5tUJdhANv/2phdyuZ4+hiwX3QW6stiYHl0EqqVOrTe65CD6mMZ8Gh0EurLfmPAvtFZqC8PRieg2okeBrD9r04eiE5AfdlvDNgnOgv1ZWl0Aqqd6GEA2//qxM+qZthnDN/ATWH7X51EtuBt/6sTP6uaYbsxYHZ0FuqLbyp1EjUMYPtf3fhZ1QxbWQA0h28qdRI1DGD7X90si05AfZk9BsyKzkJ9sQBQNxGteNv/6sbPqmaYPUY9JhPRxFZHJ6DaqnoYwPa/elkVnYD6Mn1s4sdIqrmqhwFs/0stYAEgtUOVLXnb/1ILWABI7VDVMIDtf6klLACkdqhqGMD2v9QSFgBSe1TRmrf9L7WEBYDUHmUPA9j+l1rEAkBqj7KHAWz/Sy1iASC1S5ktetv/UotYAEjtUtYwgO1/qWUsAKR2KWsYwPa/1DIWAFL7lNGqt/0vtYwFgNQ+RQ8D2P6XWsgCQGqfoocBbP9LLWQBILVTkS172/9SC1kASO1U1DCA7X+ppSwApHYqahjA9r/UUhYAUnsV0bq3/S+1lAWA1F6jDgPY/pdazAJAaq9RhwFs/0stZgEgtdsoLXzb/1KLWQBI7TbsMIDtf6nlLACkdht2GMD2v9RyFgBS+w3Tyrf9L7WcBYDUfoMOA9j+lzJgASC136DDALb/pQxYAEh5GKSlb/tfyoAFgJSHfocBbP9LmbAAkPLQ7zCA7X8pExYAUj76ae3b/pcyYQEg5WOiYQDb/1JGLACkfEw0DGD7X8qIBYCUl14tftv/UkYsAKS8dBsGsP0vZcYCQMpLt2EA2/9SZiwApPx0avXb/pcyYwEg5WfTYQDb/1KGLACk/Gw6DGD7X8qQBYCUp9O6/LekTFgASHlaPwxg+1/K1JToBCSFWD8MMAnb/1KWLACkfJ1GKgAkZcgCQMrXH0QnICmOBYCUL1v/Usa8CFCSpAxZAEiSlCELAEmSMmQBIElShiwAJEnKkAWAJEkZsgCQJClDFgCSJGXIAkCSpAxZAEiSlCELAEmSMmQBIElShiwAJEnKkAWAJEkZsgCQJClDFgCSJGXIAkCSpAxZAEiSlCELAEmSMmQBIElShiwAJEnKkAWAJEkZsgCQJClDFgCSJGXIAkCSpAxZAEiSlCELAEmSMmQBIElShiwAJEnKkAWAJEkZsgCQJClDFgCSJGXIAkCSpAxZAEiSlCELAEmSMmQBIElShiwAJEnKkAWAJEkZsgCQJClDFgCSJGXIAkCSpAxZAEiSlCELAEmSMmQBIElShiwAJEnKkAWAJEkZsgCQJClDFgCSJGXIAkCSpAxZAEiSlCELAEmSMmQBIElShiwAJEnKkAWAJEkZsgCQJClDFgCSJGXIAkCSpAxZAEiSlCELAEmSMmQBIElShiwAJEnKkAWAJEkZsgCQJClDFgCSJGXIAkCSpAxZAEiSlCELAEmSMmQBIElShiwAJEnKkAWAJEkZsgCQJClDFgCSJGXIAkCSpAxZAEiSlCELAEmSMmQBIElShiwAJEnKkAWAJEkZsgCQJClDFgCSJGXIAkCSpAxZAEiSlCELAEmSMmQBIElShsaAldFJSJKkSq0YAx6PzkKSJFVqyRjwQHQWkiSpUg+MAbdGZyFJkip1yxhwfXQWkiSpUjeMAf8ZnYUkSarU5WPAVcCS6EwkSVIlHgWuHgOWAd8ITkaSJFXj64zfBghwXmQmkiSpMufDhpkArwJ+GJeLJEmqwKXAj+HJUwG/B1gXko4kSSrbWtK5HnhyAXAl8Pmqs5EkSZX4HHDN+v+z6WJAbwfurDQdSZJUtjuAd278D5sWAI8ALweWVpWRJEkq1VLgdNLtf7/VaTngn44/cHUFSUmSpPKsAV4J/HzTH3QqAAD+g9QJWF5iUpIkqTzLgdOA/9/ph90KAIB/A04C7i8hKUmSVJ5FwO8B3+z2gF4FAMCPgEOAHxSYlCRJKs8lpHP3Fb0eNFEBAHAfcCJpDGHh6HlJkqQSLABeQereL5rowf0UAOv9K7AX8MfAjUOlJkmSinYD8AZgH+DL/f7SlAH/yErgs+NxCPAS4HjgUGDmgM8lSZIGt5R0x95lpAv8rhvmSSYVlMwkYPfxmDUeKtZC4OoSntfpn6V8FXUO2NiRwJwSnjd3j4/HgvEY+bO7jJ2vZrEAkPLlOSBjg1wDIEmSWsICQJKkDFkASJKUIQsASZIyZAEgSVKGLAAkScqQBYAkSRmyAJAkKUMWAJIkZcgCQJKkDFkASJKUIQsASZIyZAEgSVKGLAAkScqQBYAkSRmyAJAkKUMWAJIkZcgCQJKkDFkASJKUIQsArYtOQFII3/uZswDQsugEJIVYGp2AYlkAaEl0ApJCPBadgGJZAOju6AQkhVgQnYBiWQDolugEJIW4NToBxbIA0E+iE5AU4troBBTLAkCXRScgKYTv/cxNik5AtXALsG90EpIqczvpPe+tgBmzAyCAC6MTkFSpC/Dknz07AAJ4CnAnMCM6EUmlWw7sBdwbnYhi2QEQwCLg89FJSKrE+XjyF3YAtMHOwK+AbaMTkVSaxcB+wIPRiSje5OgEVBtPAI8CL4pORFJp/gyYF52E6sEOgDb1DeCl0UlIKtzXgdOik1B9WABoU9sAVwAHRCciqTDXA8/F+f+1EQsAdbIrqQiYG52IpJHdSTr5e+GfnsS7ANTJPcDRwC+jE5E0kpuAY/Hkrw4sANTNfcBxpGsCJDXP14CjgIXRiaieLADUy6PAqcAfk24fklR/DwNvAE7HMX/14G2A6sfPgH8GZgIHAVNi05HUwXLg06Qr/b3VTxPyIkANahfSt4szgL2Dc5EEtwJfAs4jzeop9cUCQKPYHzgeeDZpdrHdgVnjIalYj4/HAtIKnteSlvS9OTIpNdd/AwiLSmexaGekAAAAAElFTkSuQmCC;" parent="1" vertex="1">
          <mxGeometry x="639" y="260" width="102" height="102" as="geometry" />
        </mxCell>
        <mxCell id="W9ZGSTiHX9Q-Fq2A5ZPQ-8" value="Équipe d&#39;opération" style="text;html=1;align=center;verticalAlign=middle;whiteSpace=wrap;rounded=0;" parent="1" vertex="1">
          <mxGeometry x="641" y="380" width="100" height="30" as="geometry" />
        </mxCell>
        <mxCell id="W9ZGSTiHX9Q-Fq2A5ZPQ-9" value="" style="shape=image;aspect=fixed;image=data:image/jpg,/9j/4AAQSkZJRgABAQEBLAEsAAD/4QBWRXhpZgAATU0AKgAAAAgABAEaAAUAAAABAAAAPgEbAAUAAAABAAAARgEoAAMAAAABAAIAAAITAAMAAAABAAEAAAAAAAAAAAEsAAAAAQAAASwAAAAB/+0ALFBob3Rvc2hvcCAzLjAAOEJJTQQEAAAAAAAPHAFaAAMbJUccAQAAAgAEAP/hDIFodHRwOi8vbnMuYWRvYmUuY29tL3hhcC8xLjAvADw/eHBhY2tldCBiZWdpbj0n77u/JyBpZD0nVzVNME1wQ2VoaUh6cmVTek5UY3prYzlkJz8+Cjx4OnhtcG1ldGEgeG1sbnM6eD0nYWRvYmU6bnM6bWV0YS8nIHg6eG1wdGs9J0ltYWdlOjpFeGlmVG9vbCAxMC4xMCc+CjxyZGY6UkRGIHhtbG5zOnJkZj0naHR0cDovL3d3dy53My5vcmcvMTk5OS8wMi8yMi1yZGYtc3ludGF4LW5zIyc+CgogPHJkZjpEZXNjcmlwdGlvbiByZGY6YWJvdXQ9JycKICB4bWxuczp0aWZmPSdodHRwOi8vbnMuYWRvYmUuY29tL3RpZmYvMS4wLyc+CiAgPHRpZmY6UmVzb2x1dGlvblVuaXQ+MjwvdGlmZjpSZXNvbHV0aW9uVW5pdD4KICA8dGlmZjpYUmVzb2x1dGlvbj4zMDAvMTwvdGlmZjpYUmVzb2x1dGlvbj4KICA8dGlmZjpZUmVzb2x1dGlvbj4zMDAvMTwvdGlmZjpZUmVzb2x1dGlvbj4KIDwvcmRmOkRlc2NyaXB0aW9uPgoKIDxyZGY6RGVzY3JpcHRpb24gcmRmOmFib3V0PScnCiAgeG1sbnM6eG1wTU09J2h0dHA6Ly9ucy5hZG9iZS5jb20veGFwLzEuMC9tbS8nPgogIDx4bXBNTTpEb2N1bWVudElEPmFkb2JlOmRvY2lkOnN0b2NrOjNhMDcxZjc5LWIyMjEtNGY5OS04YTEwLWZjOWQwZWNjYzJlMjwveG1wTU06RG9jdW1lbnRJRD4KICA8eG1wTU06SW5zdGFuY2VJRD54bXAuaWlkOjU5Y2UwYmYyLWVlOGEtNDY2OC1hYTE2LTUyZDgyNzUyYjE3YjwveG1wTU06SW5zdGFuY2VJRD4KIDwvcmRmOkRlc2NyaXB0aW9uPgo8L3JkZjpSREY+CjwveDp4bXBtZXRhPgogICAgICAgICAgICAgICAgICAgICAgICAgICAgICAgICAgICAgICAgICAgICAgICAgICAgICAgICAgICAgICAgICAgICAgICAgICAgICAgICAgICAgICAgICAgICAgICAgICAgCiAgICAgICAgICAgICAgICAgICAgICAgICAgICAgICAgICAgICAgICAgICAgICAgICAgICAgICAgICAgICAgICAgICAgICAgICAgICAgICAgICAgICAgICAgICAgICAgICAgICAKICAgICAgICAgICAgICAgICAgICAgICAgICAgICAgICAgICAgICAgICAgICAgICAgICAgICAgICAgICAgICAgICAgICAgICAgICAgICAgICAgICAgICAgICAgICAgICAgICAgIAogICAgICAgICAgICAgICAgICAgICAgICAgICAgICAgICAgICAgICAgICAgICAgICAgICAgICAgICAgICAgICAgICAgICAgICAgICAgICAgICAgICAgICAgICAgICAgICAgICAgCiAgICAgICAgICAgICAgICAgICAgICAgICAgICAgICAgICAgICAgICAgICAgICAgICAgICAgICAgICAgICAgICAgICAgICAgICAgICAgICAgICAgICAgICAgICAgICAgICAgICAKICAgICAgICAgICAgICAgICAgICAgICAgICAgICAgICAgICAgICAgICAgICAgICAgICAgICAgICAgICAgICAgICAgICAgICAgICAgICAgICAgICAgICAgICAgICAgICAgICAgIAogICAgICAgICAgICAgICAgICAgICAgICAgICAgICAgICAgICAgICAgICAgICAgICAgICAgICAgICAgICAgICAgICAgICAgICAgICAgICAgICAgICAgICAgICAgICAgICAgICAgCiAgICAgICAgICAgICAgICAgICAgICAgICAgICAgICAgICAgICAgICAgICAgICAgICAgICAgICAgICAgICAgICAgICAgICAgICAgICAgICAgICAgICAgICAgICAgICAgICAgICAKICAgICAgICAgICAgICAgICAgICAgICAgICAgICAgICAgICAgICAgICAgICAgICAgICAgICAgICAgICAgICAgICAgICAgICAgICAgICAgICAgICAgICAgICAgICAgICAgICAgIAogICAgICAgICAgICAgICAgICAgICAgICAgICAgICAgICAgICAgICAgICAgICAgICAgICAgICAgICAgICAgICAgICAgICAgICAgICAgICAgICAgICAgICAgICAgICAgICAgICAgCiAgICAgICAgICAgICAgICAgICAgICAgICAgICAgICAgICAgICAgICAgICAgICAgICAgICAgICAgICAgICAgICAgICAgICAgICAgICAgICAgICAgICAgICAgICAgICAgICAgICAKICAgICAgICAgICAgICAgICAgICAgICAgICAgICAgICAgICAgICAgICAgICAgICAgICAgICAgICAgICAgICAgICAgICAgICAgICAgICAgICAgICAgICAgICAgICAgICAgICAgIAogICAgICAgICAgICAgICAgICAgICAgICAgICAgICAgICAgICAgICAgICAgICAgICAgICAgICAgICAgICAgICAgICAgICAgICAgICAgICAgICAgICAgICAgICAgICAgICAgICAgCiAgICAgICAgICAgICAgICAgICAgICAgICAgICAgICAgICAgICAgICAgICAgICAgICAgICAgICAgICAgICAgICAgICAgICAgICAgICAgICAgICAgICAgICAgICAgICAgICAgICAKICAgICAgICAgICAgICAgICAgICAgICAgICAgICAgICAgICAgICAgICAgICAgICAgICAgICAgICAgICAgICAgICAgICAgICAgICAgICAgICAgICAgICAgICAgICAgICAgICAgIAogICAgICAgICAgICAgICAgICAgICAgICAgICAgICAgICAgICAgICAgICAgICAgICAgICAgICAgICAgICAgICAgICAgICAgICAgICAgICAgICAgICAgICAgICAgICAgICAgICAgCiAgICAgICAgICAgICAgICAgICAgICAgICAgICAgICAgICAgICAgICAgICAgICAgICAgICAgICAgICAgICAgICAgICAgICAgICAgICAgICAgICAgICAgICAgICAgICAgICAgICAKICAgICAgICAgICAgICAgICAgICAgICAgICAgICAgICAgICAgICAgICAgICAgICAgICAgICAgICAgICAgICAgICAgICAgICAgICAgICAgICAgICAgICAgICAgICAgICAgICAgIAogICAgICAgICAgICAgICAgICAgICAgICAgICAgICAgICAgICAgICAgICAgICAgICAgICAgICAgICAgICAgICAgICAgICAgICAgICAgICAgICAgICAgICAgICAgICAgICAgICAgCiAgICAgICAgICAgICAgICAgICAgICAgICAgICAgICAgICAgICAgICAgICAgICAgICAgICAgICAgICAgICAgICAgICAgICAgICAgICAgICAgICAgICAgICAgICAgICAgICAgICAKICAgICAgICAgICAgICAgICAgICAgICAgICAgICAgICAgICAgICAgICAgICAgICAgICAgICAgICAgICAgICAgICAgICAgICAgICAgICAgICAgICAgICAgICAgICAgICAgICAgIAogICAgICAgICAgICAgICAgICAgICAgICAgICAgICAgICAgICAgICAgICAgICAgICAgICAgICAgICAgICAgICAgICAgICAgICAgICAgICAgICAgICAgICAgICAgICAgICAgICAgCiAgICAgICAgICAgICAgICAgICAgICAgICAgICAgICAgICAgICAgICAgICAgICAgICAgICAgICAgICAgICAgICAgICAgICAgICAgICAgICAgICAgICAgICAgICAgICAgICAgICAKICAgICAgICAgICAgICAgICAgICAgICAgICAgICAgICAgICAgICAgICAgICAgICAgICAgICAgICAgICAgICAgICAgICAgICAgICAgICAgICAgICAgICAgICAgICAgICAgICAgIAo8P3hwYWNrZXQgZW5kPSd3Jz8+/9sAQwAFAwQEBAMFBAQEBQUFBgcMCAcHBwcPCwsJDBEPEhIRDxERExYcFxMUGhURERghGBodHR8fHxMXIiQiHiQcHh8e/9sAQwEFBQUHBgcOCAgOHhQRFB4eHh4eHh4eHh4eHh4eHh4eHh4eHh4eHh4eHh4eHh4eHh4eHh4eHh4eHh4eHh4eHh4e/8AAEQgBaAFoAwERAAIRAQMRAf/EAB0AAQADAQADAQEAAAAAAAAAAAAFBggHAwQJAQL/xABAEAACAQMCBAIFCAoABwEAAAAAAQIDBAUGEQcSIUETMQgUUVKBFiJCYXGRoaIVU1RWkpOVwdHSMkNiY3Kx4fH/xAAYAQEBAQEBAAAAAAAAAAAAAAAAAwECBP/EABwRAQEBAQADAQEAAAAAAAAAAAABEQIDITESQf/aAAwDAQACEQMRAD8A2WAAAAAAAAAAAAAAAAAAAAAAAAAAAAAAAAAAAAAAAAAAAAAAAAAAAAAAAAAAAAAAAAAAAAAAAAAAAAAAAAAAAAAAAAAAAAAAAAAAAAAAAAAAAAAAAAAAAAAAAAAAAAAAAAAAAAAAAAAAAAAAAAAAAAAAAAAAAAAAAAAAAAAAAAAAAAAAAAAAAAAAAAAAAAAAAAAAAAAAAAAAAAAAAAAAAAAAAAAAAAAAAAAAAAAAAAAAAAAAAAAAAAAAAAAAAAAAAAAAAAAAAAAAAAAAAAAAAAAAAAAAAAAAAAAAAAAAAAAAAAAAAAAAAAAAAAAAAAAAAAAAAAAAAAAAAAAAAAAAAAAAAAAAAAAAAAAAAAAAAAAAAAAAAAAAAAAAAAAAAAAAAAAAAAAAAAAAAAAAAAAAAAAAAAAAAAAAAAAAAAAAAAAAAAAAAAAAAAAAAAAAAAAAAAAAAAAAAAAAAAAAAAAAAAAAAAAAAAAAAAAAAAAAAAAAAAAAAAAAAAAAAAAAAAAAAAAAAAAAAAAAAAAAAAAAAAAAAAAAAAAAAAAAAAAAAAAAAAAAAAAAAAAAAAAAAAAAAAAAAAAAAAAAAAAAAAAAAAAAAAAAAAAAAAAAAAAAAAAAAAAAAAAAAAAAAAAAAAAAAAAAAAAAAAAAAAAAAAAAAAAAAAAAAAAAAAAAAAAAAAAAAAAAAAAAAAAAAAAAAAAAAAAAAB+Sait29kgP49Yofrqf8SAePQ/XU/4kA8eh+up/xIDyAAAAAAAAAAAAAAAAAAAAAAAAAAAAAAAAAAAAAAAAAAAAAAABnL0zdSXNCnhNMWt1VpU68al3dwhNpVIpqNNPbzW/O9vLdL2FfHP647rNXNL3n95VM5pe1/eA5pe8/vA2j6LlbK3HB/H1cpcVa6desrWVSTlJUVPlit31aTUtvq2RDv6rz8dROHQAAAAAAAAAAAAAAAAAAAAAAAAAAAAAAAAAAAAAAAAAAAAAYm9JjM/pjjDllGblSsI07KH1ckd5fnlIvxMiXX1zU7YAHvt81bvsvawPoJw5wy09oTCYVR5ZWljSpzX/AF8qcn/E2ea3arPUT5jQAAAAAAAAAAAAAAAAAAAAAAAAAAAAAAAAAAAAAAAAAAAB4L+5pWVjXvK8uWlQpyqzfsjFNv8ABAfO7M39XLZe9yldt1by4qXE2/bOTl/c9KL1DQAs/CjDfKDiTp/Eyhz0619TlVX/AG4Pnn+EWc9XISbW/F5HnWAAAAAAAAAAAAAAAAAAAAAAAAAAAAAAAAAAAAADcBuA3AAAAADnvpFZn9C8H87VhU5K11RVnS+t1ZKD/K5P4HXE2uevjD32HoTAAHbPQ8w3rvEW9y84twxti1F7eVSrLlX5YzJ+S+nXH1rcioANwG4DcAAAAAAAAAAAAAAAAAAAAAAAAAAAAAAApHF3iNieHuAd3dctxka6cbKyjLaVWS7v3YLvL4Lqzrnn9VluMd53iDrTM5WvkbvUuUhVrScvDt7qpSpQXaMYRaSS/wD3cvJIltej8rdV/vPnP6jW/wBhkNp8rdV/vPnP6jW/2GQ2nyt1X+8+c/qNb/YZDa7J6KGoNaZLXVza18lkcjhlaSld+tVpVYUp9PDacm9pN7rZea39hx5JMdc261KRUAAGd/TSzPJicBp+E+tevUvKsfqhHkj+M5fcV8c/rjtmQq4AAGsvQ4w3qfD+/wAxOO08lfSUXt506SUV+ZzI+S+1OPjuJN0y96WWf1pjNa2Vrb5HI47CytIytXa1pUoVam78TmlFreS+b0fktn3K+OTE+rdcX+Vuq/3nzn9Rrf7FMjnafK3Vf7z5z+o1v9hkNp8rdV/vPnP6jW/2GQ2vdwnEDWmHylDI2mpsrKrRkpKFe7qVac17soSbTTMvMptbD4P8SMVxCwPrFDltsnbpK9snLd05e9H3oPs/g+pHrnFZdXk5aAAAAAAAAAAAAAAAAAAAAAAAAAClcW+ImI4fYB3l41cX9dONlZxltKtJd37ILvL4Lq0jrnnWW4xPq7UeX1Vn7jN5u6dxd139kacV5QgvoxXZfHzbZeTPUSt1EmgAAtfDDQmZ19qKOLxcPDoQ2ld3co707eHtftk+0e/2Js56uQk1trQmk8NozT1DC4W38KhT6znLrOtN+c5vvJ/h5LoiFtqsmJ4xoAAxl6VOZ/SvF27toz5qWMtqVpHbtLbxJfjPb4F+J6S6+uUnbAA3ypy9i3A3zwiwvyf4Z6fxMo8tSjY05VVt/wAya55/mkzzdXarJkWoxqD1vpbD6x09XwmbtvGt6vWMl0nSmvKcH2kv/j3TNlxlmsS8UtBZjQGoZY3JRdW2q7ys7yMdoXEF/wCpLvHt9jTL89bErMVI6AABK6U1BltL562zeFupW15bv5r84zj3hJfSi+6/vszLNPja/CHiNieIWBV1bcttkqCUb2yct5Upe8veg+z+D6oh1z+arLq7nLQAAAAAAAAAAAAAAAAAAAAAABTOLPEPEcPtPu9vWq99WTjZWcZbTrTX/qK7y7fa0jrnnWW4xNrDUmX1Zn7jN5u5de7rPt0hTivKEF2ivZ8Xu22XkxK3UQaAAC08MtDZnXuooYrFQ5KUNpXd3OO9O3h7X7W+0fNv6k2ubZISa23oLSOG0Xp2jhcLb+HSh86pUl1qVp95zfdv8PJdEQt1WTE+Y0AAfxXqQo0Z1aklGEIuUpPySXVsD546qys85qfKZqo95X15VuPhKTaX3bHpkyI1GmgBOcP8O9Qa4wmF23jeX1KnP/w5t5/lUjLchPb6DRSUUktl2PMs/QAEFrrSmG1lp6vhM1b+LQqdYTj0nRmvKcH2kv8A4+jNlyss1iXihoPM6B1FLGZOPi29TeVndxjtC4gu69kl3j2+xpl+etidmKmdMAAEtpLUWW0rnrfN4S6dvd0H0fnGcX5wkvpRfdf3SZlmzKS42vwj4i4jiDgFd2jVvkKCUb2ylLeVGT7r2wfaXwfVMh1zYrLq7HLQAAAAAAAAAAAAAAAAAAAAFN4r8QcPw/0+7+/kq95V3jZ2cZbTrz/tFd5dvtaR1zzemW4xPrLU2Y1bqC4zebuXXuqz2SXSFKC8oQXaK/8Ar6svJiV9oY0AAFo4a6HzOvNRQxOJp8lOO07q6nHenb0/eftb7R82/q3a5twk1trQGkMNorTtHC4ahyUofOq1Zdalefec33b+5LouhC22qyYsJjQAAApPHXNPA8J9Q30JqNWVo7el7eeq1TW38W/wOuZtZ18YS2SWy8l0R6EgAB2H0R8N+keKjyMo708XZVKybXTnntTj+Dn9xPyX065+thEVAAAAgNeaSw2s9O18LmrfxKNT51OpHpUozXlOD7SX4+T6M2Wyss1iXidoXM6C1FPF5SHiUZ7ytLuMdqdxD2r2SXTePb7GmXnUsSsxVToAAEvpDUeX0pn7fN4S6dvd0H9sakX5wmu8X3XxWzSZlm+iXG2OEvEPEcQcAr2zat7+ilG9s5S3nRl7V7YPtL+6aIdc4rLq6HLQAAAAAAAAAAAAAAAAAAVTinrjG6B0rVzV/CVapKXg2tvB7Sr1Wm1Hfstk232S9uyN5m1luMQ601PmNX6gr5vN3PjXNXpGK6QpQXlCC7RX4+b6s9EkkyJW6hTQAAWbhvonNa71FTxOIpcsVtK5upxfh29P3pe1+yPm38WubZCTW2+H2jsNojTtHDYahywj86tWl1qV6m3Wc33b+5LouhC3VZMWIxoAAAAOB+mdmfV9J4bBQl869vJV5pP6FKPT804/cU8c9647ZYLOAABqf0McN6vpPM52cfnXt5GhBv3KUf8AacvuI+S+8d8O+E3YAAAAK/r7SOG1rp2thc1Q56U/nU6kelSjPtOD7Nfc10fRmy2Ms1iXiXobM6D1DPFZWnz0pbytbuEWqdxD2r2Nd4+af1bN3l2JWYqx0AACY0dqXL6Sz9vm8JcuhdUXs0+sKkH5wmu8X7PitmkZZvolxt7hRrnH6/0pTzNlTlQrQn4N1bye7o1Uk2t+6aaafdP27kOucqsuractAAAAAAAAAAAAAAAAAClcZNBW3ELSMsTO49VvKFTx7OvtvGFVJraS7xabT7915HXPX5rLNYi1JhMppzN3OGzNpO0vbaXLUpy/CSfeLXVNeZeXUkcaAAC58JeIeW4e6g9es97iwrtRvbJy2jWiu692a3ez+D6M5651suNs6Q1JiNV4C3zeEuo3FpXXR+UoSXnCS+jJd0QsxSXUuY0AAAAGPfS4zH6R4qLHRlvTxdlTo7J9Oee9SX4OH3FvHPSfX1x4o5ADaS3fkurA3bwLwrwPCfT1jOCjVlaRuKvt56rdR7/xbfA8/V2q8zIuxy0AAAAENrPU2H0jp+4zebulQtaK7dZ1JPyhBfSk+y/sbJrLcYm4r8QcxxB1A7+/boWVFuNlZRlvChB9/wDqm+m8vguiL88zmJ26px0wAASWmMFldS5y2wuFtJXV7cS2hBdEl3lJ/RivNvsZbhPbb3B7QVpw+0lDEUq7ubqtU8e8r7bKpVaS+au0UkkvvfmQ662qyYuZy0AAAAAAAAAAAAAAAAAAFA4z8MsZxDwnK+S0zNtF+pXnL5d/Dn7YP8H1X19c9flz1NYr1Hhcnp7NXOGzFpO0vrafLUpy/Bp94tdU10aLy6mjzQAAXXhHxFy/D3P+t2nNc46u0r2ycto1Yr6Ufdmuz+D6eXPXM6bLjbGkdRYnVWBt81hbuNzaV10a6SjLvGS+jJPo0QsxSXUsY0AAfkmlFttJd9wPnzr/ADD1BrfN5rfeN5fVakP/AA5moflSPTJkRv1BmgBJ6UxU87qfFYWmt5X15St/hKaTf3bmW5CPobRpwpUYUqcVGEIqMUvJJdEeZZ/YAAAAh9Y6kxGk8BcZvN3St7SgvtlOT8oQX0pPsv7GyW3Iy3GJuLPELL8QdQO+vm7exotxsrKMt40Ivu/em+8vguhfnn8p26pp0wAASWmcHlNSZy2wuGtJ3V7cy5YQj0SXeUn9GKXVt+RluDanBvhpi+HuD8KnyXWWuYp3t7y7Ob9yHuwXZd/N9fKHXX6VkxfTloAAAAAAAAAAAAAAAAAAAADn3GnhjjOIWF6eHaZq2g/U7zb4+HPbzg38U+q7p9c9flz1NYs1Dhsnp/M3OHzFpUtL22nyVaU+3safeLXVNdGi8upvQNAABd+EXEbLcPc961bc1zjbiSV7ZOWyqr3o+ya7Pv5Pp5c9c/psuNr6T1DidU4K2zWFu43NncR3jJdHF94yXaSfRpkLMVl1KmABVOL2a+T/AAz1BlYy5alKxqRpPf8A5k1yQ/NJG8zay3IwOlypR9i2PSkAAOreirhv0rxdtLqUOaljLardy38lLbw4/jPf4HHd9N5+tmkFQAAAiNX6jxGlMBc5vN3Ube0oLq/OU5PyhFfSk+yNk1luMT8W+ImX4hZ93l5zW+PoNqyslLeNGL7v3pvvL4LoX55xO3VLOmAACR03hMpqLN22Gw1pO7vbmXLTpx/GTfaKXVt+RluH1tTg1wzxfDzCckOS6y9zFeu3vL/xd+SG/lBPyXfzf1Q66/SnMxfjl0AAAAAAAAAAAAAAAAAAAAAAAOeca+GGN4hYbmj4dpm7aD9TvNvPv4dTbzg38Yvqu6fXPX5c9TWLc/iMlgcxc4jL2lS0vrafJVpT80+zT7prqmujReXU3omgAAvHCDiPleHud9Yt+e5xdxJK9subZVF78fZNdn38n9XPXP6bLja+lNQYrU+Cts1hruFzZ3Ed4yXRp94yXaSfRp+RCzFZdShg4d6Y+Z9T0Bj8PCW08lfJyW/nTpLmf5nAp457c930yaWTAAGnPQtw3h4nP6gnT6169OzpS+qEeeX4zX3EvJf474jQ5J2AAInV2osTpXA3OazV1G2tLeO8m+spPtGK+lJ+SRsmstxifi5xFy3ELP8Ard3zW2OoNqyslLeNKL+lL3pvu/gunnfnn8p26pR0wAASGncLk9Q5q2w+HtJ3d9cz5adOP4tvtFLq2+iRluDafBjhljOHmE5U4XeZuYr1295fPv4cPZBP4t9X22h11+lJMdAOXQAAAAAAAAAAAAAAAAAAAAAAAAAOdcbOF2O4g4fxKfh2mctoP1S7a6Nefh1NvODfxi+q7p9c9flz1NY1zens5hcpXxmTxN5bXdCTjUg6Mn8U0tmn2a6MvsqePS9Svf2K6/kT/wAGh6le/sV1/In/AIAepXv7FdfyJ/4A7n6H8NU0dY31KlQvIYGdrKV54tOUaXjJrw3Hf6fn5dvPyRPyZjrjdapIqMkemHmfXeItliISbhjbFcy38qlWXM/yqBbxz0n39cTKOQB9vkBuL0dcN+hOD+Cozp8la6ou8q/W6snNflcV8Dz93apz8dBOXQAAyl6XsNU19cWlOvQvKmChbRlY+HTlKl4j38Rvbpz+S69dttu5bx5ifX1xD1K9/Yrr+RP/AAUcnqV7+xXX8if+AHqV7+xXX8if+APewOnM7nMrQxeKxN5cXdeSjCCoyS+1traKXdvojLZDGzOCvDHG8PcLu3Tu81cwXrl5y/Hw4b9VBP4t9X2Sh11+lJMdCOXQAAAAAAAAAAAAAAAAAAAAAAAAAAAAAAAAAB+QGA+K2Z+UHEjUGWU+enWvqkaT/wC3B8kPwij0czIjfqsHQAe3hcfVy2YssVQTdW9uKdvBL2zko/3MH0SsLalZWNCzoR5aVCnGlBeyMUkvwR5lnmAAAAAAAAAAAAAAAAAAAAAAAAAAAAAAAAAAAAAAAAAAAAAIDiNmVp7QebzTlyytLGrUg/8Ar5Wor+Jo2Tay+o+fa32+c933ftZ6UgAB0r0ZsN+mOMOJlODlSsI1L2fTy5I7R/NKP3HHdzlvP1tkgqAAAAAAAAAAAAAAAAAAAAAAAAAAAAAAAAAAAAAAAAAAAAAHLvSjo5W44QZCji7erXTr0ZXUacXKSoqfNJ7Lq0mo7/Vuzvj656+MXcsvdf3F0jll7H9wDll7r+4DS3oZabuqFLN6nurWrSp3EadpaTnBx8SKblUa381vyLfy3T9hLyX+KcRowk7AAAAAAAAAAAAAAAAAAAAAAAAAAAAAAAAAAAAAAAAAAAAAAB4/Aofqaf8ACgHgUP1NP+FAPV6H6mn/AAoDyJJLZLZAAAAAAAAAAAAAAAAAAAAAAAAAAAAAAAAAAAAAAAAAAAAAAAAAAAAAAAAAAAAAAAAAAAAAAAAAAAAAAAAAAAAAAAAAAAAAAAAAAAAAAAAAAAAAAAAAAAAAAAAAAAAAAAAAAAAAAAAAAAAAAAAAAAAAAAAAAAAAAAAAAAAAAAAAAAAAAAAAAAAAAAAAAAAAAAAAAAAAAAAAAAAAAAAAAAAAAAAAAAAAAAAAAAAAAAAAAAAAAAAAAAAAAAAAAAAAAAAAAAAAAAAAAAAAAAAAAAAAAAAAAAAAAAAAAAAAAAAAAAAAAAAAAAAAAAAAAAAAAAAAAAAAAAAAAAAAAAAAAAAAAAAAAAAAAAAAAAAAAAAAAAAAAAAAAAAAAAAAAAAAAAAAAAAAAAAAAAAAAAAAAAAAAAAAAAAAAAAAAAAAAAAAAAAAAAAAAAAAAAAAAAAAAAAAAAAAAAAAAAAAAAAAAAAAAAAAAAAAAAAAAAAAAAAAAAAAAAAAAAAAAAAAAAAAAAAAAAAAAAAAAAAAAAAAAAAAAAAAAAAAAAAAAAAAAAAAAAAAAAAAAAAAAAAAAAAAAAAAAAAAAAAAAAAAAAAAAAAAAAAAAAAAAAAAAAAAAAAAAAAAAAAAAAAAAAAAAAAAAAAAAAAAAAAAAAAAAAAAAAAAAAAAAAAAAAAAAAAAAAAAAAAAAAAAAAAAAAAAAAAAAAAAAAAAP//Z;" parent="1" vertex="1">
          <mxGeometry x="141" y="430" width="80" height="80" as="geometry" />
        </mxCell>
        <mxCell id="W9ZGSTiHX9Q-Fq2A5ZPQ-10" value="" style="shape=image;aspect=fixed;image=data:image/jpg,/9j/4AAQSkZJRgABAQEBLAEsAAD/4QBWRXhpZgAATU0AKgAAAAgABAEaAAUAAAABAAAAPgEbAAUAAAABAAAARgEoAAMAAAABAAIAAAITAAMAAAABAAEAAAAAAAAAAAEsAAAAAQAAASwAAAAB/+0ALFBob3Rvc2hvcCAzLjAAOEJJTQQEAAAAAAAPHAFaAAMbJUccAQAAAgAEAP/hDW5odHRwOi8vbnMuYWRvYmUuY29tL3hhcC8xLjAvADw/eHBhY2tldCBiZWdpbj0n77u/JyBpZD0nVzVNME1wQ2VoaUh6cmVTek5UY3prYzlkJz8+Cjx4OnhtcG1ldGEgeG1sbnM6eD0nYWRvYmU6bnM6bWV0YS8nIHg6eG1wdGs9J0ltYWdlOjpFeGlmVG9vbCAxMS44OCc+CjxyZGY6UkRGIHhtbG5zOnJkZj0naHR0cDovL3d3dy53My5vcmcvMTk5OS8wMi8yMi1yZGYtc3ludGF4LW5zIyc+CgogPHJkZjpEZXNjcmlwdGlvbiByZGY6YWJvdXQ9JycKICB4bWxuczp0aWZmPSdodHRwOi8vbnMuYWRvYmUuY29tL3RpZmYvMS4wLyc+CiAgPHRpZmY6UmVzb2x1dGlvblVuaXQ+MjwvdGlmZjpSZXNvbHV0aW9uVW5pdD4KICA8dGlmZjpYUmVzb2x1dGlvbj4zMDAvMTwvdGlmZjpYUmVzb2x1dGlvbj4KICA8dGlmZjpZUmVzb2x1dGlvbj4zMDAvMTwvdGlmZjpZUmVzb2x1dGlvbj4KIDwvcmRmOkRlc2NyaXB0aW9uPgoKIDxyZGY6RGVzY3JpcHRpb24gcmRmOmFib3V0PScnCiAgeG1sbnM6eG1wPSdodHRwOi8vbnMuYWRvYmUuY29tL3hhcC8xLjAvJz4KICA8eG1wOkNyZWF0b3JUb29sPkFkb2JlIFN0b2NrIFBsYXRmb3JtPC94bXA6Q3JlYXRvclRvb2w+CiA8L3JkZjpEZXNjcmlwdGlvbj4KCiA8cmRmOkRlc2NyaXB0aW9uIHJkZjphYm91dD0nJwogIHhtbG5zOnhtcE1NPSdodHRwOi8vbnMuYWRvYmUuY29tL3hhcC8xLjAvbW0vJz4KICA8eG1wTU06RG9jdW1lbnRJRD54bXAuaWlkOjdiNmVlMTZlLWE1MmItNDNhMC1iNWNhLTkyMzNkNGI3NmU2MzwveG1wTU06RG9jdW1lbnRJRD4KICA8eG1wTU06SW5zdGFuY2VJRD5hZG9iZTpkb2NpZDpzdG9jazpjNTExZWZkYy1mMDM3LTQ3ZmUtYTAyNS1mODg0ZGZjMTA5Yzg8L3htcE1NOkluc3RhbmNlSUQ+CiAgPHhtcE1NOk9yaWdpbmFsRG9jdW1lbnRJRD5hZG9iZTpkb2NpZDpzdG9jazo1Njc3NDg4NzU8L3htcE1NOk9yaWdpbmFsRG9jdW1lbnRJRD4KIDwvcmRmOkRlc2NyaXB0aW9uPgo8L3JkZjpSREY+CjwveDp4bXBtZXRhPgogICAgICAgICAgICAgICAgICAgICAgICAgICAgICAgICAgICAgICAgICAgICAgICAgICAgICAgICAgICAgICAgICAgICAgICAgICAgICAgICAgICAgICAgICAgICAgICAgICAgCiAgICAgICAgICAgICAgICAgICAgICAgICAgICAgICAgICAgICAgICAgICAgICAgICAgICAgICAgICAgICAgICAgICAgICAgICAgICAgICAgICAgICAgICAgICAgICAgICAgICAKICAgICAgICAgICAgICAgICAgICAgICAgICAgICAgICAgICAgICAgICAgICAgICAgICAgICAgICAgICAgICAgICAgICAgICAgICAgICAgICAgICAgICAgICAgICAgICAgICAgIAogICAgICAgICAgICAgICAgICAgICAgICAgICAgICAgICAgICAgICAgICAgICAgICAgICAgICAgICAgICAgICAgICAgICAgICAgICAgICAgICAgICAgICAgICAgICAgICAgICAgCiAgICAgICAgICAgICAgICAgICAgICAgICAgICAgICAgICAgICAgICAgICAgICAgICAgICAgICAgICAgICAgICAgICAgICAgICAgICAgICAgICAgICAgICAgICAgICAgICAgICAKICAgICAgICAgICAgICAgICAgICAgICAgICAgICAgICAgICAgICAgICAgICAgICAgICAgICAgICAgICAgICAgICAgICAgICAgICAgICAgICAgICAgICAgICAgICAgICAgICAgIAogICAgICAgICAgICAgICAgICAgICAgICAgICAgICAgICAgICAgICAgICAgICAgICAgICAgICAgICAgICAgICAgICAgICAgICAgICAgICAgICAgICAgICAgICAgICAgICAgICAgCiAgICAgICAgICAgICAgICAgICAgICAgICAgICAgICAgICAgICAgICAgICAgICAgICAgICAgICAgICAgICAgICAgICAgICAgICAgICAgICAgICAgICAgICAgICAgICAgICAgICAKICAgICAgICAgICAgICAgICAgICAgICAgICAgICAgICAgICAgICAgICAgICAgICAgICAgICAgICAgICAgICAgICAgICAgICAgICAgICAgICAgICAgICAgICAgICAgICAgICAgIAogICAgICAgICAgICAgICAgICAgICAgICAgICAgICAgICAgICAgICAgICAgICAgICAgICAgICAgICAgICAgICAgICAgICAgICAgICAgICAgICAgICAgICAgICAgICAgICAgICAgCiAgICAgICAgICAgICAgICAgICAgICAgICAgICAgICAgICAgICAgICAgICAgICAgICAgICAgICAgICAgICAgICAgICAgICAgICAgICAgICAgICAgICAgICAgICAgICAgICAgICAKICAgICAgICAgICAgICAgICAgICAgICAgICAgICAgICAgICAgICAgICAgICAgICAgICAgICAgICAgICAgICAgICAgICAgICAgICAgICAgICAgICAgICAgICAgICAgICAgICAgIAogICAgICAgICAgICAgICAgICAgICAgICAgICAgICAgICAgICAgICAgICAgICAgICAgICAgICAgICAgICAgICAgICAgICAgICAgICAgICAgICAgICAgICAgICAgICAgICAgICAgCiAgICAgICAgICAgICAgICAgICAgICAgICAgICAgICAgICAgICAgICAgICAgICAgICAgICAgICAgICAgICAgICAgICAgICAgICAgICAgICAgICAgICAgICAgICAgICAgICAgICAKICAgICAgICAgICAgICAgICAgICAgICAgICAgICAgICAgICAgICAgICAgICAgICAgICAgICAgICAgICAgICAgICAgICAgICAgICAgICAgICAgICAgICAgICAgICAgICAgICAgIAogICAgICAgICAgICAgICAgICAgICAgICAgICAgICAgICAgICAgICAgICAgICAgICAgICAgICAgICAgICAgICAgICAgICAgICAgICAgICAgICAgICAgICAgICAgICAgICAgICAgCiAgICAgICAgICAgICAgICAgICAgICAgICAgICAgICAgICAgICAgICAgICAgICAgICAgICAgICAgICAgICAgICAgICAgICAgICAgICAgICAgICAgICAgICAgICAgICAgICAgICAKICAgICAgICAgICAgICAgICAgICAgICAgICAgICAgICAgICAgICAgICAgICAgICAgICAgICAgICAgICAgICAgICAgICAgICAgICAgICAgICAgICAgICAgICAgICAgICAgICAgIAogICAgICAgICAgICAgICAgICAgICAgICAgICAgICAgICAgICAgICAgICAgICAgICAgICAgICAgICAgICAgICAgICAgICAgICAgICAgICAgICAgICAgICAgICAgICAgICAgICAgCiAgICAgICAgICAgICAgICAgICAgICAgICAgICAgICAgICAgICAgICAgICAgICAgICAgICAgICAgICAgICAgICAgICAgICAgICAgICAgICAgICAgICAgICAgICAgICAgICAgICAKICAgICAgICAgICAgICAgICAgICAgICAgICAgICAgICAgICAgICAgICAgICAgICAgICAgICAgICAgICAgICAgICAgICAgICAgICAgICAgICAgICAgICAgICAgICAgICAgICAgIAogICAgICAgICAgICAgICAgICAgICAgICAgICAgICAgICAgICAgICAgICAgICAgICAgICAgICAgICAgICAgICAgICAgICAgICAgICAgICAgICAgICAgICAgICAgICAgICAgICAgCiAgICAgICAgICAgICAgICAgICAgICAgICAgICAgICAgICAgICAgICAgICAgICAgICAgICAgICAgICAgICAgICAgICAgICAgICAgICAgICAgICAgICAgICAgICAgICAgICAgICAKICAgICAgICAgICAgICAgICAgICAgICAgICAgICAgICAgICAgICAgICAgICAgICAgICAgICAgICAgICAgICAgICAgICAgICAgICAgICAgICAgICAgICAgICAgICAgICAgICAgIAo8P3hwYWNrZXQgZW5kPSd3Jz8+/9sAQwAFAwQEBAMFBAQEBQUFBgcMCAcHBwcPCwsJDBEPEhIRDxERExYcFxMUGhURERghGBodHR8fHxMXIiQiHiQcHh8e/9sAQwEFBQUHBgcOCAgOHhQRFB4eHh4eHh4eHh4eHh4eHh4eHh4eHh4eHh4eHh4eHh4eHh4eHh4eHh4eHh4eHh4eHh4e/8AAEQgBaAJYAwERAAIRAQMRAf/EABwAAQACAwEBAQAAAAAAAAAAAAAHCAQFBgMCAf/EAEoQAAEDAwEEBQgGBwQKAwAAAAABAgMEBQYRByExQRJRYXGBCBMUIjKRobEVI0JSYsEWJDNDcpKigrLC0hc0RFNUk5Sjs9E3Y/D/xAAbAQEAAgMBAQAAAAAAAAAAAAAABAUCAwYHAf/EADkRAQACAQIDBAgFAgYDAQAAAAABAgMEEQUhMQYSQVETIjJhcYHB0RSRobHhQvAVIzM0UlMWQ3Lx/9oADAMBAAIRAxEAPwC5YAAAAAAAAAAAAAAAAAAAAAAAAAAAAAAAAAAAAAAAAAAAAAAAAAAAAAAAAAAAAAAAAAAAAAAAAAAAAAAAAAAAAAAAAAAAAAAAAAAAAAAAAAAAAAAAAAAAAAAAAAAAAAAAAAAAAAAAAAAAAAAAAAAAAAAAAAAAAAAAAAAAAAAAAAAAAAAAAAAAAAAAAAAAAAAAAAAAAAAAAAAAAAAAAAAAAAAAAAAAAAAAAAAAAAAAAAAAAAAAAAAAAAAAAAAAAAAAAAAAAAAAAAAAAAAAAAAAAAAAAAAAAAAAAAAAAAAAAAAAAAAAAAAAAAAAAAAAAAAAAAAAAAAAAAAAAAAAAAAAAAAAAAAAAAAAAAAAAAAAAAAAAAAAAAAAAAAAAAAAAAAAAAAAAAAAAAAAAAAAAAAAAAAAAAAAAAAAAAAAAAAAAAAAAAAAAAAAAAAAAAAAAAAAAAAAAAAAAAAAAAAAAAAAAAAAAAAAAAAAAAAAAAAAAAAAAAAAAAAAAAAAAAAAAAAAAAAAAAAAAAAAAAAAAAAAAAAAAAAAAAAAAAAAAAAAAAAAAAAAAAAAAAAAAAAAAAAAAAAAAAAAAAAAAAAAAAAAAAAAAAAAAAAAAAAAAAAAAAAAAAAAAAAAAAAAAAAAAAAAAAAAAAAAA8qmop6WB09TPFDE32nyORrU8VPkzEdWNr1rG9p2hxV92s4Ralcz6W9OlavsUbFl/q9n4ke2qxV8VTn47osPLv7z7uf8OKuu3+BFc21Y7K/qfU1CN/pai/M0W18eEKrL2pr/AOvH+c/ZzVdt0y+ZV9GpbVSJy0ic9fi40zrsk9EC/aXV29mIhqptsGfScLvDH2MpI0+aKY/i8vmjzx/XT/X+kPFNrGfIuv0+7/p4v8pj+Ky+bD/HNf8A9n6R9mRBtjz6LjdaeVOp9Iz8kQyjWZfNnXtBro/qj8obe37d8qh3VdBaqpOejHxqvucqfAzjXZI6wlY+02qr7VYn84dPaNv1ukVrbrYKqn6308zZE9y6Kbq6+P6oWGLtTjn/AFMcx8J3+zt8f2nYVeXNjgvcNPM7hFVIsLv6ty+8kU1OO3SVtp+M6PPyi+0+/k7CORkkbZI3texyao5q6ovib1nExMbw+g+gAAAAAAAAAAAAAAAAAAAAAAAAAAAAAAAAAAAAAAAAAAAAAAAAAAAAAAAAAAAAAAAAAAAAAAGiyvLrBjFN5683GKBypqyFPWlf3MTevfwNeTLTHHrSh6vX4NJXfLbb3eP5Iay7brcqlXwY1QMoYuCVFSiPlXtRvst8dSBk10zypDltX2myW3jBXaPOec/ZFl8vl4vc6zXe51Vc/l56RVanc3gnghDte1/andz2fU5s875bTPxa4waAAAAAAAABy0XegG5xzKchx6RH2e71VK1F1WNH9KNe9i6p8DZTLensylabW6jTTvivMft+SWMP27uRWU+UW1FTgtVRp8XRqvyXwJuLXeF4dJo+00+zqK/OPt9kxY7f7PkFElZZ7hBWQ81jdvb2OTii95OpkreN6y6fT6rDqa97FbeGzM0gAAAAADgc52rY1jLn0rJVudwbuWnpnIqMX8b+De7evYRsuqpj5dZU2u45ptL6sT3reUfWUbVG3zIHTKtPZLZHFrubI+R7tO9FT5ESddfwhQ27UZ9/VpG3zdJiG3W2Vk7KbIbettVy6ekRPWSJP4k9pqdu83Y9bWZ2tGyfpO02O893PXu+/rH3S/TTxVMDJ4JWSxSNRzHsdq1yLwVFTihNid+cOnraLRvWd4eh9fQAAAAAAAAAAAAAAAAAAAAAAAAAAAAAAAAAAAAAAAAAAAAAAAAAAAAAAMa5XCittDLXXCpipaaJNXyyuRrWp3ny1orG8teTLTFWb3naIQXtC221FQ6WgxFi08O9q10rfXd/A1fZTtXf2IV2bWzPKjkOIdo7W3ppuUef2Q3WVVTWVUlVV1EtRPIur5ZXq5zl7VUgTMzO8uXve17Ta07y8j4xAABdE4rp3gZFHQV1YulHRVVSvVFC5/yQyisz0hspivf2azPybinwfMahNYsYuzk61pnN+ehnGDJP9MpNeG6u3TFb8mQuzzONNf0XuX/LT/2ffw+X/iz/AMJ1v/VLFqcLy6mRVnxq7MROforl+SHycOSP6Za7cO1deuO35S01VS1NK7o1VNPTuTlLG5nzQ1zEx1RbUtT2o2eSb01Q+MQAAAzLPdLjZ65lda62ejqWcJIndFe5etOxTKtprO9ZbcObJgt38c7T7k4bO9tlPUrHb8uYymlXRra6Nukbl/G37Pem7uLHDrN+V3W8O7R1vtTU8p8/D5+SZ4Jop4WTQyMkje1HMexyK1yLzRU4oT4nd1VbRaN46PsPoBpMuyqyYtblrbxWNhRf2cSb5JV6mt4r8jXky1xxvaUTV67DpKd/LO37yrztC2tX3JFko7e59ptjt3m4n/Wyp+N6fJN3eVmbV2vyjlDieIcdz6retPVr+s/GUdERRgACavJqy6dlfJiNZKr4JGOloukuvm3JvcxOxU36daL1lhoss79yXV9m9faLzprzy6x9YT4WTsgAAAAAAAAAAAAAAAAAAAAAAAAAAAAAAAAAAAAAAAAAAAAAAAAAAAAAc1nuZ2fD7Z6XcZenM9FSnpo1Tzky9nUnWq7kNWXNXFG8oGv4jh0VO9eefhHjP9+aseeZreswr/P3KboUzF1gpI1XzcXh9p34l+BUZc1ss7y4DXcRza2++SeXhHhDmjSgADlryA6nEtn+VZN0ZLdbHspnf7TUfVxeCrvd4Ipux6fJk6QsNJwvVarnjry855QlXG9gtvhRsmQXeeqfzhpU82z+ZdXL8CbTQ1j2pdHpuy+OvPNff3RySDY8Aw6zoi0WP0XTT95LH51/vdqSaYMdekLrBwvSYPYxx8+f7uliijiYjImNY1OCNTRPgbtk+KxEbQ+g+midQADyqKeCojWOohjmYvFsjUcnuU+TESxtSto2tG7lb5s1wq79Jaiw00Mjv3lMiwuT+XRPeab6bHbrCuz8H0eb2scRPu5fsjvJdgjdHy47eXIvFIK1uqfzt/NCLfQ/8ZUmp7L+OC/yn7x9kU5Th+R4zIqXm1zQR66JO1OnE7uem736EPJhvj9qHOarQajSz/m129/h+bRGpDACb10Q+iyHk+45lVntL6i71ktPb52609tkTVzNftrr7Gv3U48V0LXR471je08vJ3XZ/SarBjm2Wdqz0r9fd8Eq67iY6NGG1Ha1QY55212XzVfdk9V666xU6/iVPad+FPEiZ9VFOVecue4px2mm3x4vWv8ApCu18u1yvdxkuF1rJaupk4vkXgnUicETsTcVdr2vO9pcRnz5M95vkneWEYNQAAAdVsgWVu02wLFr0vS0RdPu9F2vw1N+m/1YWPCN/wAbj281vE4F29MAAAAAAAAAAAAAAAAAAAAAAAAAAAAAAAAAAAAAAAAAAAAAAAAAAAADjtqGeW/C7V0no2ouU7V9Fpdfa/E7qanx4IaM+eMUe9V8T4pj0OPnztPSPrPuVayG83K/Xaa53WpdUVMq73LwanJrU5NTkhT3vN53s881GoyajJOTJO8y15g0gHQ4Vht+y2sWG00irE1dJamT1You93NexNVNuLDfLPqpui4fn1ltsUcvPwhP+B7Iscx9I6mvjS73Bu/zs7Pq2L+FnDxXVSzxaSlOc85dpoOA6fTetf1re/p8oSK1qNRERNETghKXmz9AAAAAAAAAAPieGKeF0M0bJI3po5j2oqOTqVF4iY3fLVi0bT0RXnmxay3VslXjzm2msXf5rRVp3r3cWd6buwhZdHW3OvKXO6/s7hzb2werb9P4QPkGM3yw3dtqudumiqpHdGJrW9JJt+idBU9rwK6+K1J2mHHajR59Pk9HkrtPh7/h5py2PbKYrM2G+ZHCya57nQUy72U3avW/4J37yx02linrX6uu4PwOMG2bPG9vCPL+f2SzNLFTwPmmkZHGxque97tEaicVVV4ITN9nSzMVjeZ5IB2s7X5q9ZrNikz4aTeyaubufL1pH91vbxXloVufVzPq0cXxXj85N8WmnaPGfP4e5DZAcuAAAAABMHk1YrPVX2TKamJW0tG10VMqp+0lcmjlTsamvivYT9Fi3t35dP2b0Vr5Z1Fo5Ryj4/wsMWbtgAAAAAAAAAAAAAAAAAAAAAAAAAAAAAAAAAAAAAAAAAAAAAAAAAABzO0fMKHDsffcKnSWofqylp9dFlf1diJxVeo05s0Yq7ygcR19NFhm9uvhHnKp2QXi4X671F1ulQ6eqndq5y8ETk1E5InBEKa95vMzLzfUajJqMk5Mk7zLAMGkAlbZPskqb8kV3yJJaS1ro6KD2ZahOv8ACzt4ry04k3T6Sb+tfo6PhXArajbLn5V8vGftCw9roKO2UMVDb6aKmpok6McUTei1qFpWsVjaHbYsVMVYpSNohkn1sAAAAAAAAAAAAAAeUtNBNJHJLDHI6J3SjVzUVWLppqnUunUfJiJYzStpiZjo87lXUdsoJq6vqI6emgar5JHro1qILWisbyxyZaYqTe87RCs21naZWZZO+3W5ZKWyMduYu59Rp9p/Z1N9+/hU6jUzknaOjguLcZvrJmlOVP3+P2R2RFGAAAAD2oaSqrquOkoqeWpqJV0jiiYrnOXsRD7ETM7QzpjtktFaxvMpjwHYfUzrHW5ZP6PFuclFA7V7ux703N7k39qE/Dopnnd1Gg7N2ttfUzt7o+s/ZOttoqW3UMNDQwR09NC1GRxxt0a1E5IWNYisbQ6/HjrirFKRtEMg+swAAAAAAAAAAAAAAAAAAAAAAAAAAAAAAAAAAAAAAAAAAAAAAAAADEvFxpLTbKm5V8zYaWmjWSV68kT8zG1orEzLVmy0w0nJedohUbaHldZl+RzXOp6TIU9SlgVdUij13J3rxVevuKTNlnJbeXmvENdfW5pyW6eEeUOdNSCATdsS2WJM2DJcmp9Y10ko6KRvtdUkidXU3xUsNLpd/Xu63gnBO9tn1EfCPrP0hO7URE4Fk7B+gAAAAAAAAAAAAAAAMS8XKhtFsnuNxqWU9LA3pSSPXcifmvZzMbWisby1Zs1MNJvedohVzartCrszuCwxdOms8LtYKfXe9fvv616k4J3lRn1E5Z9zz7inFb66+0cqR0j6z/fJw5GVAAAAAOz2c7Ob3mMyTRN9DtjXaPrJG7l60Yn2l+CdZIw6e2X4LXh3Cc2tneOVfP7eax+D4VYcSo/M2ukTzzk0lqZPWlk73ck7E0QtcWGuONodzoeHYNHXbHHPz8ZdJobU8AAAAAAAAAAAAAAAAAAAAAAAAAAAAAAAAAAAAAAAAAAAAAAAAAAAOQFfPKPzNa25JidBL+rUjkfWq1fbl5M7m8V7V7Cs1mbee5Diu0XEfSX/AA1J5R1+Pl8kOEBy4BLOwXZ4l7qm5JeYdbbTv/VonpuqJEXiqc2NX3r3KTdLp+/69ujpOA8J/EW9Plj1Y6e+ftCxqJoWruQAAAAAAAAAAAAAAABj3OupLbb56+unjp6aBivlkeuiNROZ8taKxvLDJkpipN7ztEKtbWdoFXmVz81AslPZ6d+tPAu5Xr/vH9vUnJO3Up9RqJyz7nnnFeK3119o5UjpH1n++ThiMqAAAAIiquiIqrwREAmjZRsefVpFeMtidHAujobeu5z+pZOpPw8evqLDT6Tf1r/k6rhXZ+b7ZdTHLwj7/ZPVPBDTwMggiZFFG1GsYxqNa1E4IiJwQsYjblDsa1isbVjaHofWQAAAAAAAAAAAAAAAAAAAAAAAAAAAAAAAAAAAAAAAAAAAAAAAAAAAAc5tHyWPFcQrbs7orM1vm6Zi/blduan5r2IpqzZPR0myDxHWRpNPbL4+Hx8FP6iaWoqJKieR0s0r1fI9y73OVdVVfEo5nfnLzG1ptM2t1l8Hx8dLs2xSoy/KYLXH0mUzfrKuVE/ZxIu/xXgnavYbsGKcttk/huhtrc8Y46eM+5bm20VNb6CGho4WQ08DEjjjam5rUTRELusRWNoel48dcdYpSNohkH1mAAAAAAAAAAAAAAAfFRNFTwPnnkbHFG1XPe5dEaicVVeSHyZ2fLWisTM9FYNsu0SXLLgtut0j47JTv9ROC1Dk/eO7OpPHiVGp1HpJ2jo8/wCMcWnWX7lJ9SP19/2R2RVGAAAHpSwTVVTHTU0T5ppXIyONjdXOcvBETmp9iJmdoZVrN5itY3mVitj+ymCwtivWQRx1F20R0UK+syl/zP7eCcustNPpYp61urt+EcDrp9sufnfwjy/lKk88NNA+aeRkUUbVc973IjWonFVVeCEzfaN3RWtFYmbTtDxtNworrbobjbqhlRSzt6UUrODk6xW0WjeGOLLTNSL0neJZR9bAAAAAAAAAAAAAAAAAAAAAAAAAAAAAAAAAAAAAAAAAAAAAAAAAAAAArn5S+RrX5NBj8D9YLczpyoi7lmen5N0/mUq9bk3t3Y8HDdpNX6TPGCOlf3n+ESkFzZy1AtPsMxJMaw6Kapi6NxuCJPUKqb2oqeozwT4qpc6XF6OnPrL0Tgeh/C6eJtHrW5z9Id+SVyAAAAAAAAAAAAAAAfmoFeNvO0VbtUS4xZZ9bfE7o1czF3TvRfYRfuIvvXsTfV6rUd71K9HEcd4t6aZ0+KfVjrPn7vh+6ISC5kAAAPahpamurIqOjgknqJnoyKNiaue5eCIh9iJmdoZ0pbJaK1jeZWZ2QbNKbE6VtyuTY6i9yt9Zyb206L9hnb1u58txb6bTRjjeerveEcHro6+kyc7z+nuj6y7u8XKhtFtmuNxqY6algb0pJHroiJ+a9nMkWtFY3lcZs1MNJvknaIVk2rbSq/L6h1FR+cpLKx3qQ66Om04Ok/JvBO1Spz6mcvKOjgeK8Yya2e5XlTy8/j9nd+TBkay0ddjFRJq6BfSabVfsOXR7U7l0X+0pI0OTeJot+zGr3rbT28OcfVNhYOsAAAAAAAAAAAAAAAAAAAAAAAAAAAAAAAAAAAAAAAAAAAAAAAAAAAGNda2G3Wypr6h3RhponSvX8LUVV+R8tMVjeWvLkjFSb26RG6lt4uE91u1Xc6lyrNVzOmfr1uVV08OBQWtNpmZeVZsts2S2S3WZ3Yhi1ux2N44mS55R000fTpKb9aqd25WsVNGr3u0T3kjTY+/kiPBacH0f4rVVrPSOc/L+VtU4F09JAAAAAAAAAAAAAAAAEP7fdoX0VTSYxZp9K+dn63Mxd8Ea/ZRfvOT3J3kHV6jux3K9XMce4t6GJ0+KfWnrPlH3lXkq3EgAAB6U0E1TUR09PE+aaVyMjjYmrnOXciInWfYjedoZVrN5itY3mVmtjeziDFKNLlc2Mmvc7NHO4pTNX7DV6+tfDhxttNp4xxvPV33B+ERo6+kyc7z+nuj6ykhNyEtequ7eMivlxzOss1w/V6O3y9Gnp2L6rkVNUkXrVUXw4FPqslrXms9Iefcd1efLqbYr8or0j6o7IqjdFs1vi49m9ruiu6MTJkjn7Y3+q74Lr4G3BfuXiU7hup/DammTw35/CVxGqipqi6oXr08AAAAAAAAAAAAAAAAAAAAAAAAAAAAAAAAAAAAAAAAAAAAAAAAAAARz5RF3W3bOKimY7SS4TMpk6+jvc74N08SLq793HMeaj7Q5/RaOax1tO33VfKd58AWJ8mGxpSYvWXyRn1tfP5uNVTf5uPd8XK73FpoabVm3m7fszpu5gtmnraf0j+Uuk50wAA/HOa1FVyoiJxVQ+b7PiKeGXXzUrJNOPRci/I+bvkWiekvRFPrIAAAAAAAAAcVtbziDDceWSJWSXSp1ZRxLv383qn3W/FdEI+ozRir71VxbiVdDh3j2p6R9fhCqdXUT1dVLVVUz5p5nq+SR66ue5V1VVKaZmZ3l5za9r2m1p3mXkfGIAA/WorlRERVVV0RETXUCx2w7ZslgpmX+9Qot3mZrDE5P9VYv+NU49XDrLXS6fuR3rdXdcD4R+Hr6bLHrz0jy/lK6bkJrowCAvKisiRXG2ZBEzRJ2LSzqifab6zFXwVyeBW66nOLOM7T6ba9M0ePKfl0QsV7lTTVNOsC4Gyy7re8As9wc7pSupkjl/jZ6rvi0vNPfv44l6bwvP6fSUv47ftydMblgAAAAAAAAAAAAAAAAAAAAAAAAAAAAAAAAAAAAAAAAAAAAAAAAAAQH5VFwV1ystqRd0cUlQ5O1yo1P7qlbrrc4q43tTl3vjx/GfohUr3KG/kmq8gLl4Fa22bDbTbETRaekja/+JU1d8VUvsVe5SIepaDD6DTUx+UQ3ZsSwDiNq2f0uFWxiMY2pulSi+jQKuiIicXv59FPiu7rI+fPGKPeqeK8Uroacudp6R9Z9ytWS5XkORVLp7vdaifVd0SPVsTexGJuQqb5b3ne0uC1Ou1GptvltM/t+TVUtTU0szZqWomgkauqPierFTxQwiZjoj1vak71naUvbKdsFdS1sNpyypWpo5FRjK1/7SFV4dNftN7eKdpO0+rmJ7t3TcK4/eloxamd4nx8Y+PnCwTHNc1HNVFRU1RU5lm7WJ3foAAAAAANdkt5obBZKq7XGXzdPTs6Tuty8mp1qq7kML3ilZtLRqdRTTYpy3nlComa5JXZVkNRd692jpF6MUSL6sUaeyxO74rqpSZMk5LTaXmmt1d9XmnLfx/SPJpTWiAAABOOwDZ10/M5be4N3tW+B6f8Adcn91PHqLHSaf+u3ydbwDhO+2pzR/wDMfX7J1RNCxdgAAOE28WtLlsyuSo3WSk6NUzd9xd/9KuI2qp3sU+5T8dw+l0V/dz/L+FVCmedAFivJduCz4hcLc5dVpKzpN7Gvai/NFLXQ23pMeTuOy+Xvae1PKf3S4TXSgAAAAAAAAAAAAAAAAAAAAAAAAAAAAAAAAAAAAAAAAAAAAAAAAAFXfKKqlqNp1VF0tUpqaGJOz1Vcv94p9ZO+WXn3aG/e1sx5REfVHZFUbaYjRfSOVWmg01SorYo1TsV6a/Azxx3rxCRpMfpc9Kecx+66SJoX71UAAVB2q3mW+Z/dqyR6ujjndTwpybHGqtRE9yr4lHnv38ky8y4pqJ1GrvafPaPhDlzSrwABPXk+bQfSY48RvE/18bdLfM9fban7pV605dabuRZaPPv6lvk7Ls/xXvRGmyzz8J+n2TYhYOrAAAAAVdEVQKxbdc6XJr59FW+ZVtNA9UarV3TypuV/aicE8V5lRqs/pLd2OkPP+OcT/F5fR0n1K/rPn9kbERRAAABJGxDAFym7fSdyiX6Go3p00XhUSJv6Cdifa93Ml6XB6Sd56QveCcL/ABeT0mSPUj9Z8vus7GxrGIxjUa1E0RETREQt3fxG0bQ/Q+gADCvtI2vsldQuRFbUU8kSp/E1U/MxtG9Zhqz4/SYrU84mFJlarFVjuLfVXvTcc+8n225AEyeSvVqzIL1Ra7paWOXTta9U/wARP0E+tMOo7LZNsuSnnET+UrBFm7UAAAAAAAAAAAAAAAAAAAAAAAAAAAAAAAAAAAAAAAAAAAAAAAAA5AVH2yyrNtQvzlXXo1KM/lY1Ck1M/wCbZ5pxi3e12T4/RyJoVrr9jEHn9qFiYqao2oV/8rHL+Rv00b5YWfBq97XY49/0W3TgXb0oAAUzzugltmaXmhmaqOjrZVTXm1zlc1fFFQoste7eYeW67FOLU5KT4TLSmpEAAH3BLLBMyaGR8csbkcx7F0VqouqKi9Z9iduj7W01neOq02xrPI8vsfmKtzWXikaiVLE3ecTgkiJ1Lz6l8C402f0tefV6Hwbica3Ftb246+/3u9JK5AAACKPKCzj6FtH6PW2bo3Guj+ue1d8MK6ovcruCdmq9RC1efuR3Y6y5zj/EvQY/QY59a3X3R/KuBVOFAAADoNn+LVuXZHDaqTVkft1M+mqQxou93fyROs24cU5bbQm8P0V9bmjHX5z5QtxYbVRWW0U1rt0KQ0tOxGRtT5r1qq71XrUu6VikbQ9KwYKYMcY6RtEM4ybgAAAKBSjI4Up8hudOiaJHWTNTwe4oLxtaYeUaivdzXr5TP7sAwaUm+TTMse0Z8acJaCVPcrVJmin/ADPkv+zVttZt5xP0WZTgWzvgAAAAAAAAAAAAAAAAAAAAAAAAAAAAAAAAAAAAAAAAAAAAAAAADkBUDav/APJWQ6/8c/8AIo8/+rZ5lxX/AHuX4uYNKvdxsH0/0q2fX/7f/E4k6T/Vhb8C/wB/T5/tK1ycC5ejAACHPKFwOS50y5VaolfV00fRrImpqssScHp2t+KdxB1eDvR346uX7QcMnLX8TjjnHX3x5/JXxCrcUAAAGyxi91+O3ymu9tl6FRA7XRfZe3m13WioZ47zS3ehv02pvpssZcc84W4wjJqDK8fgu9A7Rr06MsSr60UicWL3fFNFLvFkjJXvQ9L0Osx6zDGWn/5Pk3hsSwDTZpkNFjGOVV5rV1ZC31GIu+R6+yxO1V/M15MkY6zaUXWaumkw2y38P1nyVAv91rb3eaq7XCTzlTUyK968k6kTsRNyFJe83mbS8yz5758lsl55ywTBpAAHrR009ZVxUlLE+aeZ6RxxtTVXOVdERD7ETM7QypS17RWsbzK2WynDKfDsbZSqjH3Co0krJk+0/wC6n4W8E8V5l1p8MYq7eL0jhXDq6HD3f6p6z/fk683rMAAAAACmOcafppfOjw+kJ/8AyKUOX25+LyzW/wC5yfGf3ac1oqRvJy1/0n0+n/CT6+5CXov9Vednf99HwlaAt4eggAAAAAAAAAAAAAAAAAAAAAAAAAAAAAAAAAAAAAAAAAAAAAAAAHICo+2WFYdqF+aqe1Uo/wDmY1Sk1Mf5tnmnGK93XZPj9HImhWuv2MT+Y2oWJ6rojqhY/wCZjk/M36adssLPg1u7rsfx+i26cC7elAAAqIqaLwArTt12f/o5clvlqhX6Jq3+uxqbqaVeX8K8upd3UVOqwejnvV6OC45wr8Nf02OPUn9J+yLyG58AAAOv2VZrU4ZkCVCq+S21CoysgTm3k9E+834pqhv0+acVvcs+FcRtoc3e/pnrH1+MLYW6spq+hhraOZk9POxHxyMXVHNXgpdVmJjeHo+PJXJWL0neJe59ZqwbeMz/AEkyT6MoZela7c5WMVq7pZeDn9qJwTx6yo1Wbv22jpDz/jvEfxWb0dJ9Wv6z4z9kcERRAAABPHk54P5mFMvucP1kiK23scnst4LL3rwTs1XmWWjwbevPydj2d4b3Y/FZI5z7P3+ybiwdYAAAAAAUClGRzJUZFc6hF1SSsmcni9xQXne0vKNRbvZr285n92AYNKTfJphWTaM+ROEVBKvvVqEzRR/mfJf9mq76zfyifosynAtnfAAAAAAAAAAAAAAAAAAAAAAAAAAAAAAAAAAAAAAAAAAAAAAAAAAFXfKKpVp9p1VLpolTTQyp2+qrV/ulPrI2yy8+7Q07utmfOI+yOyKo20xGt+jsqtNfrolPWxSKvYj01+Bnjnu3iUjSZPRZ6X8pj910kXUv3qoAAAYt2t9JdLbUW6vgZPS1DFZLG7g5F/8A3E+WrFo2lry4qZaTS8bxKpe0vDqvDcifQy9KWjl1fRzqn7RnUv4k4L7+ZSZsM4rbPNuJcPvoc00npPSfd9/Ny5pV4AAASzsD2g/QtczG7vPpbal/6tK9d1PIq8Oxrl9y96k7SZ+7Pct0dJwHivoLegyz6s9PdP2lIu3nMv0bxhbfRS9G53Jro41Rd8UfB7+xeSdq9hK1WbuV2jrK847xD8Lg7lJ9a36R4yrCU7z8AAAOy2RYbJmGUMgmY5LbS6S1j03at13MRet3Du1JGnw+ltt4LThHD51ufafZjnP2+a2MEUcELIYmNZGxqNY1qaI1ETRETsLmI2ekVrFY2jo+z6+gAAAAAYV9q20Fkrq5yojaenklVV/C1V/IxtO1Zlqz39HitfyiZUmVyvVXu9p29e9Tn3k++/MAmTyV6RXZBeq3TdFSxxa9rnqv+En6CPWmXUdlse+XJfyiI/X+FgizdqAAAAAAAAAAAAAAAAAAAAAAAAAAAAAAAAAAAAAAAAAAAAAAAAAAQH5VFvVtyst1RN0kUlO5e1qo5PmpW66vOJcb2pxbXx5PjCFSvcob+S6LyUC5eBXRt5w203NHarUUkbn/AMSJo74opfYrd+kS9S0Gb0+mpk84huzYlgAABzu0DFKHLsdmtdWiMk9unnRNXQyJwcnZyVOaGrLijJXaULX6Gmswzjt8p8pVJv8Aaa6x3iptVyhWGqp39F7eS9TkXmipvRSlvSaTNZea58F9PknHkjaYYJg0gAABmXa63C7Txz3KrlqpYoWQMc9dVRjU0ahla826tuXPkzTE5J3nbZhmLUAAPWipp6yshpKWJ01RM9I4o2pvc5V0RD7ETM7QypS17RWsbzK3WzPE4MQxaC2s6L6l31tXKiftJVTf4JwTsQu8GKMVNnpfDNDXRYIxx18fi6c3LAAAAAAABwm3i6JbNmVyRHaSVfRpWf213/0o4jaq3dxSp+O5/RaK/v5fn/CqhTPOgCxXku29YMQuFxcmi1dZ0W9rWNRPmqlroa7UmXcdl8Xd09r+c/slwmulAAAAAAAAAAAAAAAAAAAAAAAAAAAAAAAAAAAAAAAAAAAAAAAAAAI58oi0LcdnFRUsbrJb5mVKdfR3td8Ha+BF1dO9jmfJR9ocHpdHNo61nf7qvlO8+ALE+TDfEq8XrLHI/wCtoJ/ORoq7/Nyb/g5He8tNDfes18nb9mdT38FsM9az+k/yl0nOmAAAABHW2zAGZXZ/pC3Rol5o2qsWm7z7OKxr280Xr7yLqcHpK7x1UfGuFxrMffpHrx+vu+yr72OY9zHtcxzVVHNcmioqcUVCoefzExO0vw+PgAAAAAACb/Jswzzkj8vuEXqt1ioGuTivB8n+FPEsdFh/rl1vZvh+8zqrx8PrP0TuhYuwAAAAAAAAIC8qK9pLcbZj8T9UgYtVOiL9p3qsRfBHL4lbrr84q4ztPqd70wR4c5+iFivcqa6Jr1AXA2WWhbJgFnt7m6Stpkkl/jf6zvi4vNPTuY4h6bwvB6DSUp47fvzdMblgAAAAAAAAAAAAAAAAAAAAAAAAAAAAAAAAAAAAAAAAAAAAAAAAAAY11oobjbKqgqG9KGpidFImnJyKi/M+WiLRtLXlxxlpNLdJjZS28W+e1XartlSipNSTOhf3tVU18ePiUFqzWZifB5VlxWw5LY7dYnZiGLW7HY3kaY1nlHUzSdCkqf1Wp37ka5dzl7naL7yRpsno8kT4LTg+r/C6qtp6Tyn5/wArapwLp6SAAAAAqAQV5Qmz7orLl9nh3cbjCxP+6if3vf1ldq9P/XX5uP7QcK66nFH/ANR9fv8Amg4rnJAAAAAAbzBMcqcpyeks1Pq1srulNIifs4k9p3u3J2qhtw45yWisJeh0ltXnrir49fh4rg2qhprbbqe30UTYqanjbHExE4NRNELutYrG0PTsWOuKkUpG0QyTJsAAAAAAAeVZUw0lJNVVEiRwwsWSR68GtRFVV9yHyZiI3lje8UrNrdIU1zK9y5FlFwvUuqelTK5jV+yxNzG+DUQosl+/abPLdZqZ1Oe2WfGf08GoNaM6LZtY1yHN7Xa1aronzJJP2Rs9Z3wTTxNuCnfvEJ3DdN+J1NMfhvz+ELiNRETRE0QvXp4AAAAAAAAAAAAAAAAAAAAAAAAAAAAAAAAAAAAAAAAAAAAAAAAAAAAVz8pfHFoMmgyCBmkFxZ0JVRNyTMT826fyqVetx923ejxcN2k0no88Z46W/eP4RKQXNnLQC0+wzLUyXDooamXpXG3okFQirvciJ6j/ABRPeilzpcvpKc+sPROB678Vp4i0+tXlP0l35JXIAAAAPmWNkkbo5GNexyK1zXJqiovFFQPkxExtKru2nAX4lefTaCNVs1Y9VhVN/mH8VjXs5p2buRT6nB6Od46PPuM8LnR5O/T2J6e6fL7I9IqkAAAABZjyfMQ+gsX+mKyLo3C6NR+ipvjh4sb4+0venUW+kw9ynenrLvez+g/D4PS2j1rft4fdJxLdAAAAAAAAARD5SWWNoLHHjFHL+tV6dOo0XeyBF4f2lTTuRSDrcu1e5Hi5ntHrvR4o09Z526/D+VdyrcQAT15MGOLFR12T1EfrTr6NS6p9hq6vcneuif2VLLQ4+U3dj2Y0m1bai3jyj6psLB1gAAAAAAAAAAAAAAAAAAAAAAAAAAAAAAAAAAAAAAAAAAAAAAAAAAAAc5tHxqPKsQrbS7opM5vnKZ6/Ylbvav5L2KpqzY/SUmqDxHRxq9PbF4+Hx8FP6iGWnqJKeeN0U0T1ZIxyb2uRdFRfFCjmNuUvMbVmszW3WHwfHx0uzbK6jEMpgukfSfTO+rq4kX9pEq7/ABTinanabsGWcVt0/huutos8ZI6eMe5bm21lNcKCGuo5mTU87Ekjkau5zVTcpd1mLRvD0vHkrkrF6TvEsg+swAAAAa/IrPQX6zVNquUKS01QzouTmnU5F5Ki70UxvSL1mstOo09NRjnHkjeJVHzzFq/EsimtVaivanr082miTRqu5ydvJU5KUmXFOO20vNNdor6PNOO/ynzhoTUhgADsdj2KLleZwU0zFdQUulRVryVqLuZ/aXd3akjTYvSX2notOD6H8ZqYrPsxzn7fNbRjUa3otRERNyIibkLp6THJ+gAAAAAAAarK77Q45Yaq73B/Rgp2a9FF9Z7uTU7VXcYZLxSs2lH1WpppcU5b9IVAye9VuQ36rvFwf0p6l/SVEXcxvBrU7ETRCjveb2m0vMdTqL6nLbLfrLWmDQz8dtNXfL5SWihb0qiqlSNvU3rcvYiar4GdKTe0Vhu0+C+oy1xU6yuRjtrpbLZKS00TejT0sTYmdunFV7VXVfEvaVitYiHqOnwVwYq46dIZ5k3AAAAAAAAAAAAAAAAAAAAAAAAAAAAAAAAAAAAAAAAAAAAAAAAAAAAA5AV88o/DForkmWUEX6tVuRlajU9iXk/udwXtTtKzWYdp78OK7RcO9Hf8TSOU9fj5/NDhAcuASzsF2hJZKpuN3mbS21D/ANWleu6nkVeCryY5fcvepN0uo7nqW6Ok4DxX8Pb0GWfVnp7p+0rGoupau5AAAAAA5PadhlJmWPPopFbFWxavo6hU/Zv6l/CvBU8eRpzYYy128VbxPh1Ndh7k8rR0lVS/We5WK6S2260klLVRrvY5Nzk62rwVF60Ka9JpO1nnWfT5NPeceSNphgGDSyrTbq663CK326llqqqVdGRRpqq/+k7V3GVazadobMWG+a8UpG8ytTsjwtmG436PK5klwqXJLVyN4dLTcxOxqe9VVS50+H0VdvF6Lwnh0aHD3Z9qec/b5OzN60AAAAAAAedTNFTU8k88jIoo2q573rojWpvVVXqPkztzlja0VibWnlCrW2TPZMwvKU9G5zbPSOVKdvDzruCyqnbyTknepT6nP6Wdo6PPeMcUnW5O7X2I6e/3uCIymALBeTfhq0Nvfldwi0qKxnQo2uTeyHm/vdp7k7Sz0WHaO/LtOznD/R0/E3jnPT4efz/ZMhPdSAAAAAAAAAAAAAAAAAAAAAAAAAAAAAAAAAAAAAAAAAAAAAAAAAAAAAABiXi3Ul2tlTba+Fs1LUxrHKxeaL+ZjasWiYlqzYqZqTjvG8SqNtDxSsxDI5rZU9KSFfXpZ1TRJY9dy96cFTrKTNinFbaXmvENDfRZpx26eE+cOdNSCATdsS2ppC2DGsmqNI00jo62R3s8kjkXq6neClhpdVt6l3W8E433dtPqJ+E/SfpKd2qipxLJ2D9AAAAADWX+wWa/Uno14ttNWxJ7KSs1VvcvFPAwvjreNrQj59Lh1Fe7lrEuOdsZwRZ/OJb6pG669BKuTo/PU0fg8XkrP/HtDvv3Z/OXW43jVix2BYbNa6aja72nMb6zu9y718VN1MVKR6sLLTaPBpo2xViG3NiSAAAAAAA+J5oaeB888rIoo2q573ro1qJxVV5IfJnbnLG1orEzM8oVu20bTX5JI+yWSRzLMx31sqblqnJ8mJyTnxUqtTqe/wCrXo4XjPGZ1Uzhxex+/wDCLSG54A7nY5g0mYZAj6ljktFG5HVT/wDeLxSNO1efUnehJ02D0tufSFvwfhs63Nvb2I6/ZaqGNkUTIo2NYxjUa1rU0RqJwRC5jk9FiIiNofYfQAAAAAAAAAAAAAAAAAAAAAAAAAAAAAAAAAAAAAAAAAAAAAAAAAAAAAAAHM7R8Pocxx99vqdIqhmr6Wo01WJ/X2ovBU6jTmwxlrtKBxHh9NbhmluvhPlKp2QWe4WG71FqulO6Cqgdo5q8FTk5F5ovFFKa9JpMxLzfUafJp8k48kbTDAMGkAlbZPtbqbCkVoyJ0tXa00bFP7UtOnV+JnZxTlrwJun1U09W/R0fCuO20+2LPzr5+MfeFh7XX0dzoYq631MVTTSp0o5YndJrkLStotG8O2xZaZaxek7xLJPrYAAAAAAAAAAAAAA1mR321Y9bJLjd6yOlp2cFcu9y9TU4uXsQwvetI3tKPqNVi01JvlnaFbNqe0245fI+hpEfRWZrvVg19ebTg6RU/u8E7Sqz6mcnKOUOE4pxnJrZ7leVPLz+P2R+RVKAb7BcWuWW36O129mibnTzqmrYWc3L+Sc1NuLFOS20Jmh0WTWZYx0+c+ULZ4nYbfjdjp7RbYuhBC3eq+09y8XOXmqqXWPHGOvdh6TpNLj0uKMWOOUf3u2pmkAAAAAAAAAAAAAAAAAAAAAAAAAAAAAAAAAAAAAAAAAAAAAAAAAAAAAAAAAADjtqGBW/NLV0Xq2nuUDV9FqtPZ/C7ravw4p26M+CMse9V8T4Xj12PaeVo6T9J9yrWQ2a5WG7TWy60zqepiXe1eDk5OavNq8lKe9JpO1nnmo0+TT5Jx5I2mGvMGkA6HCsyv2JVizWmrVInLrLTSetFL3t5L2poptxZr4p9VN0XEM+jtvinl5eEp/wPa7jmQJHTV8iWi4O3eanf9W9fwv4eC6KWeLV0vynlLtNBx7T6n1b+rb39PlKRWuRyIqLqi8F6yUvN36AAAAAAAAAAfE00UETpppGRxsTVz3uRGtTrVV4HyZ2fLWisbz0RXnm2my2pslJjzW3asTd53VUp2L38X9ybu0h5dZWvKvOXO67tFhw71wetb9P5+SBcnyK8ZJcVr7zWyVMvBiLuZGnU1vBqFbfJa872lx2p1ebVX7+W28/30aowRgDe4Rit2y28Nt1ri3Jos07k+rhb95y/JOKm3FitknaqZotDl1mT0eOPjPhC1OCYpbMRsjbbbWaqvrTzuT15n/ed+SckLnFirjrtD0TQaHFo8Xcx/OfGXQGxNAAAAAAAAAAAAAAAAAAAAAAAAAAAAAAAAAAAAAAAAAAAAAAAAAAAAAAAAAAAABzWe4ZZ8wtnolxi6EzEX0epjRPOQr2dadaLuU1ZcNcsbSga/h2HW07t45+E+Mf35Kx55hV6w+v8xcoenTPXSCrjRfNy/5XfhX4lRlw2xTtLgNdw7Nor7ZI5eE+EuaNKAAOWnIDqcS2gZVjPRjt1ze+mb/s1R9ZF4Iu9vgqG7HnyY+krDScU1Wk5Y7cvKecJVxvb1b5kbHkFonpX85qVfOM/lXRyfEm011Z9qHR6btRjtyzU298c0g2PP8ADrwiJRZBRK9f3cr/ADT/AHO0JNM+O3SV1g4ppM/sZI+fL93SxSxysR8T2vavBWrqnwN26fFomN4fQfTVOsAB5VFRBTxrJUTRwsTi6RyNT3qfJmIY2vWsb2nZyt82lYVaOk2ov1NNI393TKszl/l1Q021OOvWVdn4xo8PtXiZ93P9kd5Lt7bo+LHbM5V4JPWu0TwY1fmpFvrv+MKTU9qPDBT5z9o+6KcpzDI8mkVbzdJp49dUgavQib3MTd79SHky3ye1LnNVr9Rqp/zbb+7w/JojUhgADttmuzi8ZjUNnRrqK0td9ZVvb7XWkafaXt4J8CRg09svwW3DeEZtbPe6U8/t5rNYpjtqxq0R220UqQQt3uVd75Hc3OXmpb48dccbVd9pNJi0uP0eKNo/vq2xmkgAAAAAAAAAAAAAAAAAAAAAAAAAAAAAAAAAAAAAAAAAAAAAAAAAAAAAAAAAAAAAAMa5W+iuVDLQ3CmiqqaVOi+KVqOa5O4+WrFo2lryYqZazS8bxKC9oWxKop3S1+IvWoh3uWhld67f4HL7Sdi7+1SuzaKY50chxDs5au99Nzjy+yG6ylqaOqkpaunlp5410fFKxWuavaikCYmJ2ly96Wpaa2jaYeR8YgAAui8U17wMijr66jXWjraqmXrimcz5KZRaY6S2Uy3p7Npj5txT5xmNOmkWT3ZqdS1LnfPUzjPkj+qUmvEtXXplt+bIXaHnCpp+lFy/5if+j7+Iy/8AJn/iut/7ZYtTmeW1KKk+S3d6Ly9KcnyU+TmyT/VLXbiOrt1yW/OWmqqqpqndKqqZ6hy85ZHP+amuZmeqLa9r+1O7yTcmiHxiAAAGZZ7XcbxXMobXRT1lS/hHEzVe9epO1TKtJtO0Q24cOTPbuY43lOGzvYnT0yx3DLnsqZU0c2hjdrG3+N32u5N3eWOHRxHO7reHdnK12vqec+Xh8/P9kz08MVPCyGCNkcbGo1jGNRGtROSInBCfEbdHVVrFY2jo+w+gAAAAAAAAAAAAAAAAAAAAAAAAAAAAAAAAAAAAAAAAAAAAAAAAAAAAAAAAAAAAAAAAABosrxGwZPTeZvNuinciaMmT1ZWdz03p3cDXkxUyR60Ier0GDV12y139/j+aGcu2FXKmV8+NV7K6LilPUqjJU7Ed7LvHQgZNDMc6S5bV9mcleeC28eU8p+yLb5Y7xZJ1hu9tqqF/Lz0ao1e53BfBSHalqe1Gzns+mzYJ2y1mPi1xg0AAAAAAAADgmq8ANzjmK5DkMiMs9pqqpqrosiM6Mad710T4mymK9/ZhK02i1GpnbFSZ/b80sYfsIcqsqMouSInFaWjX4OkVPkniTcWh8by6TR9mJ9rUW+Uff7Jix2wWfH6JKOz2+Cjh5pG3e7tcvFy95OpjrSNqw6fT6XDpq93FXaGzM0gAAAAAAAAAAAAAAAAAAAAAAAAAAAAAAAAAAAAAAAAAAAAAAAAAAAAAAAAAAAAAAAAAAAAAAA8qmngqYHQVMEU0TvaZIxHNXwU+TETyljalbRtaN4cVfdk2EXVXP+ifQZXL7dG9Yv6fZ+BHtpcVvBU5+BaLNz7m0+7l/DirrsAgVXOtWRSs6mVNOjv6mqnyNFtBHhKqy9lq/wDryfnH2c1XbC8vgVfRqq1VactJXMX4tNM6HJHRAv2Z1dfZmJaqbY9n0fC0QydrKuNfmpj+Ey+SPPANdH9H6w8U2T59rp9AO/6iL/MY/hcvkw/wPX/9f6x92RBscz6XjaqeJOt9Wz8lUyjR5fJnXs/rp/pj84be37CMqm31dfaqVOej3yL8GonxM40OSespWPszqre1aI/OXT2jYDbo1a663+qqOtlPC2NPeuqm6ugj+qVhi7LY4/1Mkz8I2+7t8f2Y4VZnNkgskNRM3hLVKszv6tye4kU02OvSFtp+DaPBzim8+/m7CONkcbY42NYxqaI1qaIngb1nEREbQ+g+gAAAAAAAAAAAAAAAAAAAAAAAAAAAAAAAAAAAAAAAAAAAAAAAAAAAAAAAAAAAAAAAAAAAAAAAAAAAAAAAAAAAAAAAAAAAAAAAAAAAAAAAAAAAAAAAAAAAAAAAAAAAAAAAAAAAAAAAAAAAAAAAAAAAAAAAAAAAAAAAAAAAAAAAAAAAAAAAAAAAAAAAAAAAAAAAAAAAAAAAAAAAAAAAAAAAAAAAAAAAAAAAAAAAAAAAAAAAAAAAAAAAAAAAAAAAAAAAAAAAAAAAAAAAAAAAAAAAAAAAAAAAAAAAAAAAAAAAAAAAAAAAAAAAAAAAAAAAAAAAAAAAAAAAAAAAAAAAAAAAAAAAAAAAAAAAAAAAAAAAAAAAAAAAAAAAAAAAAAAAAAAAAAAAAAAAAAAAAAAAAAAAAAAAAAAAAAAAAAAAAAAAAAAAAAAAAAAAAAAAAAAAAAAAAAAAAAAAAAAAAAAAAAAAAAAAAAAAAAAAAAAAAAAAAAAAAAAAAAAAAAAAAAAAAAAAAAAAAAAAAAAAAAAAAAAAAAAAAAAAAAAAAAAAAAAAAAAAAAAAAAAAAAAAAAAAAAAAAAAAAAAAAAAAAAAAAAAAAAAAAAAAAAAAAAAAAAAAAAAAAAAAAAAAAAAAAAAAAAAAAAAAAAAAAAf/2Q==;" parent="1" vertex="1">
          <mxGeometry x="600" y="441.88" width="93.75" height="56.25" as="geometry" />
        </mxCell>
        <mxCell id="W9ZGSTiHX9Q-Fq2A5ZPQ-12" value="" style="shape=image;aspect=fixed;image=data:image/png,iVBORw0KGgoAAAANSUhEUgAAAgAAAAIACAYAAAD0eNT6AAAABHNCSVQICAgIfAhkiAAAAAlwSFlzAAAOxAAADsQBlSsOGwAAABl0RVh0U29mdHdhcmUAd3d3Lmlua3NjYXBlLm9yZ5vuPBoAACAASURBVHic7N15YFxV/f7x95nJ1rRN6UqbFgq0LLK2SdqyyyKLyKJAWWTRr0gRhJ8g0AVUIiqrKAgii0BbFBcEFLGggIKAglD2bixtKW2Spk23LJNt7vn9kQ6kJWlmkpk59955Xv9Im2Tux1Lmeebce881iIiI+Iw9rLKI+sbRWEox0ZEYOwTLYCyDMQyGzf9r2Q6IAiWbf3Tw5v8t2fz7ncWA5k6/rgdagY1ADEszhg1AA7AWa2rBWwtmLVHqMJG1NLetMm//tDFT/7+zybgeQEREco+dcOl2RIrGAePBjgPGEbGlWMaAGQUMdTzitqwDPsawAliBNR+D/RhjP8CaJWb+jRtdD5gMFQAREckYO2X6GNoiexOx+wL7YNkVGI+/A76vaoDFWJZgeA/DIqL2HfPKTStdD9aZCoCIiPSZpTLCpNjnsGYKHhOBfTB2Xz5dkhdYA7wJ9nWMeRPsG7xW/L6h0nMxjAqAiIikzE6cXkqEyRCZDHZ/oAIY6HquAGoA/gfmJSz/wdj/ZusUggqAiIj0yE6cXorhcAyHgTmMjmV8ST8PWAD2Jax5CRN91sy/rjoTB1IBEBGRz7AHXDaElsKjwB6O4XBgN9cz5S77LsY8A5GnaW17Pl13IagAiIgIAHbSlRPwzBfBHAccwGdvoxP3WoH/gP0HEfO4efXGBb19IRUAEZEcZcdfUkhJ0VEYcxKYLwKjXc8kKfsQ7J+x9i+MW/4f8/DD8WR/UAVARCSH2MMqi2iIHQOciuUEYJDrmSRt1mD5a41tumXUG7cv7Omb87IxkYiIuNPxSb//cRhvKvWx49HV+mE1fK0XK69q2Xg5cF5P36wVABGRkLJlM8sxnAv2TGC463kks2rbGld93FY/Gkvt0sVNpaex7dMBWgEQEQkRu9/Vo8lrPxXMN8Du63oeyY6atob6VW0NHddwGEbssle/A1jAi9v6GRUAEZGAs1OnRlm2y/FYLoT2o4AIWNdjSZZUtze2V7U1bHlaJ25OAhUAEZFQslOu2p527+sstd8CdnI9j2RfVVsD1W0Nn81yw5eBK7f1s7oGQEQkYGzZlYcQMd/Gmq8ABa7nETc2h3+3X49EInuVLXig27sBtAIgIhIAlsoIZbEvEbGzsOYArfDntp7CH8Dz4icAKgAiIkFk96ocQGHzVzGxy4HdsFq4zXXJhD8AlqOBG7v7sv4miYj4kC2/fBgm77KOC/v0SF3pkHT4d2jNz/eG7Pf2g10+O0ArACIiPmInzxqKZy/B2kux2qVPPpVi+AMUtLdyMPD3rr6oAiAi4gMdn/jzLybuXYq255Wt9CL8AbCRyFGoAIiI+E/HY3cLZgAXYe0A1/OI//Q2/AGwHNXdl3QNgIiIA3avygKKYhcClcB2jscRn+pT+HewEB9dseg31Vt/QSsAIiJZZKmMUN58CsRuBHZ2PY/4VxrCH8BYGz0M+N3WX4j09ZVFRCQ5tmLGFymPvQn2jyj8ZRvSFP4AGGMO7ur3tQIgIpJhtmzmeIy9FcuXXM8i/pfO8O9gD+zqd3UNgIhIhtjyymJM83SsnQEUuZ5H/C/94Q9AnJbCoRVL79nY+Td1CkBEJANs2YwToHkh1l6Dwl+SkKHwB4jawtbJW/+mTgGIiKSRnTxrN+LeXcDheiSvJCuD4d/BcBDwdOffUgEQEUkDe1hlHvWxbxP3fgL0dz2PBEfGwx8w9rPXAagAiIj0kZ105QTqY78Gyl3PIsGSjfDfbLIFYzotS+kiQBGRXrIHXNaP1vxrwFwBRF3PI8GSxfAHwETiu5Yv+M0HiV9rBUBEpBds+YyDaWUOsIvrWSR4sh3+ANbmTQRUAEREesOWT8vHDLkaa7+HPvVLL7gI/w52IvBw4lcqACIiSbITZ+0J3oNYW+Z6Fgkmd+EP1mNi519rHwARkR5YMLZs5jQi3quAwl96xWX4A5it/u7qIkARkW2wU67anrb4bzB8wfUsElyuw/9T8dLEkwG1AiAi0g076crP0x5/XeEvfeGf8Adjzb6Jf1YBEBHZigVjy2d8By/yDFDqeh4JLj+FP4CNRHZP/LMuAhQR6cROnDWcaHwulmNdzyLB5rfwB8AaFQARka3ZilkHYb2HsWaU61kk2HwZ/oDFflIAdApARASwZTPOx3r/BBT+0id+DX8AY/mkAOguABHJaR0P8Wn6MZgZrmeR4PNz+G9m+0WaSvZa8HCDVgBEJGfZybOGUh/7u8Jf0iEA4Q9gmmy/XUGnAEQkR9lJV04gbucDR7ieRYIvIOEPgCEyHlQARCQH2fKZR+NFngc71vUsEnxBCn8APLsjqACISI6xFTO/AfYJoMT1LBJ8gQt/AGN2ABUAEckRFoytmFmJtfcB+a7nkeALZPgD0LECoH0ARCT07PhLChlUfD/WftX1LBIOwQ1/AFQARCT8bPmMQRgex3Ko61kkHAIe/mDZAbQPgIiEmD3gsiG0FswDprieRcIh8OHfwbbWN/VXARCRULLlV42C+N+BfVzPIuEQkvAHIO55u+gUgIiEjp0wcyeIPwOMcz2LhEOYwh8gkmeGqwCISKjYsumfw9ingdGuZ5FwCFv4A+BFhuk2QBEJDTvpygkY8wIKf0mTUIY/AFYFQETCwZZdsS9e5GlgqOtZJBzCG/5gLDoFICLBZ8tn7QHe34FhrmeRcAhz+AMQYahWAEQk0GzF9N3B+ycw0vUsEg6hD38Ay3AVABEJLDt51m5Y8y9glOtZJBxyIvw7DFIBEJFAspNm7kLcU/hL2uRQ+AO2vwqAiASOnThrOJ6dB5S6nkXCIbfCHwwRFQARCRY7pbKEiPcUsLvrWSQcci38ATytAIhIkNi9Kgtoj/0JKHM9i4RDLoY/gAEVABEJBjt1apSi2G+Bo1zPIuGQq+HfwRarAIhIMOz+lRuBU12PIeGQ2+EPYPprIyAR8T3b2HgVcCnRyDqeeGOI63kk2BT+ABREXU8gIrIttqlpKnAnEOXA3Qqp2ggfrtajzKVXFP6faFUBEBHfsrHYwVj7GJAPgDGGg3eHlesMS2vdDieBo/DfQpsKgIj4ko3FdsbzngYGbfEFYwyH7A5VG+DD1W6Gk8BR+H9GuwqAiPiOrasrIRp9Bti5y28wBg7eTSVAkqLw75IKgIj4i7U2irV/Ag7e5jeqBEgSFP7dius2QBHxl6amXwBfSup7IxG46kQ4et/MziSBpPDfJqMVABHxDdvU9B3g+yn9kFYCpAsK/x61qACIiC/YhoZjgdlA6iuTKgHSicI/KfUqACLinK2v35NI5EmguNcvohIgKPxTsF4FQEScsps2DSMafRYY1ecXUwnIaQr/FBjWqgCIiDPW2iLi8aeA9F3FpxKQkxT+KatWARARJ6y1hlhsNnBc2l9cJSCnKPx75WM9DEhE3GhqugY4K2Ovn7hFEOAfb2fsMOKWwr93rO4CEBEXNj/g5w4gsw/10UpAqCn8+8CyQAVARLLKNjZWAH8BCrJyQJWAUFL4942J2P+pAIhI1thYbCzW/gsYnNUDqwSEisK/7yzm3yoAIpIVds2ageTlPQ2MczKASkAoKPzTw8A/dBGgiGSctTZCU9NvSeftfr0RogsDm7DU4tGIpRFoxtKEpYmO3ZQGYOiHoQgoIcL2RLJ0ziVzFP5pZO16FQARybzGxp9jzAmuxwACVwIascynnfeIs5w4K/BYjscavJReJwKMIsKORNmJCGOJsDd57ENeIIqBwj+9TMSsz+wVuCKS82xj43nAr13P8RmeB9c97rsSUI/lVdp5lTZeo51FxIln8HiFGPYhymTyqSBKGXkUZvjmjFQp/DPBfMVf/5ZFJFRsQ8NRGDMP8Odqo09KQAuW/9DOU7TyD9poxjqbpQjDYeRzIgUcQr7zf3EK/wwx3v4qACKSEXbTpj2IRv8LbOd6lm1yWAJepp3HaOFZ2mh0GPrdGYrhWAo4lUL2IPvXjCv8M8eLRnZUARCRtLObNg0lGn0ZGO96lqRksQR4wPO0cRfNvE17xo+XLmXk8U2KOJz8rBxP4Z9RHsWFRSoAIpJW1tp8YrG/Y+3hrmdJSYZLQDPwGC3MppkVKV7A5yd7E+U8ijiaAiIZOobCP+NWVyyaM9L16R0RCZumpjuBYIU/ZPTugH/RxnU0sTLAwZ/wLnEuo5E9aeZqiilL81UCCv+sWAVkrMCJSA6yjY1XA990PUevJUrA0enZruAjPC6ggYtoCEX4d7aQOGdTz2U0UpOm/28K/6ypAhUAEUkT29R0MnCt6zn6LA0loBm4mRjHs5F/05a+2XzGAk/RyglsYg7NfaoBCv/ssUYFQETSxDY2lmHtXMLyntKHErCUOGeyiftpDtAlfn3TgOUGYnyDemp7UQMU/llm+RDC8h+riDhjGxtL6Xi6X3/Xs6RVL0rAX2jlVOpZnNGte/zrFdr5CvUprXoo/LMvYs0HoAIgIn1grS0G/gyMcT1LRiRZAhqwXE4jM2kk5sP7+bNpHR7fooGfEutxBUTh74j1VABEpPc2P+DnIWCS61kyqocSsAaPc6hnHq1ZHsy/LHAfzZxPfbcbHCn8nbF5hVanAESkD2KxG4GTXI+RFd2UgBV4nJ3DS/49eZl2vk49dVuVAIW/U9X7vf1gI6gAiEgv2IaG/8PaK1zPkVVblYB3aOdM6gO9qU82vLv5osgVm0uSwt8tCx8k/lkFQERSYmOxQzDmLtdzOLG5BLxUvgNfo4F1Cv+kfIzH2TTwXPN6hb9jBt5P/LMKgIgkzTY374LnPQqBeIR8Rry9ZCWXLFic8xf7pWrNhnWcV/0hNfFcuTnSr+w7iX9SARCRpNiNG4fQ3v4kMMz1LK58uHw10664m1izLvhLRcO6OmrqalnnxZmxbjXr47pmwhmPT/a5VgEQkR5Za/PJz/8jxuzmehZXVq/ZyLTp97Cxvsn1KIHSsK6OhvV1n/x6VXs739uwhpjVCooLkXj03U/+2eUgIhIQTU23Y+2RrsdwZVN9jG9efhdVNetcjxIoDeu3DP+EJa0tXLt+De0qAdlWU/bBA2sSv1ABEJFtsg0NVwIXuJ7DFWstV13/EB8sr3E9SqA0rKujYd1nwz/h1ZYYs+s3ZnEiAd7p/AsVABHplm1sPA5jrnc9h0sPPvxvnn3x3Z6/UT6x9bJ/d/7YuJHXWpqzMJEAYIwKgIj0zDY0TAD+AERdz+LKkg+r+Nk9f3M9RqAkG/4AHnDjxjWs83RRYDZYy5udf60CICKfYRsbR2HM48AA17O40tTUwmU/mE1La3gf55tuqYR/wvq4x3Xr12pHhSzIg5c7/1oFQES2YK3tBzwG7OB6Fpdu+OVfWPbxmp6/UYDuL/hLxputzfy5sT7NE8lW1k1YNPuDzr+hAiAin7DWGhob7wemuJ7FpQVLPuaRv73c8zcK0PMFf8mYXb9epwIyyZhXDVvuXqUCICKfamr6Ccac4XoMlzzP8qNbH8XzdItaMnqz7N+VJmu5v35DGiaSrtlXtv4dFQARAcA2NJwLzHI9h2uPPfU/3lqw3PUYgZCu8E/4e1MDi9pa0vZ68ilrjQqAiHyWjcUOxph7XM/hWkNTC7fdO8/1GIGQ7vCHjvXpX2xch6fnLKSbjbaZV7f+zTwXk4iIf9hYbGc87xGg0PUsrs3+w79YU7fJ9RgpGTigHzuUDmPo4BIKCgro37+QxsZmYi2t1K7ZyKqaNcRi6X12QSbCP+H9tlZejMU4tF9xRl4/Ry3uvANgggqASA6zdXUleN7jwAjXs7jW3NzK7x57yfUYPRo+dBCH7r83E/YZx3577syQwQN7/JmqmnW8vXAZr7/zAS+8/C71DbFeHz+T4Z/wh8aNKgDp9VxXv6kCIOJDlsoI5bExGDsSzFA8OwRjhmDMUKwdgrGFWBMD++k2ajbSjrGrsWYl1tSQF1lJU/5qs6Cyy49/1tooTU0PAXtn6/+Xn/3pb6+wboM/n1UfjUQ47KB9+fIXD2C/vXYhEjEp/XzpyCGUjhzCsUeU03bRKbz8+hL+9NcXmf/W+z3/cCfZCH+AJW2tvNnazISCoowfKxcY03UBSO1vkYiklT3gsn60FZXheXsSsbtiza5gx4MZD6Tr3W8FMB/LaxjzGgUtr5n//nydbWz8JXBRmo4RaHHP47izrmfFqrWuR9mCMYYvHlnB108/itKRQ9L++ks+WMk9Dz7JK68v6fF7sxX+CZMKi7h+yPZZO16I2fZo/qj93/316q2/oAIgkiWWyghlTbtjmAxmCh332u+Li5W4C496izMP2C/rx/Wpec++zuU/fND1GFsYv/NorrzoZPbaY2zGj/XCy+/y87v/TO3arm/Da1jf9/v8U2WAu4aNYlx+QVaPG0ILKxbN2aurL+gUgEgG2SlXbU+7dyjG+wI2dgKYUa5nYso4OH3/fVyP4ScP/9U/m/4YY5h6wsFc+PUvkZ+fnbfoQ/bfm4n7jOfmX/6JZ1/YYrv4rH/yT7DAvKYGLhmU/pWP3GKe6+4rKgAiaWQPq8yjsfkwPPtF4Bja4x3N2/pksW2nYVB5KkSMbgHebE3dJl5980PXYwCQn5/H9y47gyMPmZD1Yw/oX8QPp5/NuJ1Gce9vnsJa6yz8E55vbuKikiFEffKfTxDZiPev7r6mAiDSR3bq1ChLdzkAzFTqY6cD/jxxOagYrj8D+uf83X5bmPfs68Q994+i6V9cyHVXfZ3y/XZ1Ose5px3JsKEl/ODau5yGP8AGL84brc1UFOpiwF5qz8uPPNPdF1UARHqh43x+82FEvNNZak4GhuHnzUsK8jrCf7SWU7f2t2fecD0C+Xl5/OSqrzkP/4S999iFi86fyvXX/wpr3f69/lesUQWg916c+ObsbvdXVgEQSYHd7+rR5MXPhtj5wDjfLO1vizEw4wTYe4zrSXxnxco1vLN4hdMZIhFD5ZVnUbHfbk7nSNjY0IrJK+Soow6mtraOX//6D07nebG5ie/YIRSYAPy35jMGs81tLVUARHpgx19SyKD+JwLnQvuxBO2/m68fCkfpmr+u/PuVxa5H4JxTj+TzB/rj38+mxlY2NX66bcRZZ53E4sUf8uKLrzmbqdF6LGxr0Z4AvWAi5m/b+nqw3shEssjud/Vo8tsvwjIN7DDX8/TK4Xt2FADp0mtvub34b+89xvKNrx7tdIaEjQ1bhn/ClVdewHvvLaO21t31AG+3aFOgXlhRtuCBhdv6Bl0JLLIVWzaz3JbNnEte+zIsVwHBDP89SmHWSR2nAOQzrLW89tZSZ8ePRiNc+e1TiUbdvw1v/cm/s5KS/lx88blZnmhLb7fqCYGpM0/09B1aARBh8+17Dc1TsfZSsJNdz9NnI7eDG8+EonzXk/jW0hW11K2vd3b8U48/mHE7ud8WortP/p0dcsgkJk3ah1dffSdLU21pYWsLrdbqOoAUGBt/vKfvcV89RRyye1UW2IoZ51IfW4C1DwHBD/9+BXD96TC4v+tJfM3l8n9hYT7nnHaks+MnbOuT/9a+8Y3TMjxN91qxvN+e3icahtz6omhzt/f/J2gFQHKS3feK/uRHvwmxK7CE5/L4SAR+cDKM8+dWBH6y8L2Vzo59wlGT2a7EbUHb1NjKxobkQ3WPPcYxceJevPHGggxO1b0lra3sla89LJL06F4LHu7xX64KgOQUe9D0gTSb7wDfIajn9rfl4qPgIH/cTuZ3y1fUOjv2yccf7OzYkNyyf1e+8pWjnRWAVe1tTo4bRNbYR5L5PhUAyQl2r8oCCpu/TrP9ITDS9TwZ8aWJcOoU11MExkeOnvy3x65j2HH0cCfHhtSW/bc2ZcpEBgwopqGhKc1T9awqrgKQpA3FJvZsMt+oawAk1Gz5tHxbNnMaRbGlGHs3YQ3/SbvAFV9yPUVgNDe3Urt2k5NjH36Qu4cwbmxIbdl/awUFeRxwQHkaJ0reyvZ2J8cNHMOfk1n+BxUACSlLZcSWTT8LBi/eHPyjXc+UMTsOhR+eCj64nSwoPlq11tkWtxP3Ge/kuH355N/ZxIl7pmGa1K2Ot9Pm4922/cJ4yS3/g04BSAjZsun7Q+wWjDnQ9SwZV9IPbjgTBmiTlFRUr17v5LhFRQXsPi77XbS35/y7st9+e6TldVLlAXVeOyOjiq1uWWpt/6K/J/vt+pOU0LATrtyVaOQnwFTXs2RFXhR+fBqM0QN+UtXQ5GZjmZ12GJH1jX/S9ck/YdSoERQVFdLcnP0/wybHDybyO2t4aNL8e5K+WEIFQALPTp41lLh3DfAtIHd2vpl5AkwY63qKQGpyVADGjMrujSep3uqXDGMMpaUjWLr047S+bjKarfvHNvuZjZg5qXy/CoAElqUyQkXsbOLeTwF3l1W7cM4hcPS+rqcIrKaYmwIwYvh2WTtWOpf9tzZ8+FAnBaDR0wrANrw7ecHsN1P5ARUACSQ7cXoFkdgdWHLvvrfPfw7OO8z1FIHmqgD0KyzIynHSvey/tf793VxzohWAbbD2gVR/RAVAAsUecNkQWguvAXsxuXgXyx6lcPWXIaI90fuipdXNLWWFBZkvAJn85J9QWOhmR74WFYDutHvRyEOp/pAKgASCpTJCeewCWrkObPbWUf1k2ED4yWl6wE8aFOS7eetrzfC97Jn+5J/Q0uJmU558VHy78cTkBbNrUv0hFQDxPVtx1d7QdA/WHOB6FmeK8uG602F4ietJQqG42M0n2ObmzIVzJi74604s1pyV42ytOJJ7i35JsfyqNz+mAiC+ZQ+4rB9thTOw8VlgsnPy1I8ipuMBP3uUup4kNIr7ufnrtHbdxoy8bjbDH6Cuzs0+Cv2MCkAXPixfvPMzvflBFQDxJTtp5hdotb8C62bbND+58Cg4eHfXU4RKvyI3KwArq9L//IFshz/AqlWrs3q8hH5GpwA+w3CXobJXF0eoAIiv2CmVJcSbbsaz54NO+HHcBDh9f9dThE5/R6cAPlpZi+dZImm6iDMbF/xtbe3a9TQ2Zv9hQABFWgHYWkukNZLSvf+d6U9TfMOWzTiG9tg7WDMNhX/HJj+X6wE/mTBy+CAnx61viLFsRcrXanUpWxf8be2ddxZn/ZjQ8YYwPC/q5Ng+9oeyDx5Y09sf1gqAOGfLZwzC2Juw6FN/Qulg+NFUyNcbXiaM3WGEs2O/uWAp43Ya1afXcPHJP+HNNxc6Oe6waB4FenvYkvHu7MuPawVAnLJlM44BFuhTfycD+8HNX4VBxa4nCa0BxYUMHTzAybGfe+ntPv28q0/+AJ7n8cIL850ce0yePq9u5YWKhQ++0pcX0J+oOGEPqyyivqkSuBIV0U/lReHaU2GHoa4nCb2xY4ZTt74h68d9a8FSaus2MGJo6ttZuLjgr7M33ljI+vUbnBx7tArAFqyxt/T1NfTGK1lnJ83Yi/rYy2BmoL+DW7r0WCjf2fUUOWHsGDePj/A8y1///r+Uf851+AM8/vjTzo49OqoNsDp5r2LhLn/t64vozVeyxoKx5TO+g8d8YD/X8/jOmQfCieWup8gZe4x3t6/CI399kVgs+TD3Q/ivWFHNiy++5uz44/JydyuQrRnLLb299a8zFQDJCjvpypFUTJ8H3Aq4uQfLz/YfDxcc4XqKnDJpgrstJjY1NPGnJ15I6ns3NrgPf4C5cx/Bc/Q0vjxj2LNAbxsAWGpbGpoeTMdLqQBIxtmK6afiRRZgzbGuZ/Gl8SOh8lTQNqdZtfu4UgYO6Ofs+LP/8Aw1tdveUc/lBX+dvfvue/zzn/91dvzd8goo0iZAHYy548CVD8fS8VJ6x5GMsVMqS2zF9Lux5mFgiOt5fGnoALjhDCjW8ma2RSKGsn3cXW/R0tLGbff8uduv++WTf2trGz//+f1Y6+bTP8C+jp4+6EMbC/Ja70jXi6kASEbY8hkH0x57a/PtfdKVwnz4yekwQg/4cWXShHFOj//CKwt47G8vfeb3/fLJH+DOO3/D0qUrnM6wb0GR0+P7hTXm1n3feShtD2JQAZC0+uRCP/gnsJPjcfzLGJh5Auw52vUkOe2gSXu4HoHb73uCBYs/+uTXfvnkD/Dss//hL39xd+U/QAGGfXT+H2BjYbT1tnS+oAqApI0tnzGIshkP03Ghn+7Z2ZbzD4cj93Y9Rc7bY3wp43ca6XSG1rY2pl97Hx+trKVmTb1vPvm/8cYCbrrpLtdjcEC/Yj0FEMBwWzo//YMKgKSJLZtZDryO4RTXs/jeMfvC2Qe7nkI2O+7Iia5HYGN9Exf8v5tY+lG161GAju1+v/e9n9Ha2u56FA4v0o6YwKZWk5fWT/+gAiBpYMtmTsPY/wC7uJ7F9/bdEa483vUU0smXvlCGcXyFecO6Oj5Y/B4XX1zJokXvO53lX/96mRkzbqCpKS0XmvdJsTFMLnJ3p4Z/2NsOXHDfunS/qgqA9Jo9aPpAWzH99xh7N6DL2HsyavMDfgq0pamf7Dh6GPvssYOz4zesq6NhfR0AmzY1cOmlP+LRR/+e9avu4/E4c+Y8wo9/fLsvPvkDHFLUXw8AgrW0FPV529+u6FFj0it24qw9ifMPMIe7niUQigvg1nNhVOr7v0vmtcc9nv9v9p9y17D+0/BPiMc9/ve/t/jgg4/Ye+/d6d8/80vgS5d+zPe/fwvPPPMSDu/2+4yLBg1mZDTHC7NhVsV79/87My8tkiJbPvObYH8BaG0uGdFIx9P9KnSGxK9aWtv4wmk/Yu26+qwds/Mn/+4UFRVy1lknccopx9KvX/pvhVu3biMPPvgYjz/+DJ7X551l02r3gkJ+OdTtBZo+sGxQW8nndv3g9pZMvLhWACRpdq/Kgsodp/wKqERX+Sfv0mN1xb/P5UWjtLS08cobH2TleMmEP0B7e5w33ljAX//6DLFYC6NHj0zLisBHH63i/vv/xA033MXChe873eSnOxeXDGFsXm6/zVjMRfu8d89bmXp9rQBIUuzEWcMx9mGM/bzrWQLltP3h4qNdTyFJ3JhUhwAAIABJREFU2FjfxBFTr6WpKSMftj6RbPh3JRIx7L337hx66GQmTNiTnXceQySJLaTb29tZsmQZb7yxgOeee5kPP3S7sU9PxuTlcf/wUiK5HVFvli/auTwdD/3pTo6fXJFk2PIry8B7DNjR9SyBMmUcXPgF11NIkgYNLObU4/dn7h+fz9gx+hL+0PEo4bffXszbby8GYMCAYnbcsZTS0u0ZMWIIhYWF5OXl09raSnNzC6tXr2XVqhpWrKiipcUf+wsk47T+g3I9/DGRyOWZDH/QCoD0wJZNPwtj7kXn+1Oz0zD41XnQXzuYBUnt2o188ezrM7IK0LC+joZ1vQ//XDE6L497h5VSkNsP/3msYtGckzN9EN0GKF2yh1Xm2fLpN2DMb1D4p2ZQMdxwpsI/gEYMG8SF56b/lE3DOoV/si4qGZLr4R+Le97l2TiQCoB8hp08aygNsafAzHA9S+AU5MH1Z0DpYNeTSC99beqh7LzD8LS9Xl+X/XNJRWERUwpz+/OGNeamKUseXJaNY6kAyBbspCsnELfzsRzpepbAMQZmnAB7j3E9ifRBfn4e37vs1LS8lsI/efkGLi4Z6noM1z4uyIvfnK2DqQDIJ2zZzGPxIs+DHet6lkD6v8/DUfu4nkLS4MCK3Tj8oL369BpdbfIj3TuleBBj8nL7unRjzaX7vf1gY7aOpwIgANjyGd/B2CcAPZy+Nw7fE752iOspJI1+NP10hg0Z2Kuf1Tn/1OyUl8+5JYNcj+Ha0+WLZz+azQOqAOQ4O3Vq1FbMuIOOR/hqY6je2KMUZp3UcQpAQmPo4IFcN+urKT8oSMv+qSkyhh8MHp7re/7HTCR+UbYPqjf8HGYPmj6QNUP+BJzlepbAGrkd3HYuDEz/Nq3i3tgxw2iKtfDGu8uT+n6Ff+q+u90wygpz+78fg7m6fOHcJ7J9XK0A5Cg7+YqdaTYvA19yPUtg9SuA60+Hwf1dTyIZ9N0LjmfC3jv1+H0K/9Qd3q+Yo/vl+H8/1r5liwtudXFoFYAcZCfOOoB49GVgT9ezBFYkAj84GcZt73oSybBoNMJPv3/ONq8H0AV/qRuXX8B3B+X8Vf/tmOg3Kubf0+bi4CoAOcaWT/8yEe9ZYITrWQLtkqPhoN1cTyFZMnrUEO772YUMHPDZe9R1wV/qRkbzuH7ICPqZHI8gw80Vix543dXhc/xPP7fYiukXg3kE7ezXN8dPhFMmu55Csmy3XUZxx3XnUVDw6a1qWvZP3aBIhOuHjGBIJNcvQbNL6pvMtS4nUAHIARaMrZhZiTW3o3/nfTNpF7hcl03kqskTxvGza84lGonQ1rhJ4Z+iQmP40ZAR7JDjj/kF2jH2a4cvn93scohcr2ChZ/eqLGDH/eeAvcT1LIG341C45Wwoyvk3r5y2y9jtKcrP4/G/PIO1rqcJjqKiAm467ED2qsvaPje+ZY350aSFc3/reg4VgBCze1UOoF/To0DGnyoVeiX94NZzYVjvNoaR8Ghq9hg3bid2320nnn72f8Tjcdcj+d6gkgHcf08lh37tBOI1dbQurXI9kkvzTXHh1+6pnp/RR/0mQwUgpOykK0cSjf8TzMGuZwm8/CjceCbsNsr1JOJYU7NHrKXjY/+4XXagouxzPP3sy7S2OrmIOxBGDB/Cgw/8iH323hUTMfQ7YJ9cLgFN1oseM+mdX9e6HgRUAELJTpi5E8b8E93m13fGwKwT4aDdXU8ijnUO/4Qxo7fniMMm8cw//0djY8zRZP41ftwOPDT3OnYaO/qT38vtEmAvnbR49lOup0hQAQgZO3HWnkTtP4GdXc8SCuceAlP3dz2FONZV+CcMHbodxxx1IG+8tYjVq9dleTL/OvoLB3D3nd9j2NDtPvO13CwBdl75ornf/aHrMTpRAQgRO2nmJLDPACNdzxIKn/8cfPc47fGf47YV/gklJf055ctfIBKJ8Or8BTl9cWBBQT6zpp/HVTO+QVFhQbffl1MlwLISr+3Y0XXvNrkepTMVgJCwFdOPwvIk8Nm6LanbbVTHNr8Fuf140lyXTPgnRCIRpkzeh/KyPXnxP2/R1JR7pwR22Xk0D9xbyVFH7p/UQ5RypAS0E7UnVCz+7WLXg2xNBSAEbNmVx0PkMaDY9SyhMGwg3HoODNIfZy5LJfw722HMSE46/lCWLa9i2fJVGZjMfyIRwxmnfZE7b5vFqFHDU/rZsJcAg5lZsXDO713P0RWtbQacrZh+Itb8ESh0PUsoFBfAHf8H47XHfy7rbfhv7T8vv8W1P7mHDz78OA1T+dO+++zKD66axoT9+nahrI171N38GxqefjVNk/mBnVe+aO7xBnx5UkgrAAFmy2acDeYhoPsTbZK8iIHKU2HCWNeTiEPpCn/oWA04feoxDB5cwutvLqK1tT0tr+sHw4cP4arp3+CHP/hWyp/6uxLClYAVccuxY9a+5avz/p2pAARY5ehDx4A9DdCJ6nS46Gg4boLrKcShdIZ/QjQaYcJ+u/OVk47Ai3ssef8j2tuDu3nQ0KGDuHDaVH5243cpm7hHUuf6kxWiEtBsI/a4yYvmfuB6kG3RKYCAsxWzjsN6j6JTAH1z3ASYeaLrKcShTIR/VxoaYvzpsWe4+9ePsGZNcG4b3GHM9nztnBM5Y+oxFBVldtEx6KcDrDHnTVo4+37Xc/REBSAEVAL6aMLYjj3+87UglquyFf6dNTe38shjz/DIn5/l7Xfez+qxkxWNRth/8r5MPfUovnj0QUSj2XuWWFBLgIGfly+a813XcyRDBSAkVAJ6afQQuOsbuuI/h7kI/62tqlrD08++zKN/fpaFi5Y6nQU6dvD7yklHcPJJhzN8+BBncwStBFh4tmH7j449/LnnAnGxhwpAiKgEpGhgv47w32Go60nEET+E/9YWLVnGSy+9ySuvvcv8+QvZVJ/5p+cNHz6EKRV7MaliLw49pJwdxvjnLpgAlYDlxFsnVbz3u7WuB0mWCkDIqAQkKS8KPz0LynZyPYk44sfw35rneSx5bzn/e20hixcvZdlH1Sz/qIq1a9f36vUiEcOokcMYu2MpY8eWss/e45lcsRc7jS1N8+TpFYASsAlrDq5YPPsd14OkQgUghFQCknDFl+DEctdTiCNBCP9taWyM8dGKKmpW1xGLNVNfH6OxMUZTrJnm5hb69+9Hv35F9CsqpKSkP/2L+1FaOpyxO46ioCDf9fi94uMS0Ibl+IrFc/7hepBUqQCElErANpx5IFz4BddTiCNBD/9c5sMSYI3hvPKFcx5wPUhvZO+STskq89r18zCRk4EW17P4ygG7wgVHuJ5CHFH4B5uJRhh65dkMOGqS61EAsMZcG9TwB60AhJ5WAjrZdSTc8XXop40Tc5HCPzx8shLwu/JFc87y6za/ydAKQMhpJWCzoQPg+jMU/jlK4R8uPlgJeJriwq8FOfxBBSAn5HwJKMyH606HESWuJxEHFP7h5K4EmFeavegpFfPvacvygdNOBSBH5GwJMAZmngCfG+16EnFA4R9uDkrAO62R6HEHL7m/PlsHzCQVgBySkyVg2hFw5N6upxAHFP65IYsl4EOIH3PggvuC8wCHHqgA5JicKgHH7gdnHeR6CnFA4Z9bslACVsU976iKRb+pztQBXFAByEE5UQL23bFjsx/JOQr/3JQoAf2PTPsGX2uImy9MWfLgsnS/sGsqADkq1CVg1GD48WlQkOd6EskyhX9uM9EIw2acm76VAEst1hxZ8d7sxel5QX9RAchhoSwBxQVwwxmwnZ7ul2sU/gJpPB1gqbXGOzJo+/unQgUgx4WqBEQjHZ/8dx7uehLJMoW/dJaGErDai3DEpEUPvpvOufxGBUDCUwK+cyxU7OJ6Cskyhb90pQ8loCYSiRwxeeGcBZmYy09UAAQIQQk4bX/4coXrKSTLFP6yLSmXAMvKKObQsgUPLMzsZP6gAiCfCGwJmDIOLtLT/XKNwl+SkXQJMCwlj8MmLpr9fnYmc08FQLYQuBKw0zCoPBUi+qucSxT+kgoTjTBs+jl2GyVgfn6ed0DFu3M+zOZcruldUz4jMCVgcH+46avQXw86zCUKf+mViDHDZpzjDThqcnyrrzzX3tZ+xH5vP1jrZC6HVACkS74vAQV58JPTYeR2rieRLFL4S58YExk642wz8PiDVm/+jb/Ux8wX9//gt5vcDuaGCoB0y7clwBiYeSLsPcb1JJJFCn9JB2NMZOhlZwzrf8yUny5d1HjK4ctnN7ueyRXjegDxP1sx6zis9yjgj7X2bxwGXz/U9RSSRQp/SSNrrb12+OhBla4HcU0rANIjX60EHL4nfO0Q11NIFin8JY1aLPYchX8HrQBI0pyvBOxRCr/4GhTlOzm8ZJ/CX9LFwtoofGVIacmLrmfxC60ASNKcrgSM2g5uPFPhn0MU/pJG7+NxkMJ/SyoAkhInJaBfAVx/Rsdtf5ITFP6SPvaZaEt88vAxJe+5nsRvdApAeiVrpwMiEbjuNDhwt4weRvxD4S/pYuDeIaMGftsY0+Z6Fj/SCoD0StZWAi45WuGfQxT+kiZxLDOHlpZMU/h3TwVAei3jJeD4iXDK5Iy8tPiPwl/SpMFavjJsdMmNrgfxOxUA6ZOMlYBJu8DlX0rrS4p/KfwlTVZ6Nn7o8NElf3U9SBCoAEifpb0EjB0GPzwVovrrmQsU/pIWlpfj0UjFiNGD33A9SlDoHVbSIm0loKRfxxX/A4rSM5j4msJf0uThmDfwiO23H7Da9SBBorsAJK36dHdAfhRuORsmjE3/YOI7Cn9JA4vhpqEjB15ljPFcDxM0WgGQtOr1SoAxMOMEhX+OUPhLGrSAPXfYqJKZCv/eUQGQtOtVCTjnYDh638wNJb6h8Je+srDWg6OGlQ76jetZgkwFQDIipRLw+c91POFPQk/hL2nwbp6JTxpRWvKC60GCTgVAMiapErD7KLj6yxDR5Shhp/CXvjN/jxS1Hzx41ODlricJA73rSsZ1e2HgsIFw9zdh+EA3g0nWKPylrwzcs3lb33bXs4SFVgAk47pcCSgugJu+qvDPAQp/6aM41v6/oaUlFyj800sFQLJiixIQMfC9kz3Gb+96LMkwhb/0Ub019qRhowfd7nqQMFIBkKwxr10/D+wZXP2VJRy8m/7uhVysxSr8pdcMLDXG7D981KC/uZ4lrHQNgGSdbWw8Dsj8o4TFGX3ylz4x/LfdmC+PHDmw1vUoYaZPYZJ1pn//eUDmHyUsTij8pS+Msb+PtQ88UuGfeVoBEGe0EhA+Cn/pA2utvXZYackPjTH6S5QFKgDilEpAeCj8pQ+aLfa84aWDHnI9SC5RARDnVAKCT+EvfVCNsScNGzXoVdeD5BpdAyDO6ZqAYFP4S29Zw9sR2vdX+LuhAiC+oBIQTAp/6S0LT0YK2g4ZUjpkhetZcpVOAYiv6HRAcCj8pffML4aOGnCZHuPrlgqA+I5KgP8p/KWX2jHmO8NGDbzT9SCiAiA+pRLgXwp/6aX1RMypw0YO/KfrQaSDCoD4lkqA/yj8pZc+BI4fVlqy2PUg8ildBCi+pQsD/UXhL71h4aU2Yw5Q+PuPCoD4mkqAPyj8pVcM9w9bP/CIUaMGrnE9inyWTgFIIOh0gDsKf+kFa629dvjoQZWuB5HuqQBIYKgEZJ/CX3qhETh7WGnJn10PItumAiCBohKQPQp/SZmhylrvxOGl2813PYr0TAVAAkclIPMU/pIqg30Tm3/i0NHFH7ueRZKjiwAlcHRhYGYp/KUXHmmh8SCFf7BoBUACSysB6afwl9RpW9+gUgGQQFMJSB+Fv6SoFcO0YaNK5rgeRHpHBUACTyWg7xT+kqJ11phTho8a+JzrQaT3VAAkFFQCek/hLyl631pOGD66ZInrQaRvdBGghILp33/euk2tVwOtrmcJEoW/pMY+E22JT1b4h4NWACQU3nyz6mjgLwOL8wp3Li22xhiV2x4o/CUVBu4dMmrgt40xba5nkfTQm6QEXiL8raVoU2O7WVbVFLFWwbYtCn9JlvWs3fTI8+8MLS2ZpvAPF60ASKB1Dv/Ov1/SP4+dS4sxRn/Ft6bwl2TZWAu1P5lN7L/v2ri1w6csnlvneiZJnzxbdcHZLg5sSu/+jYvjSnh0F/4AmxrbWVbVpBKwFYW/JCu+dgOrr76b1g9WApiIiZQBTzseS9IoD+yDjo6tAiC9tq3wT1AJ2JLCX5LVsmg5tT+4l/i6TZ/8nrG2AhWAUNE1ABI4yYR/QqIE5Po1AQp/SVbj829Qc/ntW4Q/gIlQ7mgkyRAVAAmUVMI/IddLgMJfkmItG3//NGt+/AC25bN301qrAhA2KgASGL0J/4RcLQEKf0lKWztrbniQ9fc+Dl63f192/Ndhh+VlcyzJLBUACYS+hH9CrpUAhb8kI76xgeor76DxmVd7+tZIv5WjR2ZjJskOFQDxvXSEf0KulACFvySjdVkV1RfdTMs7Hyb1/dHCaGmGR5IsUgEQX0tn+CeEvQQo/CUZsdcWU3Ppz2mvWZf0zxgvogIQIioA4luZCP+EsJYAhb8ko+GJl6i96i68huYUf9JTAQgRXdAhvpTJ8E8I2z4BCn/piY17rL/zETb9+d+9+3kTGZHmkcQhrQCI72Qj/BPCshKg8JeeeE0t1P7gnl6HP0DEWn1oDBEVAPGVbIZ/QtBLgMJfetJeVUf1xT8l9vKCPr2ONTaappHEB1QAxDdchH9CUEuAwl960rJwGVWX3ELbRzV9fi1rUQEIERUA8QWX4Z8QtBKg8JeeND43n5or7sDbUJ+W1zPGKDNCROdzxDk/hH9CUC4MVPjLNlnLhrlPsuHBpyCNhVYrAOGiNidO+Sn8E/y+EqDwl22xrW2suX4OG+Y+mdbwBzDGeGl9QXFKBUCc8WP4J/i1BCj8ZVvidRupufRWGp+dn5HXt9Ymv2uQ+J4KgDjh5/BP8FsJUPjLtrQuXUX1JbfQsmRFxo5hjKnL2ItL1qkASNYFIfwT/FICFP6yLU3/W0jNpbfSvnp9Ro9j0ApAmKgASFbVVW08trgo/9YghH+C6xKg8Jdt2fTY89RefRdeY6rb+qbO0ymAUNFdAJI1dVUbjraYx4aUFBZFI4ZNja2uR0qaq7sDFP7SHRuPs+6Xj1L/l97v7JcqQ1QFIES0AiBZ0RH+kb9Axyf/QQMKKOlf4Hiq1GR7JUDhL93xGppYPePOrIY/QMQzfd9NSHxDBUAybuvwT1AJ6J7CX7rTXrWW6kt+RvMb72X70I0Tl9xfne2DSuaoAEhGdRf+CSoBn6Xwl+40v7u0Y1vfFatdHP49A/qLGSIqAJIxPYV/gkrApxT+0p36p15m9eW3421ocDXC+64OLJmhAiAZkWz4J6gEKPylG9ayYc486m7+Lba93eUkWT/nIJmluwAk7VIN/4RBAzoKQC7eHaDwl67Y5lbWXDeHppfedj0KVisAoaMVAEmr3oZ/Qi6uBCj8pSvxuo1UX3arL8IfIOp5C13PIOmlAiBp09fwT8ilEqDwl660Ll1F9bdvofW9j12PktBcmNfsjyYiaaMCIGmRrvBPyIUSoPCXrjS98BbVF99C+5rMbuubCoN9fa8FDwfn3JwkJQ/Mb10PIcGW7vBPCPM1AQp/6cqmx55n3Z2PgOevvxse5n+uZ5D0yzOld5/teggJrkyFf0IYS4DCX7Zm29up+/nvaXjqFdejdMP4dTDpA50CkF7LdPgnhOl0gMJfthav79jW17/hD8QjWgEIoew91URCJVvh39nGhtZArQQAlPTP+2QloL4pTmub64nET9pXrWH11XfR9nGt61G2pbp80ZzR2gUwfLQPgKTMRfhDcE8HLK+OMbA4ijH6z00+FZu/hDU/vA+vMeZ6lJ48rfAPJ70jSUpchX9CEEvA+x+tw+JR9rlSIll8lLD4V/28/7Dutj9i2+OuR+mRMfzD9QySGboGQJLmOvwTgnRNQG1dPbXr6lmzrpHXF1XhZelRwuJPNu6x/t7Hqbvld4EIf8Dm5XlPux5CMkMfRyQpfgn/zvx+TUAi/DsbPqS/VgJylI21sOYnc2j67zuuR0nF6xWL5pS7HkIyQysA0iM/hj/4eyWgq/AHtBKQo+JrN3Rs6xus8AdjtfwfYioAsk1+Df8EP5aA7sI/QSUgt7QsWk7VhTfT+v5K16OkLGLNk65nkMxRAZBu+T38E/xUAnoK/wSVgNzQ+Pwb1Fx+O/F1m1yP0hs1Hyxqesn1EJI5ugsgB1lbGWHF6kHkxweC1x8o7viCKUz8c2zFCZ9rInITPg//BD/cHZBs+CckSoCuCQgha9n4h2dYf99ffbetb7KM4U+n8XAgrlSU3lEBCBFrp+Wzyu5MNDIej1FEbCkwAmtGg90eGAmMorqqH/mJn+q0CJTIoMV5FP3oFdquGRtv223nbP5f6BOXJSDV8E9QCQihtnbW3vIQDU+/6nqSPjGWh13PIJmld5yAsbYyQm3VzsTNrlg7nojdDWt2BXYFxtLXUrc8CjMHQqPBFuRT/4OptO0XnBIA2b87oLfh35nuDgiH+KZGaq/5NS1vf+B6lL6qWbqoaYxWAMJN7zY+Zu20fGrsBGxkItgJGCZg2Rfon5EDrjdwRQnUfroqoBKwbekI/wSVgGBrXVZF7ffupr1mnetR+szCLyctmnOx6zkks/RO4yN2xTdKyc8/EOsdAEwBU062zsG3AlcNhCWfXUBQCehaOsM/QSUgmGKvLWbNj+7Da2h2PUpaRODzZYvm/Nv1HJJZepdxyNZ8awTW+zyWg8EcBLYMV/9ObusPz3R/Jb1KwJYyEf4JKgHB0vDES9T94mFsPCSr5Yal5QvnjNf+/+GniwCzyNrKPGpqDsbzjsPwRTxv705fdTfYU4XbDH8A09rGwGsfDlwJyMSFgZkMf9CFgUFh4x7r73yETX8O2Qdlj18r/HOD3l0yzH583hDyoidg+RJwNDDI9UxbWBbtOO+fZD7m+kpApsO/M60E+JfX1MKanzxA7OUFrkdJt7gXjew8+d0HPnY9iGSe3lkywH504WAKvBPwmIqxRwP+2KVma00G/l8JrE5tP6hcLQHZDP8ElQD/aauuo/bqu2j7qMb1KJnwt4pFc453PYRkh95V0sTWXjSAeNupWHMmcARBOL1yS394rnfdJNdKgIvwT1AJ8I+WhctY/f178Ta4+buQaQZ7cvmiuY+5nkOyQ+8ofWSrvlkOkWnAmcBA1/Mk7cUCuLFvdxPmSglwGf4JKgHuNT43n7U3PYRt8e8TKPuohuLCHSvm39PmehDJDr2b9IJdM20UbeY8sF8HxrmeJ2VrI3BJCTT0/V9/2EuAH8I/QSXAEWvZMPdJNjz4FIT42Q3G2sryxXN/6HoOyR69k6Sg06f9cwnIHvmfYYHvD4C38nv81qRfMqQlwE/hn6ASkF22tY21P/0tjc/Odz1KprV6ETN28oLZobywQbqmd5Ee2PcvKWRAy4nAZVgOcD1Pn/2jEG4vTvvLhq0E+DH8E1QCsiNet5Ha799Dy5IVrkfJhrkVi+Z8zfUQkl16HHA3bO1FA2zV+d9hQMtSLH8MRfivN/BAv4y8dGKfgPy3lmXk9TOlq0cJ+zn8QY8SzobWpVVUX3JLroQ/XsTc4XoGyT59hNiKXfntoZi2SzBcAgxxPU9aXT8A/pO+pf+uBH0lYM26BlbXBePZ7VoJyIzYq4tY86P78RrDsa1vEl6sWDTnENdDSPZpBWAzu/qb29uq828h0rYcwzWELfz/W5Dx8IdgrwS0t7cHJvxBKwGZsOmx56m9+q5cCn9sxN7megZxI+c/Otiac/oTL74YY68CSlzPkxGtwEWDUt7wpy+CthKwqbGVjQ2tvl/+74pWAvrOxuOsu/NR6sO2rW+P7JLyRbvsaaj0XE8i2ZezKwDWTsu3VRdMw+v3AcbeQFjDH+DRoqyGPwRrJSAR/gAjhg5kxJDgbOcAWgnoK6+hidUz7szB8AdjIzco/HNXzhUAazG2atpXqWYx2LuBka5nyqi6SEcBcCAIJaBz+CeoBOSO9qq1VF/yM5rfeM/1KC58XBRtfMj1EOJO1PUA2WRXXbg7DWW/A64EBrueJyvuLob33e1KbOIeBS8upn2PUryR/voj7yr8E/oXFwLQGAvOrm9NsTY2NbYwcthAjE4H9Kj53aXUTL+D+Or1rkdxwsDV+y186GXXc4g7OfEuYaumFWOZjmEWfn0wTyZ8GIXvloAPFvj8dk3AtsK/M10TEE71T73Mup//Adve7noUV1a31jftfODKh2OuBxF3Qr8CYFddcAKGeRhOIgf+/27h5gFZP/ffHT+tBCQb/qCVgNDZvK3v+l89Cp4PmrEjBnPtlKUPPe96DnHLH+mQAXblN8fYqmlPYuzjwI6u58m6t/LgXX89kNAP1wSkEv4JuiYgHGxzK7XX/JoNc590PYprNba44JeuhxD3QvmJ2FZPm4oxfwP2cT2LM7f1h1r/9TuXKwG9Cf8ErQQEW7xuIzUz78zVi/22YK2dNemd+19yPYe457+E6ANb860RtuqCR7H8kbBt5JOKt/J99+m/MxcrAX0J/wStBART69JVVH/7FlpzZFvfHqzYrn3Qva6HEH8IzQqArZ42FWvnAeWuZ3HOp5/+O8vmSkA6wj9BKwHB0vTCW6y+6ld4mxpdj+IL1pjv7rPkntdczyH+4O+USIL9+LJ+dtUFD2z+1D/M9TzOveO/c//dycZKQDrDP0ErAcGw6bHnqb32PmxLm+tR/OL9hhHL57oeQvwj0CsA9uMLdiWv9R/AMa5n8Y1f9PfNlf/JyORKQCbCP0ErAf5l29upu+UhNj70NORO3+mRwX77wNf+8o7rOcQ/AlsA7KoLTiJi/waMdT2LbyyLwuzMPO43kzJRAjIZ/glBLgGjhg20JoQtIF7fRO337qbpxbddj+Iz5pXyRXO++0PXY4ivBOej4mbWVubZ6vNvwNjHgO0ONu0cAAAfOUlEQVRcz+Mrf3Wz5W86pPN0QDbCPyGopwPmL6oyQKh2wWmvWkPNJbfQ/Ob7rkfxn4h3hdF6iGwlUCsAtvr/hlPf+BSYM8mRXQyT1mDgtmKIB/ePJR0rAdkM/4TArgQ0tLSUDhtoMcF6H+hK7PXFrL7il8TXbnQ9ih/9sWLh3J+5HkL8JzArAPbj88Zj818Ec5DrWXzpH4XQEtzwT+jLSoCL8E8YMXQgwwYPcHLs3qpd12Cq6hpmAS2uZ+mL+nn/oXbWXXiN2tW2C60mEr/a9RDiT4EoAHbVtw4iGv0vsJvrWXzJA+YVup4ibXpTAlyGf8LIYSVBOh3QaoyZuu++pT/zjD2ZAJYAG/dYf+/j1N3yO2x73PU4/mT5RfmC33zgegzxJ98XALvqgtMx3jPoFr/uvZYfqCv/k5FKCfBD+CcE5JqAVmPMKWdPLX8CYMSoQfOCVgJsrIU11/yajb9/2vUofrYmWmR+4noI8S/fpoa1GLtqWiXG/g4I7tVt2fBEeD79d5ZMCfBT+Cf4vARsEf4JQSoB8bUbqL7sVpr+qzvatsUaM3Pim7M3uJ5D/MuXBcBaDDXTfoHhGnSx37bVRTq2/g2pbZUAP4Z/gk9LQJfhnxCEEtCyaDlVF95M6/srXY/iaxZeq1i402zXc4i/+a4AWDs1Ss20+7Bc7HqWQPhXQcc1ACHWVQnwc/gn+KwEbDP8E/xcAhr//QY1l/+C+LpNrkfxO4+I/bahMuTvDNJXvvp0be3UKNXb3Q/mXNezBMbFJfBR4O/iSootyKf+B1NZv/0Q1pvg/H+uraundl29yxGSCv/Oaqs3Hhex5lHA/fkla9n4h2dYf99fwdOt7D0x1txdvnj2t1zPIf7nmxUAayvzqB4yR+GfgqXRnAl/6FgJaLzmAdYvXO56lJQ4XglIOfzBRysBbe2svfFB1t/7uMI/Oeut1/I910NIMPiiANgFUwuorv4j2LNczxIoLxa4niCrqtoaqKpfT/zmOdh3g3Vnk6MS0KvwT3BdAuKbGqme/ksann7VxeEDyk6veO93a11PIcHgvABYW5nH4O3+CPYrrmcJnP+G9+K/rVW1NVDd1tDxi9Y2vJ/OVQnYtj6Ff4KrEtC6rIrqC2+i5e1g/Tt27IXyRXPvcz2EBIfTAmAthupVd4E5yeUcgbQiCitzY/l/i/BPUAnYlrSEf0K2S0DstcXUXPpz2mvWZeNwYdEaiUS+pf3+JRVuVwCqp10H5jynMwTVy7nx6b+6q/BPUAnoSlrDPyFbJaDhiZeoveouvIbmTB4mdKwx15cteGCh6zkkWJwVAFt9/kXATFfHD7xXw18AqtoaqOou/BNUAjrLSPgnZLIE2LjHujv+xNqf/x4b17a+KXqvoYkbXA8hweOkANhVF5yJNbe7OHYoNBh4L8/1FBnV5bJ/d1QCIMPhn5CJEuA1tVB7zb1seuz5dL1kLrGe9aYdvny2lkwkZVkvALbq/GMwdo6LY4fGG/mh3vwnpfBPyO0SkJXwT0hnCWirrqPmkluI/ffdNEyWi8yvJi9+UM1JeiWrIWxXnr8bmN8D4V+/zqTXw/vpf5vn/HuSmyUgq+GfkI4S0LJwGdUX30Lr8uo0TpZL7EfNXkSnUaXXslYAbO1FA4iYR4HtsnXM0HonnP0pqXP+PcmtEuAk/BP6UgIan5tPzRV34G1wukNikFlj7QUHL7lff4DSa1kpANZiaG97ANgrG8cLtbpI6B79C71c9u9ObpQAp+GfkHIJsJYNc+ax5sdzsC3+fpaDv9lfly9+8O+up5Bgy06S1Jz/fTCnZuVYYfdO+Jb/0xr+CeEuAb4I/4RkS4BtbWPN9XPYMPdJsLpdvQ+qooWR6a6HkODLeAGwVecfgzU/yPRxcsaCcBWAPp3z70k4S4Cvwj+hpxIQr9tIzWW30fjs/CxPFjrWGvvNiW/O3uB6EAm+jBaAzRf9/QHIjS3rsmFJeApAWs759yRcJcCX4Z/QXQloXVpF9SW30LL4I0eThYeBWyctnPuk6zkkHDJWAKydlk/E/AYYlKlj5Jw2Ax+Ho0tlZNm/O4EuAQPaNv/S1+GfsHUJiL262Ku59Oe0r17veLJQWNBS33S16yEkPDK3AlBjfwRMytjr56JlEWh3PUTfZTX8EzaXABZ8mN3j9tGIoSX5gwf1fwvMSX4P/4QRowbNA85oePp/79Ve/auI16g9atKgGWvOPHDlwzHXg0h4mEy8qK2adjDwHFr6T695hfCrYtdT9ImT8O+sIJ/IFedi9h7vbobUtBoTOWXChJGBCP/OXv3c148z2EeBQtezBJ3BXFa+aPatrueQcEn7CoBdN20Q8CAK//RbFuw/0oxe8JesYJ0OCGz4A0xaNHuexWT9UcIh9HTZotm3uR5Cwif9pwCauR3YKe2vK4F+/G9WLvhLVjBKQKDDP0EloM/We9HIeXrMr2RCWguArbrgZOCcdL6mdLIymBsAOV/274q/S0Aowj9BJaD3jOFbk9994GPXc0g4pS1RbO1FI8Hem67Xk600GtgQvALgy/BP8GcJCFX4J6gE9Mp95Qvn/NH1EBJe6UuU9vhPgSFpez3ZUgBv//PFOf+e+KsEhDL8E1QCUmBY2uxFL3M9hoRbWgqArfrmIWC/mo7Xkm4EbP9/X53z74k/SkCowz9h0qLZ88CcAbT1+M25qxW8r+pBP5JpfU4VayvzMJE7yNAthbLZ2uAUgP/f3r2HR1XfaQB/v2dy42rDRSVY8cJlEa+ZGXDR3apdfVbbbqtVaOsi1JogokXb7i7ubldat1upu6sVFWYSMA1enpbquj5K+4ilF7ellJTWVghahHohQStYEEhIMvPdP5IggcxkMvM753fOnPfzPD5inDnnVXHe7/zOzdfL/pnYHQJCUf69Ys0NTyvkU+BKQAb6j7GtqzfaTkHFr/BWaWn5EhTnGshC2QRkAAhk+feyMwSEqvx78XBA/0TxTLS58QHbOSgcCmoVfeumUyD4qqkwlMU7/h8AAl3+vbwdAkJZ/r04BBznNe0ov4GX/JFXCmsVx7kfwHAzUSirvf4+whKIE/5y5c0QEOry78Uh4IjDgDMrtiO5z3YQCo+8BwBtqb0CwKcNZqFs9vl3BSBQJ/zlyt0hgOV/FA4BgIouijU/stl2DgqXvFpFFQLgHsNZKJsD/lwBKIpl/0zcGQJY/v0I8xCgkO/GtzYmbOeg8Mnva2XL/FkALjAbhTJKAWj33wBQ1OXfy+wQwPLPIqRDwKupzs5a2yEonAY9AKheF4HoXW6EoQwOOL47LSgU5d/LzBDA8s9ByIaAdseJzLpw+2P7bQehcBr8CkBr5ecBTDUfhTI6aDtAX0V1wl+uChsCWP6DEJqbBaneXL1l1Uu2Y1B4DWoA0C3XlQH4Z5eyUCYd/ln+L8oT/nKV3xDA8s9Dsd8sSAQPxrY1fsd2Dgq3wa0AVFbeAuB0d6JQRl3+GABCteyfyeCGAJZ/AYr2cIDg5xVy6Mu2YxDlPADo7jnDACx2MQtl0mU7AMu/j9yGAJa/AUU4BLxRWpK+ZtqWNR22gxDlvgKQGnorgJPci0IZWR4AWP79yD4EsPwNKqIhoN1Jpz993u9Wv2M7CBGQ4wCgWlsK0VvdDkMZpOztOpQn/OWqZwjA1j5DAMvfBcUwBIjKgupXVjfZzkHUK7cVgFaZDeAUd6NQRpZuAhjqE/5y1dGJ1LcaEXnjj+1g+bsqyEOAQu+NbmtosJ2D6Gg5Vot+0d0YlFWp97vksv8gdHSi699XVYzYteE2lr+7AjoErNvZ3Han7RBExxpwANDWmo8AiHuQhTKJeHsXIJb/4ESGApPuAM6sev73trOEQcCGgD8i1fG5WVhj8UAeUf8GXgFQ3OFBDsrGwxUAlv/glI8VTPm3Mgyf7AAp4Ye8RwJys6D9acHHY68+8a7tIET9yToA6JvzJwHyCa/CUAZl3uyGJ/wNzrBJDqYsKcOQ8T33aYho2m6icPH5zYJSonr99K3f2WI7CFEm2VcAHF004GvIfUPc7xWe8Dc4Yy6LYMqdpSgdedQPuQLgOb8eDhBgUXRbI88HIV/LWO66t/YECOZ6GYYyGOHu5rnsnzunFJjwhRJM+HwJ5NhDMxH1VQmFhe+GAMUD0ebvPGQ7BtFAMn+7b5fZAIZ7F4UyKlGgwp0TAVn+uSs/sft4/5hLIv2/wJF93iaiXn4ZAlTxw/dPfp23+aVAyLK8r/z27yfDzQ8ALP/cjb7IwdRvlGHoaVmey3Cgg491tcgHQ8BW6Sj/zKU/+YkPbt5NNLB+BwB98wsTAfylx1komxFmBwCWf24iQ4HTF5TitJtLEanI+tI0LlrFf6GWWRwCdjsouSq2I8lVIAqM/lcAIs5cAP54BB11O8HcAMCz/XMz8lwHZ32zDKNm5nQe7H4ReHvDBuqXhUsED0HSn6puXvm6R/sjMuK4TzZVCCDX2whDWYw1cyUAz/YfWGSYYMLnSzDpK6UoG5XzHMxvfj7i4SWCKYH+fWzr6o0u74fIuOO/2uyuvQTA6Z4noewMDABc9h9Y5XQHZ3+rFGMuiwxuDUzR4looyosXhwNU9fZoc+P/uLV9IjcdPwAoL/3zpRMLu8Sc5Z9d+YmCiV8uxRm3laJkZF5Hv1pNZ6LCuTsE6N3xbY0Pmt8ukTf6DAC6e84wANdYykLZFLACwPLPzCkHxl1TgrPuKcMJ5xdwzyuHKwB+5coQoHgs2tx4l7HtEVnQ9xMvXXENXL/tDOXlpPwGAJ7wl4HTfWnf2f9VhqqrI3AKf94CVwB8zOgQoLp+SOTQjQKe9EnB1ncAELnWUg4ayNg0UD64zxue8Ne/EdMcTL27DKfdXIrSE0xd7CIcAHzOxNUBCjQNibR9ctqWNR0GoxFZcWQA0HduGQ7F5TbDUBYOgPG5rwJw2f94wyc7mLy4FJMXl2Loqaavck3zEEAAFHh1wPZUpPTj07as4f9YVBQ+WAFIdV0JYIi9KDSgCbmdCMjy76u3+Kd8tRQjprn0bCsVDgABkefhgF0RlcsvfLn+bbdyEXntg09D1ast5qBcnDrwAMDy/8CIaQ6m/IvLxd9NAbzm5g7IrEEOAXscx7nigm0Nf3Q5FpGnBABUl5SgteVPAD5kOQ9l86tS4O7Mz2di+Xc/ra9yuoOTrirBEOPL/Bm9IbHkBK92RuZsmjrvKoE+BaA8w0sOpdW5fPq2R37hZS4iL3R/LWptnQmWv/+dnnkFIOxn+5efKBg/O4JzHug+uc/D8gegr3i4MzJogBMD2x3B37H8qViVdP9Jr7Qbg3IyNg2MSgN7+y5nh/WbvziCkecJxv5NBCec7WR9tqW7QYQDQIDFmhue3jR13qeOWQnoFNXrqpsbf2QzG5GbegYAcAAIiildwIayI38ZuvJ3gOETHVROd1B5oWPwMr4CpMEBIODizQ1rN02dd03PEFAi0DnRbY3P2s5F5KYS/VPtOHTiXNtBKEdTUsCG7l+2dIWn/CvGCypnRDD6YgflY31Q+n1wBaAYxJsb1jZNnfcZER0W3dr4Xdt5iNxWgjF4Fy1yJ0S/DqBswHeQXZO7AABvlx5A66HiLX+JAMMnORh5nqByegTlJ/qt9I8S6XrVdgQyI9bc8LTtDEReOfKpqrtrz0Fa6wGZbjMQDaBN8Ocvl+C1V4qv/CuqBCOmOBh5roMR0wSRIT4u/Q+0IVo1XGSJmec1ExF5pM8nbPflgLsWAvINAMMsZaJs3gfS7wIHd6Zx8DXFwe1pHNyh6NwbrNuSO6XAkA87GDZRMPwvBMOnRFA60naqPCiaJJ6M245BRDRY/X7F0rcXnIGudB1EL/M6EGXxfs8f/ejYq2h7U9H+lqKtJY22t4D2XWmkXXsSeu7KRgkqxgkqqgRDTnMw7DRBxSndZ/EHniIp8eR82zGIiAYr4yewKgSt82sAvRdAEL+bFZcs5Z+RAh17gI49io53091/3tM9LHTuU3QdAFIHgFRbnqsHDlAyVBAZDpSMEJR9SFA6GigbLSirFJSPBcqrHEQq8tt8MMgCiSVW2E5BRDRYA34F675KQB4CeKtga/Ip/0HQtHYPAu2ApoB0e8/PuxSpDiAyVI78RokMRXfxD5PuX4edOjMkvuJXtmMQEQ1Wzmuw2lp7HRQPARjrYh46lsvlTwXpQsewkTLzvjbbQYiIBivne6fJuOQadEamAEi6mIeOxvL3OXmJ5U9EQTWom6fKhOXvSVVyPkQ+BuBNlzIRwPIPAtENtiMQEeUrr7uny7jEWlTgHAAPAOD1z6ax/INBwQGAiAIr78enyKjkPqlKLgLSlwC8F7oxLP/gSKU5ABBRYBX8/DSpqn8RqWEXQHQpgMzPq6WBsfyDZLfMqN9pOwQRUb6MPEBVPnxfm4yrW4y0xgD8xsQ2Q4flHzD6Y9sJiIgKYfQJ6nJK3W8xDjOgshiAD+5BFxAs/wCS9bYTEBEVwugAAAAiyU4Zn1gKx4kB2Gh6+0WH5R9MqfSPbEcgIiqE8QGgl5y84mWMq5oJyHwAxffoOhNY/kH1Oo//E1HQuTYAAIDIkrRUJZJw0ucCeMHNfQUOyz/AlL+XiSjwXB0AesnJ9TsxLnkFROYC2OvFPn2N5R9s4qy1HYGIqFCeDAAAIAKVcYlGlJRMA/CUV/v1HZZ/0HWgrXOd7RBERIXybADoJSc+vBsiT3i9X19g+RcB/alcvIr/FYko8DwfALTlpqlQXen1fq1j+ReL52wHICIyocTLnenrCyohqWegGOnlfq1j+RcPSQd6ANCm+Y8Cer3nOxaZI9HEo57vl4gy8mwFQHWJg9LUY1BM9GqfvsDyLyYvS3TldtshiIhM8O4QQEvrUgBXerY/P2D5F5vv2Q5ARGSKJ4cAtKXmakC/4sW+fIPlX3wk/X3bEYiITHF9ANCW2jEAlru9H19h+Rej30q0vtl2CCIiUzw4BKDLAZzk/n58guVfnARrbEcgIjLJ1QFAW2rmAHKtm/vwFZZ/sVIgxeP/RFRUXBsA9I0bqwC5363t+w7Lv5j9nGf/E1GxcW8FoKQkCWCUa9v3E5Z/cVN9xHYEIiLTXBkAtLXmSgAfc2PbvsPyL3YHcTjF4/9EVHSMDwCq10Wg8i3T2/Ulln8IyBre+5+IipH5FYDdlTcDONv4dv2G5R8ODrj8T0RFyegAoDvnfQiKJSa36Uss/7DYhgsSL9oOQUTkBrMrABVldwIYY3SbfsPyDxFdJgK1nYKIyA3GBgDdc9tIKG42tT1fYvmHyZ8xpLTRdggiIreYWwE4fPgWoIgf88vyDxldJdMePmA7BRGRW4wMAKq1pQAWmtiWL7H8wyYNLXnIdggiIjeZWQHYrdcDOMXItvyG5R8+gmclvnyH7RhERG4ydAhA7jCzHZ9h+YdT2gnHfSyIKNQKHgC05aYoFOeaCOMrLP+QkvUSX/Fz2ymIiNxmYAXA+Wzh2/AZln94SeobtiMQEXmhoAFAdYkDYLahLP7A8g+zjRKtX287BBGRFwpbAdjd8hEU08l/LP+wu9t2ACIirxQ2ACg+YyiHfSz/sNuMaHKt7RBERF4p9ByAK4yksI3lTyqLedtfIgqTvAcAbak9FcBp5qJYwvIn4HmJJ9bZDkFE5KX8VwBUPmowhx0sfwLSAO60HYKIyGv5DwCSvsRcDAtY/gQAisclltxsOwYRkdcKOAdA/tpcDI+x/KlbBxC5y3YIIiIb8hoA9J1bhgOYYDiLN1j+1Evxbd7zn4jCSvJ5k7bWxKHyK9NhXMfypw+8hSElU/nIXyIKqzwPAThTzcbwAMufjqZ6O8ufiMIsvwFANVgDAMuf+npe4nVP2g5BRGRTvicBnmk0hZtY/tTXYWjki7ZDEBHZlu8AMMZoCrew/OlYinskvvwV2zGIiGzLdwAYZTSFG1j+dLytONBxj+0QRER+UJwDAMufjtcFR+bKpQ3ttoMQEflBvgPAaKMpTGL5U7/ka1KdaLKdgojIL/IdAMqMpjCF5U/92wzoUtshiIj8JN8BIG00hQksf+pfO9J6g8SSnbaDEBH5Sb4DQMpoikKx/Cmzf5LpdVtshyAi8puSPN/nnwGA5U+ZCJ5BdXKZ7RhERH6U7wrAYaMp8sXyp8y2Q3GDCNR2ECIiP8p3AHjHaIp8sPwps3YAsyWW3Gc7CBGRX+U5AOjbZmMMEsufslFdKLHkZtsxiIj8LL8BQGS34Ry5Y/lTVvKYxOtW2U5BROR3eT4NEHYGAJY/ZSPYhI6hNbZjEBEFQZ4rANhuOMfAWP6U3S5EnKtl5n1ttoMQEQVBnucAON5eV83yp+z2Q9JXyfkrdtkOQkQUFHkeAki/bDhHZix/yq4TKtdKtP53toMQEQVJXgOAVCXfBfAnw1mOx/KnAckXJZ5YZzsFEVHQ5HsfAAC6yVyMfrD8aSCK/5BYYoXtGEREQVTAACAvmotxDJY/DUTwIGLJf7Udg4goqPIfAFR/ZjDHB1j+NBDFI6iuWsTb/BIR5S//AaBKNgE4ZC4KWP6UA21ErOomkSX+eyQ1EVGA5D0AiCQ7AfzUWBKWPw1E8CTeH/8Flj8RUeEKOAcAAPC/RlKw/GlgT0PxWbl0SZftIERExaCwASCSfhpAYd/GWP40sMcBzJJYstN2ECKiYlHQACAn1b8NIP/LAVn+NCBdhmjVHJY/EZFZJYVvQp8AZMag38byp+wUiq9LvG6J7SBERMVICt2AvrVwNJzOXQDKc34Ty5+yS0F0gUTr6mwHcYs2zX8U0Os937HIHIkmHvV8v0TkO4WeBAg55aE9AJ7L+Q0sf8ruMFRnF3P5ExH5QcEDAABAsCqn17H8KbsWSPoSidc9aTsIEVGxMzMAnJxcC2Bb1tew/CkbwS8AxCRa/0vbUYiIwsDIACACheDBjC84gBTLnzJSJFHx3qUSS7bajkJEFBZmVgAAQNoaALx33M8P4BD2I2JsP1RMOiBaK/HkfJm2psN2GCKiMDE2AMjJqw9CZVmfHx6QPdiPoab2QUWlBY5cwpP9iIjsMLcCAABD9L/RuwpwEDuxX0cb3T4Vi+fQla6W6sQG20GIiMLK6AAgo5L7oHgAbWjCPpxucttUFNoAvR3R5Cfkwvq3bYchIgozsysAANCO+/AeTjW+XQo2wSak9HyJ1X1bBGo7DhFR2BkfAOTM5D5A7jK9XQqsFKBLUfHexTKj7lXbYYiIqJuBZwH0Y8feOpxRuRDA2a5sPz9tELyMNH4D0T9AnV0QfROS2o1U+WFU6IEjr+xIjYCkyqCRkyEyHmmtguhkqJwFwdkARtn7xwiUP8CRuVKd5LF+IiKfcWUAkFlrUrpp/pcg+rwb28/RISh+BuB5wFmHnXuaZdaaVI7v7b2ccXt/f1M33nQ6HLkYjlwExUcBTDQRuIi0A/pNnFCxVCYtO2w7DBERHc+dFQAAEk+s06b53wN0llv76EcHgLUQWY39h9fKpQ3tbuxEZtTvBLATwGoA0I01k1EiV0HxaQAXwcBDlgJL8AMobpNY3Wu2oxARUWauDQAAgHRkEZyuywFUurofYAcg96Oj6zGZuXKvy/s6Ts+x7VcB3K9NtacC8llAawGc4XUWi96C6u0S4338iYiCwPxVAEeR6Q/vhso/uLiLl6AyF+9XTZFYYpmN8j+WxJJvSCyxFNGqSVC9HJBngaI+670LwANo7zqLD/EhIgoOd1cAACCWWIVf18wG5HKDW90O1cV+LhyRJWkALwB4QTctmAIndSsUNwJFc2dEBfB9AP8msWT2B0EREZHvuLoCAPQ8KMhJzQOwx8Dm9kJwB4a8N83P5X8siS9/RaLJ2wBMBORhdJ+rEFyCHwCISSw5i+VPRBRMrg8AACDVq1oA3FTgZp6D03WORJP3B/XBMRJLtkossRDAJCiSAHK9KsEfFBsAXCbR5FUSS262HYeIiPLnyQAAABJLPg1BIo+37oHK5ySW/HjPIBF4Eku+IfHkfKhzPgQ/tZ0nB5shcqXEkzMllvyx7TBERFQ4zwYAAMDI8kVQNOX+BlmPrvQ0iSeecC+UPRJf8TKqk5dCZS6Ad2znOZ6sh+gnEE3GJJr4oe00RERkjqcDgExadhiR1LUA3h3gpQroUuzYe0WxPzRGBCrxRCM6UlN7DgvYvmKgA4LVUKdaYomPSrTuWd67n4io+Lh/FcAxpHrl69pUezW6z5Av7+cl70PlRoknv+9xNKt6LmGcr5tq1kDkEQCneBxhP4AGpEv+U6Y//KbH+yYiIo95ewigh8SS/wfgRhz/bXcX1Jkp8USoyv9oEq97AR2p8wCs8WiXrwK6EKVtVRJLLmL5ExGFg+crAL0klnxcm2omAvK1nh9tg5P6W6lOvm4rk1/0rAbM0l/XzIPKQzB/74BDEDwJkXpckHiRS/xEROFjZQXgiGjd3QCWA9gI4K+kemXoy/9oEq1rgCMzkeGhRIOkEPwCkAUAqiSavEGqEz9j+RMRhZO1FQCg+wQ41apbsWFfucy8r81mFr+S6sRL+pt5caTKHgXwsTw2sRWKx5FOP97zECMiIiK7AwBw5Ja5LP8s5IKGP+v3rvskzqy8F4o7cnjL76F4Ck76KYnW/871gEREFDjWBwDKjcxakwLwJW2q2Q7IMvQ9fJMC9JdQeQZO6imJrjRxyICIiIoYB4CAkVjdw7qpZi9E7gV0PcRZi8Nd6/zwJEQiIgqO/wd/Z9yb/Dc6JQAAAABJRU5ErkJggg==;" parent="1" vertex="1">
          <mxGeometry x="710" y="437.13" width="65.75" height="65.75" as="geometry" />
        </mxCell>
      </root>
    </mxGraphModel>
  </diagram>
</mxfile>
